<?xml version="1.0" encoding="utf-8"?>
<!-- Generator: Adobe Illustrator 19.2.0, SVG Export Plug-In . SVG Version: 6.00 Build 0)  -->
<svg version="1.1" id="Layer_1" xmlns="http://www.w3.org/2000/svg" xmlns:xlink="http://www.w3.org/1999/xlink" x="0px" y="0px"
	 viewBox="0 0 2500 2500" style="enable-background:new 0 0 2500 2500;" xml:space="preserve">
<style type="text/css">
	.st0{fill:url(#SVGID_1_);}
	.st1{fill:url(#SVGID_2_);}
	.st2{fill:#FFFFFF;}
	.st3{fill:url(#SVGID_3_);}
	.st4{fill:none;stroke:#FFFFFF;stroke-width:0.7536;stroke-miterlimit:10;}
	.st5{opacity:0.4;}
	.st6{fill:#AFE0EA;}
	.st7{fill:#E4F2F9;}
	.st8{fill:#CEE6EF;}
	.st9{fill:#47C8F5;}
	.st10{fill:#588BC9;}
	.st11{fill:#325196;}
	.st12{fill:#4678BC;}
	.st13{fill:#A3B2CE;}
	.st14{fill:#E8EBF2;}
	.st15{fill:#A7B6D2;}
	.st16{fill:#85C442;}
	.st17{fill:#5CBA47;}
	.st18{fill:#70BF44;}
	.st19{fill:#5C5DA9;}
	.st20{fill:url(#XMLID_3_);}
	.st21{fill:url(#XMLID_4_);}
	.st22{fill:#7BD2F1;}
	.st23{fill:#3FA4DC;}
	.st24{fill:#CA7C66;}
	.st25{fill:#C97D66;}
	.st26{fill:#DCEDF8;}
	.st27{fill:#F99F1B;}
	.st28{fill:#F6871F;}
	.st29{fill:#FDB614;}
	.st30{fill:#06BFD8;}
	.st31{fill:#035A68;}
	.st32{enable-background:new    ;}
	.st33{fill:#E4DAEC;}
	.st34{fill:#CBC3E1;}
	.st35{opacity:0.18;}
	.st36{fill:url(#SVGID_4_);}
	.st37{opacity:0.21;fill:url(#SVGID_5_);enable-background:new    ;}
	.st38{fill:url(#SVGID_6_);}
	.st39{fill:url(#SVGID_7_);}
	.st40{fill:url(#SVGID_8_);}
	.st41{fill:url(#SVGID_9_);}
	.st42{fill:#ABABAB;}
	.st43{fill:url(#SVGID_10_);}
	.st44{fill:url(#SVGID_11_);}
	.st45{fill:#A56349;}
	.st46{fill:#9B5F42;}
	.st47{fill:#935A3D;}
	.st48{fill:#050705;}
	.st49{fill:url(#SVGID_12_);}
	.st50{fill:#3D7C84;}
	.st51{fill:#7EC7CE;}
	.st52{fill:#191718;}
	.st53{fill:#040304;}
	.st54{fill:#0E0C0E;}
	.st55{fill:#392212;}
</style>
<g>
	<g>
		
			<linearGradient id="SVGID_1_" gradientUnits="userSpaceOnUse" x1="1857.1208" y1="-4525.3613" x2="3241.4773" y2="-4525.3613" gradientTransform="matrix(-0.5 0.866 0.866 0.5 6080.7178 1068.623)">
			<stop  offset="0" style="stop-color:#A5DDE9"/>
			<stop  offset="0.3631" style="stop-color:#A0B5D5"/>
			<stop  offset="1" style="stop-color:#9878B6"/>
		</linearGradient>
		<path class="st0" d="M819.9,1734.9c-44.4,25.7-94.1-1.3-93.9-53.9l-0.1-949c0-58.7,31.3-112.9,82.1-142.2l327.7-189.2
			c44.1-25.5,102.9,0.7,102.8,49.3"/>
		
			<linearGradient id="SVGID_2_" gradientUnits="userSpaceOnUse" x1="7205.1763" y1="2879.127" x2="7205.1763" y2="4214.4731" gradientTransform="matrix(-1 0 0 -1 8201.126 4620)">
			<stop  offset="0" style="stop-color:#7F51A1"/>
			<stop  offset="0.4707" style="stop-color:#7688BF"/>
			<stop  offset="1" style="stop-color:#5ECAEA"/>
		</linearGradient>
		<path class="st1" d="M819.9,1734.9l23.7-13.7l347.4-200.6c29.3-16.9,47.4-48.2,47.4-82.1V449.9c0-28.2-25.3-47.7-50.7-43.9
			c-5.3,0.8-10.7,2.5-15.8,5.5L833.3,606.9c-49.4,28.5-79.8,81.2-79.8,138.3v951.2C753.4,1730.6,790.3,1751.9,819.9,1734.9z"/>
		<polygon class="st2" points="1216.4,513 775.5,767.6 775.4,1658.7 1216.4,1404.1 		"/>
	</g>
	<g>
		<path class="st2" d="M1030.5,545.2l-90.7,52.4c-5,2.9-8.1,8.2-8.1,14l0,0c0,6,6.5,9.8,11.7,6.8l90.2-52.1c5.2-3,8.3-8.5,8.4-14.4
			l0,0C1042,546,1035.6,542.3,1030.5,545.2z"/>
		
			<linearGradient id="SVGID_3_" gradientUnits="userSpaceOnUse" x1="7159.126" y1="4038.1021" x2="7267.0259" y2="4038.1021" gradientTransform="matrix(-1 0 0 -1 8201.126 4620)">
			<stop  offset="0" style="stop-color:#7F51A1"/>
			<stop  offset="0.4707" style="stop-color:#7688BF"/>
			<stop  offset="1" style="stop-color:#5ECAEA"/>
		</linearGradient>
		<path class="st3" d="M1038.8,550c0,6-3.2,11.5-8.4,14.4l-90.2,52.1c-2,1.1-4.1,1.3-6.1,0.7c2.4,2.3,6.1,3,9.3,1.1l90.2-52.1
			c5.2-3,8.3-8.5,8.4-14.4c0-3.7-2.5-6.5-5.6-7.4C1037.8,545.9,1038.8,547.8,1038.8,550z"/>
	</g>
	<g>
		<path class="st4" d="M967.9,1581.6l77.9-45c7.3-4.2,16.4,1,16.4,9.5l0,0c0,8.2-4.4,15.7-11.4,19.8l-77.9,45
			c-7.3,4.2-16.4-1-16.4-9.5l0,0C956.5,1593.2,960.8,1585.7,967.9,1581.6z"/>
	</g>
</g>
<g class="st5">
	<g>
		<polygon class="st6" points="1199.4,641.7 1199.4,654.5 1145.5,685.6 1145.5,672.8 		"/>
		<polygon class="st6" points="1199.4,665.1 1199.4,677.9 1145.5,709.1 1145.5,696.2 		"/>
		<polygon class="st6" points="1199.4,688.6 1199.4,701.4 1145.5,732.5 1145.5,719.7 		"/>
		<polygon class="st6" points="792.4,959.6 792.4,946.8 1125.3,754.8 1125.3,767.6 		"/>
		<polygon class="st6" points="1199.4,712 1199.4,724.8 1145.5,756 1145.5,743.1 		"/>
		<polygon class="st6" points="1199.4,735.5 1199.4,748.3 1145.5,779.4 1145.5,766.6 		"/>
		<polygon class="st6" points="792.4,983.1 792.4,970.2 1125.3,778.2 1125.3,791.1 		"/>
		<polygon class="st6" points="1199.4,805.8 1199.4,818.7 1145.5,849.8 1145.5,836.9 		"/>
		<polygon class="st6" points="1199.4,829.3 1199.4,842.1 1145.5,873.2 1145.5,860.4 		"/>
		<polygon class="st6" points="1199.4,923.1 1199.4,935.9 1145.5,967 1145.5,954.2 		"/>
		<polygon class="st6" points="1199.4,946.5 1199.4,959.4 1145.5,990.5 1145.5,977.7 		"/>
		<g>
			<polygon class="st6" points="915.3,1110.4 1125.3,989.3 1125.3,1002.2 915.3,1123.3 			"/>
			<polygon class="st6" points="904.2,1116.8 904.2,1129.7 792.4,1194.2 792.4,1181.3 			"/>
		</g>
		<g>
			<polygon class="st6" points="1019.8,1026.7 1125.3,965.9 1125.3,978.7 1019.8,1039.6 			"/>
			<polygon class="st6" points="1008.7,1033.1 1008.7,1045.9 792.4,1170.7 792.4,1157.9 			"/>
		</g>
		<polygon class="st6" points="820.8,1071.1 820.8,1083.9 792.4,1100.3 792.4,1087.5 		"/>
		<polygon class="st6" points="975.7,958.3 1125.3,872.1 1125.3,884.9 975.7,971.2 		"/>
		<polygon class="st6" points="1037,735.3 1125.3,684.4 1125.3,697.3 1037,748.2 		"/>
		<g>
			<polygon class="st6" points="892.3,818.8 1025.9,741.7 1025.9,754.6 892.3,831.7 			"/>
		</g>
		<polygon class="st6" points="970.2,797.3 1064.2,743.1 1064.2,755.9 970.2,810.2 		"/>
		<g>
			<polygon class="st6" points="871.4,854.3 959.1,803.7 959.1,816.6 871.4,867.1 			"/>
			<polygon class="st6" points="860.4,860.7 860.4,873.5 792.4,912.7 792.4,899.9 			"/>
		</g>
		<polygon class="st6" points="1107.9,741.4 1107.9,754.2 1037,795.1 1037,782.3 		"/>
		<polygon class="st6" points="820.1,907.3 1025.9,788.6 1025.9,801.5 820.1,920.2 		"/>
		<polygon class="st6" points="937.9,909.7 1072.4,832.2 1072.4,845 937.9,922.6 		"/>
		<polygon class="st6" points="820.1,977.7 926.9,916.1 926.9,929 820.1,990.5 		"/>
		<g>
			<polygon class="st6" points="831.9,1041.3 964.6,964.7 964.6,977.5 831.9,1054.1 			"/>
		</g>
		<polygon class="st6" points="904.2,1023 904.2,1035.9 831.9,1077.5 831.9,1064.7 		"/>
		<polygon class="st6" points="1099.2,910.5 1125.3,895.5 1125.3,908.3 1099.2,923.4 		"/>
		<g>
			<polygon class="st6" points="1050.5,938.6 1050.5,951.5 915.3,1029.5 915.3,1016.6 			"/>
			<polygon class="st6" points="1061.5,932.3 1088.2,916.9 1088.2,929.7 1061.5,945.1 			"/>
		</g>
		<polygon class="st6" points="940.3,1025.7 1088.2,940.4 1088.2,953.2 940.3,1038.5 		"/>
	</g>
</g>
<g class="st5">
	<g>
		<polygon class="st6" points="1199.4,1023.5 1199.4,1036.3 1145.5,1067.4 1145.5,1054.6 		"/>
		<polygon class="st6" points="1199.4,1046.9 1199.4,1059.8 1145.5,1090.9 1145.5,1078 		"/>
		<polygon class="st6" points="1199.4,1070.4 1199.4,1083.2 1145.5,1114.3 1145.5,1101.5 		"/>
		<polygon class="st6" points="792.4,1341.4 792.4,1328.6 1125.3,1136.6 1125.3,1149.5 		"/>
		<polygon class="st6" points="1199.4,1093.8 1199.4,1106.7 1145.5,1137.8 1145.5,1124.9 		"/>
		<polygon class="st6" points="1199.4,1117.3 1199.4,1130.1 1145.5,1161.2 1145.5,1148.4 		"/>
		<polygon class="st6" points="792.4,1364.9 792.4,1352.1 1125.3,1160.1 1125.3,1172.9 		"/>
		<polygon class="st6" points="1199.4,1187.7 1199.4,1200.5 1145.5,1231.6 1145.5,1218.8 		"/>
		<polygon class="st6" points="1199.4,1211.1 1199.4,1223.9 1145.5,1255.1 1145.5,1242.2 		"/>
		<polygon class="st6" points="1199.4,1304.9 1199.4,1317.8 1145.5,1348.9 1145.5,1336 		"/>
		<polygon class="st6" points="1199.4,1328.4 1199.4,1341.2 1145.5,1372.3 1145.5,1359.5 		"/>
		<g>
			<polygon class="st6" points="915.3,1492.3 1125.3,1371.1 1125.3,1384 915.3,1505.1 			"/>
			<polygon class="st6" points="904.2,1498.7 904.2,1511.5 792.4,1576 792.4,1563.1 			"/>
		</g>
		<g>
			<polygon class="st6" points="1019.8,1408.6 1125.3,1347.7 1125.3,1360.5 1019.8,1421.4 			"/>
			<polygon class="st6" points="1008.7,1414.9 1008.7,1427.8 792.4,1552.5 792.4,1539.7 			"/>
		</g>
		<polygon class="st6" points="820.8,1452.9 820.8,1465.8 792.4,1482.2 792.4,1469.3 		"/>
		<polygon class="st6" points="975.7,1340.2 1125.3,1253.9 1125.3,1266.7 975.7,1353 		"/>
		<polygon class="st6" points="1037,1117.2 1125.3,1066.3 1125.3,1079.1 1037,1130 		"/>
		<g>
			<polygon class="st6" points="892.3,1200.6 1025.9,1123.6 1025.9,1136.4 892.3,1213.5 			"/>
		</g>
		<polygon class="st6" points="970.2,1179.2 1064.2,1124.9 1064.2,1137.7 970.2,1192 		"/>
		<g>
			<polygon class="st6" points="871.4,1236.1 959.1,1185.6 959.1,1198.4 871.4,1249 			"/>
			<polygon class="st6" points="860.4,1242.5 860.4,1255.3 792.4,1294.5 792.4,1281.7 			"/>
		</g>
		<polygon class="st6" points="1107.9,1123.2 1107.9,1136 1037,1176.9 1037,1164.1 		"/>
		<polygon class="st6" points="820.1,1289.2 1025.9,1170.5 1025.9,1183.3 820.1,1302 		"/>
		<polygon class="st6" points="937.9,1291.6 1072.4,1214 1072.4,1226.8 937.9,1304.4 		"/>
		<polygon class="st6" points="820.1,1359.5 926.9,1297.9 926.9,1310.8 820.1,1372.4 		"/>
		<g>
			<polygon class="st6" points="831.9,1423.1 964.6,1346.5 964.6,1359.4 831.9,1435.9 			"/>
		</g>
		<polygon class="st6" points="904.2,1404.8 904.2,1417.7 831.9,1459.4 831.9,1446.5 		"/>
		<polygon class="st6" points="1099.2,1292.3 1125.3,1277.3 1125.3,1290.2 1099.2,1305.2 		"/>
		<g>
			<polygon class="st6" points="1050.5,1320.5 1050.5,1333.3 915.3,1411.3 915.3,1398.5 			"/>
			<polygon class="st6" points="1061.5,1314.1 1088.2,1298.7 1088.2,1311.6 1061.5,1326.9 			"/>
		</g>
		<polygon class="st6" points="940.3,1407.5 1088.2,1322.2 1088.2,1335 940.3,1420.3 		"/>
	</g>
</g>
<g id="XMLID_57_">
	<g id="XMLID_132_">
		<path id="XMLID_134_" class="st7" d="M1576.1,375.1L1536,352c-8.1-4.5-18.6-4-30.1,2.6l-166.4,96.1
			c-25.7,14.8-46.5,54.6-46.5,88.8v221.8c0,18.8,6.3,32,16.2,37.6v0.1l40.2,23.2l22.5-44.4l134-77.4c25.7-14.8,46.5-54.6,46.5-88.8
			V421.7L1576.1,375.1z"/>
		<path id="XMLID_133_" class="st8" d="M1293.1,539.5v221.8c0,18.8,6.3,32,16.2,37.6v0.1l40.2,23.2l22.5-44.4l1.5-0.8l0.1-278.1
			l-53.6-31C1304.1,486.9,1293.1,514.6,1293.1,539.5z"/>
	</g>
	<g id="XMLID_58_">
		<path id="XMLID_131_" class="st2" d="M1379.8,473.8l166.4-96.1c25.7-14.8,46.5,0.9,46.5,35.2v221.8c0,34.2-20.8,74-46.5,88.8
			l-166.4,96.1c-25.7,14.8-46.5-0.9-46.5-35.2V562.7C1333.3,528.4,1354.1,488.7,1379.8,473.8z"/>
		<path id="XMLID_59_" class="st9" d="M1463,488.7c-47.3,27.3-85.7,97.2-85.7,156c0,33.5,12.5,56.2,32,64.5v40.6l29.2-38.3
			c7.8-1.6,16-4.8,24.6-9.7c47.4-27.3,85.7-97.2,85.7-156C1548.7,486.9,1510.3,461.4,1463,488.7z M1471.5,627.2l-21.8-18.6
			l-42.6,55.8l46.9-93.8l22.4,18.3l42.1-55.5L1471.5,627.2z"/>
	</g>
</g>
<g id="XMLID_145_">
	<g id="XMLID_209_">
		<path id="XMLID_211_" class="st10" d="M1496,883.7l-26.3-15.2c-5.3-3-12.2-2.6-19.7,1.7l-109.3,63.1
			c-16.9,9.7-30.5,35.9-30.5,58.4v145.7c0,12.4,4.1,21,10.7,24.7v0.1l26.4,15.2l14.8-29.2l88-50.8c16.9-9.7,30.5-35.9,30.5-58.4
			V914.3L1496,883.7z"/>
		<path id="XMLID_210_" class="st11" d="M1310.1,991.7v145.7c0,12.4,4.1,21,10.7,24.7v0.1l26.4,15.2l14.8-29.2l1-0.6l0.1-182.7
			l-35.2-20.3C1317.3,957.2,1310.1,975.4,1310.1,991.7z"/>
	</g>
	<g id="XMLID_188_">
		<path id="XMLID_208_" class="st12" d="M1367,948.6l109.3-63.1c16.9-9.7,30.5,0.6,30.5,23.1v145.7c0,22.5-13.7,48.6-30.5,58.4
			l-109.3,63.1c-16.9,9.7-30.5-0.6-30.5-23.1V1007C1336.5,984.5,1350.2,958.3,1367,948.6z"/>
		<path id="XMLID_207_" class="st13" d="M1419.1,1038.4c-0.1-0.6-0.1-1.1-0.2-1.7c0.2-3.7-0.2-7.3,1.2-11.5c0.4,0.3,0.9,0.5,1.3,0.8
			c2.9,1.5,0.5,7.2,1.1,10.4c-0.4,0.2-0.8,0.5-1.1,0.7C1420.7,1037.5,1419.9,1037.9,1419.1,1038.4z"/>
		<path id="XMLID_206_" class="st14" d="M1423.1,1026.9c-0.6,2.4-1.2,4.8-1.8,7.2c-0.8-1.7-5.3-1.2,0-6.4
			C1421.9,1027.4,1422.5,1027.1,1423.1,1026.9z"/>
		<path id="XMLID_205_" class="st15" d="M1419.3,1025.7c0.8-0.4,1.5-0.9,2.3-1.3c0.4,1.4,0.8,2.7,1.1,4.1c-1.3,1.8-0.1,2.1,0.1,3.1
			c-0.4,0.8-0.8,1.6-1.2,2.4c-1,1.2-1.2,2.5-1.2,3.8C1418,1035.2,1419.7,1029.7,1419.3,1025.7z"/>
		<path id="XMLID_204_" class="st2" d="M1405.6,1040.6v76.3c0,1.1,0.7,1.6,1.5,1.1l21.3-12.3c0.8-0.5,1.5-1.8,1.5-2.8v-77.6
			l15.4-8.9c0.8-0.4,1.4-1.6,1.5-2.7l1.5-24.2c0.1-1.2-0.6-1.8-1.5-1.3l-16.9,9.8v-16.6c0-3.9,2.4-8.4,5.3-10.1l11.9-6.9
			c0.8-0.5,1.5-1.8,1.5-2.8v-23.4c0-1.1-0.7-1.6-1.5-1.1l-20.1,11.6c-11.8,6.8-21.3,25-21.3,40.7v22.5l-10.6,6.1
			c-0.8,0.5-1.5,1.8-1.5,2.8v23.4c0,1.1,0.7,1.6,1.5,1.1l10.6-6.1v1.4L1405.6,1040.6L1405.6,1040.6z"/>
	</g>
</g>
<g id="XMLID_34_">
	<g id="XMLID_39_">
		<path id="XMLID_41_" class="st16" d="M633.3,1493.7l-16.7-9.6c-3.4-1.9-7.7-1.7-12.5,1.1l-69.3,40c-10.7,6.2-19.4,22.7-19.4,37
			v92.4c0,7.8,2.6,13.3,6.8,15.7l0,0l16.7,9.7l9.4-18.5l55.8-32.2c10.7-6.2,19.4-22.7,19.4-37v-79.1L633.3,1493.7z"/>
		<path id="XMLID_40_" class="st17" d="M515.4,1562.2v92.4c0,7.8,2.6,13.3,6.8,15.7l0,0l16.7,9.7l9.4-18.5l0.6-0.4v-115.9
			l-22.3-12.9C519.9,1540.3,515.4,1551.8,515.4,1562.2z"/>
	</g>
	<g id="XMLID_35_">
		<path id="XMLID_38_" class="st18" d="M551.5,1534.8l69.3-40c10.7-6.2,19.4,0.4,19.4,14.6v92.4c0,14.3-8.7,30.8-19.4,37l-69.3,40
			c-10.7,6.2-19.4-0.4-19.4-14.6v-92.4C532.1,1557.6,540.8,1541,551.5,1534.8z"/>
		<path id="XMLID_36_" class="st2" d="M586.1,1541c-19.7,11.4-35.7,40.5-35.7,65c0,14,5.2,23.4,13.3,26.9v16.9l12.2-16
			c3.2-0.7,6.7-2,10.2-4.1c19.7-11.4,35.7-40.5,35.7-65C621.8,1540.3,605.8,1529.6,586.1,1541z"/>
	</g>
</g>
<g id="XMLID_42_">
	<g id="XMLID_21_">
		<path id="XMLID_23_" class="st19" d="M687.7,1170.7l-22.9-13.2c-4.6-2.6-10.6-2.3-17.2,1.5l-95,54.9
			c-14.7,8.5-26.6,31.2-26.6,50.7v126.7c0,10.7,3.6,18.3,9.3,21.5l0,0l22.9,13.2l12.9-25.4l76.5-44.2c14.7-8.5,26.6-31.2,26.6-50.7
			v-108.5L687.7,1170.7z"/>
		
			<linearGradient id="XMLID_3_" gradientUnits="userSpaceOnUse" x1="549.1" y1="3162.6104" x2="549.1" y2="3393.3318" gradientTransform="matrix(1 0 0 -1 0 4620)">
			<stop  offset="1.104800e-003" style="stop-color:#FAE08A"/>
			<stop  offset="0.2094" style="stop-color:#FCBB46"/>
			<stop  offset="0.3765" style="stop-color:#F05475"/>
			<stop  offset="0.5238" style="stop-color:#D53992"/>
			<stop  offset="0.7394" style="stop-color:#7E50A0"/>
			<stop  offset="1" style="stop-color:#5C5DA9"/>
		</linearGradient>
		<path id="XMLID_22_" class="st20" d="M526.1,1264.6v126.7c0,10.7,3.6,18.3,9.3,21.5l0,0l22.9,13.2l12.9-25.4l0.8-0.5l0.1-158.8
			l-30.6-17.7C532.4,1234.5,526.1,1250.4,526.1,1264.6z"/>
	</g>
	<g id="XMLID_56_">
		
			<radialGradient id="XMLID_4_" cx="-2948.4443" cy="5022.3975" r="305.9006" gradientTransform="matrix(0.866 -0.5 0.5 -1.4434 568.7328 7235.3989)" gradientUnits="userSpaceOnUse">
			<stop  offset="1.104800e-003" style="stop-color:#FAE08A"/>
			<stop  offset="0.2094" style="stop-color:#FCBB46"/>
			<stop  offset="0.3765" style="stop-color:#F05475"/>
			<stop  offset="0.5238" style="stop-color:#D53992"/>
			<stop  offset="0.7394" style="stop-color:#7E50A0"/>
			<stop  offset="1" style="stop-color:#5C5DA9"/>
		</radialGradient>
		<path id="XMLID_49_" class="st21" d="M575.6,1227.1l95-54.9c14.7-8.5,26.6,0.5,26.6,20.1V1319c0,19.6-11.9,42.3-26.6,50.7
			l-95,54.9c-14.7,8.5-26.6-0.5-26.6-20.1v-126.7C549,1258.3,560.9,1235.5,575.6,1227.1z"/>
		<g id="XMLID_12_">
			<path id="XMLID_20_" class="st2" d="M652.5,1236.8c-3.5,2-6.3,7.4-6.3,12.1c0,4.6,2.8,6.8,6.3,4.8s6.3-7.4,6.3-12.1
				C658.8,1237,656,1234.8,652.5,1236.8z"/>
			<path id="XMLID_17_" class="st2" d="M624.4,1263.8c-14.6,8.4-26.5,31.2-26.5,50.7s11.9,28.5,26.5,20
				c14.6-8.4,26.5-31.2,26.5-50.7S639,1255.4,624.4,1263.8z M624.4,1321.9c-9.4,5.4-17-0.4-17-12.8c0-12.5,7.6-27.1,17-32.5
				s17,0.4,17,12.8C641.4,1301.9,633.8,1316.5,624.4,1321.9z"/>
			<g id="XMLID_13_">
				<path id="XMLID_14_" class="st2" d="M644.6,1357.8l-43,24.8c-17.8,10.3-32.3-0.7-32.3-24.5v-57.3c0-23.8,14.5-51.5,32.3-61.8
					l43-24.8c17.8-10.3,32.4,0.7,32.4,24.5v57.3C677,1319.8,662.4,1347.5,644.6,1357.8z M601.6,1252.5
					c-12.3,7.1-22.2,26.1-22.2,42.4v57.3c0,16.3,10,23.9,22.2,16.8l43-24.8c12.3-7.1,22.2-26.1,22.2-42.4v-57.3
					c0-16.3-10-23.9-22.2-16.8L601.6,1252.5z"/>
			</g>
		</g>
	</g>
</g>
<g id="XMLID_212_">
	<g id="XMLID_221_">
		<path id="XMLID_223_" class="st22" d="M600.3,857.9l-28.8-16.6c-5.8-3.2-13.4-2.9-21.6,1.9l-119.5,69C412,922.8,397,951.4,397,976
			v159.4c0,13.5,4.5,23,11.7,27v0.1l28.8,16.7l16.2-31.9l96.3-55.6c18.4-10.7,33.4-39.2,33.4-63.8V891.4L600.3,857.9z"/>
		<path id="XMLID_222_" class="st23" d="M397,976v159.4c0,13.5,4.5,23,11.7,27v0.1l28.8,16.7l16.2-31.9l1.1-0.6l0.1-199.8
			l-38.5-22.2C404.9,938.3,397,958.2,397,976z"/>
	</g>
	<g id="XMLID_213_">
		<path id="XMLID_220_" class="st9" d="M459.3,928.9l119.5-69c18.4-10.7,33.4,0.7,33.4,25.3v159.4c0,24.6-15,53.2-33.4,63.8
			l-119.5,69c-18.4,10.7-33.4-0.7-33.4-25.3V992.7C425.9,968.1,440.8,939.5,459.3,928.9z"/>
		<g id="XMLID_214_">
			<path id="XMLID_219_" class="st2" d="M582.3,929.3c-4,4.7-9,8.7-13.3,12.2c2-1.6,4.8-8.3,6-11c1.8-4.1,3.2-8.5,4.1-12.7
				c0.1-0.4,0.1-0.8-0.1-0.9c-0.3,0-0.5,0.2-0.7,0.5c-4.8,6.2-9.8,11.6-15.1,16.4c-0.4,0.4-0.8,0.4-1.1,0.2c-0.4-0.4-0.9-0.8-1.3-1
				c-2.2-1.2-4.6-1.8-7.3-1.8c-3.5,0.1-7.4,1.5-11.2,4.1c-3.7,2.5-7.4,6-10.6,10.2c-3.3,4.2-6.2,9.1-8.6,14.3
				c-2.4,5.4-4.2,11.1-5.1,16.7c-0.9,5.3-0.8,10.1-0.3,14.6c0.1,0.8,0,0.9-0.5,1.1c-20.7,7.9-37.9,7.9-51.9-5.3
				c-0.6-0.6-0.9-0.4-1.4,0.9c-6.1,15.7-3.1,33.6,4.5,38.9c1,0.7,2.1,1.4,3.2,1.9c-0.4,0.3-5.5,2.5-10,2c-0.6-0.2-0.9,0.3-1,1.3
				c-0.1,1.4,0,2.5,0.2,3.9c1.2,11.7,7.6,19.4,16.4,18.8c1,0,2.2-0.2,3.3-0.6c-2,1.7-4.1,3.4-9.8,6.1c-0.7,0.2-1,0.9-0.7,1.6
				c4.3,13.2,13.7,12.5,20.6,11.1c0.9-0.3,1.9-0.9,2.8-1.1c-0.1,0.1-0.1,0.2-0.2,0.3c-2.3,6-10.4,14.2-14.1,18.1
				c-6.8,7.1-14.2,12.8-21.4,16c-1.2,0.4-1.4,0.6-1.7,1c-0.3,0.4,0,0.7,0.3,0.8c1.5,0.4,2.9,0.7,4.5,1c4.6,0.6,9.3,0.4,14.3-0.6
				c25.7-5.4,54.7-29.1,74-65.8c15.2-28.8,20.5-59.6,20.5-87.4c0-1.1,1-2.2,1.5-3.1c3.9-6.2,8.3-12.8,11.2-19.8
				c0.7-1.6,1.8-2.6,1.8-3c0-0.1,0-0.1,0-0.1C584,928.6,582.8,928.7,582.3,929.3z"/>
			<path id="XMLID_218_" class="st2" d="M493.5,1102.5C504.1,1096.4,494,1102.2,493.5,1102.5
				C494.9,1101.7,493.4,1102.6,493.5,1102.5z"/>
			<path id="XMLID_217_" class="st2" d="M493.5,1102.5C493.3,1102.6,491.4,1103.7,493.5,1102.5
				C493.5,1102.5,493.2,1102.7,493.5,1102.5z"/>
			<path id="XMLID_216_" class="st2" d="M497.7,1100.2C497.7,1099.9,500,1098.9,497.7,1100.2C497.7,1100.1,498,1100.1,497.7,1100.2z
				"/>
			<path id="XMLID_215_" class="st2" d="M542.3,936.9c-0.1,0.2-0.3,0.3-0.5,0.3C541.9,937.1,542.1,937,542.3,936.9z"/>
		</g>
	</g>
</g>
<g id="XMLID_44_">
	<g id="XMLID_26_">
		<path id="XMLID_33_" class="st16" d="M1649.9,1116.7l-20.8-12c-4.2-2.3-9.7-2.1-15.6,1.4L1527,1156c-13.3,7.7-24.2,28.4-24.2,46.2
			v115.3c0,9.8,3.3,16.6,8.4,19.6l0,0l20.9,12l11.7-23.1l69.6-40.2c13.3-7.7,24.2-28.4,24.2-46.2v-98.7L1649.9,1116.7z"/>
		<path id="XMLID_32_" class="st17" d="M1502.8,1202.1v115.3c0,9.8,3.3,16.6,8.4,19.6l0,0l20.9,12l11.7-23.1l0.8-0.4l0.1-144.5
			l-27.9-16.1C1508.5,1174.8,1502.8,1189.2,1502.8,1202.1z"/>
	</g>
	<g id="XMLID_24_">
		<path id="XMLID_25_" class="st18" d="M1547.8,1168l86.4-49.9c13.3-7.7,24.2,0.5,24.2,18.3v115.3c0,17.8-10.8,38.5-24.2,46.2
			l-86.4,49.9c-13.3,7.7-24.2-0.5-24.2-18.3v-115.3C1523.7,1196.4,1534.5,1175.7,1547.8,1168z"/>
		<g id="XMLID_27_">
			<path id="XMLID_29_" class="st2" d="M1590.5,1170c-26,15-47.2,55.4-47.2,90.1c0,12.2,2.6,22.4,7.5,29.7l-7.2,25.2
				c-0.7,2.3-0.4,4.5,0.6,5.5c0.8,0.8,1.9,0.8,3.1,0.1c0.4-0.2,0.7-0.5,1.1-0.8l19.7-18.6c6.8,0.9,14.5-0.9,22.2-5.4
				c26-15,47.2-55.4,47.2-90.1C1637.7,1171,1616.5,1155,1590.5,1170z M1590.5,1284.8c-6.9,4-13.7,5.4-19.6,4.2
				c-0.6-0.1-1.4,0-2.1,0.4c-0.4,0.2-0.7,0.5-1.1,0.8l-12.9,12.2l4.5-15.8c0.6-2.1,0.5-4.1-0.4-5.2c-4.8-6.1-7.3-15.1-7.3-26.1
				c0-28.6,17.5-62,38.9-74.4c21.5-12.4,38.9,0.8,38.9,29.4C1629.4,1239,1612,1272.4,1590.5,1284.8z"/>
			<path id="XMLID_28_" class="st2" d="M1608.6,1231.8c-2-0.4-4.5-0.7-6.9,1.9c-1.8,2-2.9,6.4-4.1,9c-0.6,1.3-1.3,1.9-2.2,1.9
				c-6.7,0.3-11.8-2.7-15.5-8.8c-0.6-0.9-0.5-2,0.2-3.6c1.1-2.4,2.5-5.2,2.8-7.7s-0.5-4.8-1.3-6.5c-0.9-2.1-2-5.4-4-5.7
				c-1.9-0.3-4.3,1.9-6,4.6c-2.9,4.7-4.2,10.4-4.2,15.2c0,1.4,0.1,2.7,0.4,3.8c0.6,2.8,1.7,5.2,2.9,7.3c0.9,1.6,1.9,3.1,3,4.4
				c3.6,4.4,8,7.5,13.2,8.7c2.6,0.6,5.4,0.9,8.2,0.5c3.2-0.4,6.1-0.6,9.6-3.5c3.6-3,7.2-8.1,8.7-13.6c0.4-1.6,0.6-3.3,0.4-4.6
				C1613.5,1232.3,1610.5,1232.2,1608.6,1231.8z"/>
		</g>
	</g>
</g>
<g>
	<path class="st24" d="M630.1,1977.5l-15-8.7c-10.8,4.2-22.8,7.1-35.2,8.5l0.1,12.3h-36.5l-0.1-12.3c-12.4-1.4-24.4-4.2-35.3-8.5
		l-14.9,8.7l-25.9-15l14.9-8.7c-7.4-6.3-12.3-13.2-14.7-20.4h-21.2l-0.1-21.2h21.2c2.4-7.2,7.2-14.1,14.5-20.4l-15-8.7l25.8-15
		l15,8.7c10.8-4.2,22.8-7.1,35.2-8.5l-0.1-12.3h36.5l0.1,12.3c12.4,1.4,24.4,4.2,35.3,8.5l14.9-8.7l25.9,15l-14.9,8.7
		c7.3,6.3,12.3,13.2,14.7,20.4h21.2l0.1,21.2h-21.2c-2.4,7.2-7.2,14.1-14.5,20.4l15,8.7L630.1,1977.5z M527.6,1942.5
		c18.8,10.8,49.1,10.8,67.8,0s18.6-28.4-0.2-39.2c-18.8-10.8-49.1-10.8-67.8,0C508.7,1914.1,508.8,1931.7,527.6,1942.5"/>
</g>
<g>
	<g>
		<path class="st25" d="M754.8,1887.9l-8.7-5c-6.3,2.5-13.2,4.1-20.4,4.9v7.1h-21.2v-7.1c-7.2-0.8-14.2-2.4-20.5-4.9l-8.7,5l-15-8.7
			l8.7-5c-4.3-3.6-7.1-7.7-8.5-11.8h-12.3l-0.1-12.3h12.3c1.4-4.2,4.2-8.2,8.4-11.8l-8.7-5l15-8.7l8.7,5c6.3-2.5,13.2-4.1,20.4-4.9
			v-7.1h21.2v7.1c7.2,0.8,14.2,2.4,20.5,4.9l8.7-5l15.1,8.7l-8.7,5c4.3,3.6,7.1,7.7,8.5,11.8h12.3l0.1,12.3h-12.3
			c-1.4,4.2-4.2,8.2-8.4,11.8l8.7,5L754.8,1887.9z M695.3,1867.6c10.9,6.3,28.5,6.3,39.3,0s10.8-16.5-0.1-22.8
			c-10.9-6.3-28.5-6.3-39.3,0C684.3,1851.1,684.4,1861.3,695.3,1867.6"/>
	</g>
</g>
<g>
	<polygon class="st26" points="1660.6,1033.2 1594.6,995 1660.6,956.9 1726.6,995 	"/>
	<polygon class="st26" points="1752.9,985.5 1686.9,947.4 1752.9,909.3 1818.9,947.4 	"/>
	<polygon class="st26" points="1834.6,932.5 1768.6,894.4 1834.6,856.3 1900.6,894.4 	"/>
	<polygon class="st26" points="1930.7,887.1 1864.7,849 1930.7,810.9 1996.7,849 	"/>
	<polygon class="st26" points="2026,842.5 1960,804.4 2026,766.3 2092,804.4 	"/>
	<g>
		<g>
			<polygon class="st27" points="2000.1,827.2 1942.1,793.7 1942.1,570.4 2000.1,603.9 			"/>
			<polygon class="st28" points="2058.2,793.7 2000.1,827.2 2000.1,603.9 2058.2,570.4 			"/>
			<polygon class="st29" points="2000.1,603.9 1942.1,570.4 2000.1,536.9 2058.2,570.4 			"/>
		</g>
		<g>
			<polygon class="st27" points="1913.1,877.4 1855,843.9 1855,690.1 1913.1,723.6 			"/>
			<polygon class="st28" points="1971.1,843.9 1913.1,877.4 1913.1,723.6 1971.1,690.1 			"/>
			<polygon class="st29" points="1913.1,723.6 1855,690.1 1913.1,656.6 1971.1,690.1 			"/>
		</g>
		<g>
			<polygon class="st27" points="1826,927.7 1768,894.2 1768,827.2 1826,860.7 			"/>
			<polygon class="st28" points="1884.1,894.2 1826,927.7 1826,860.7 1884.1,827.2 			"/>
			<polygon class="st29" points="1826,860.7 1768,827.2 1826,793.7 1884.1,827.2 			"/>
		</g>
		<g>
			<polygon class="st27" points="1739,978 1680.9,944.4 1680.9,819.6 1739,853.1 			"/>
			<polygon class="st28" points="1797,944.4 1739,978 1739,853.1 1797,819.6 			"/>
			<polygon class="st29" points="1739,853.1 1680.9,819.6 1739,786.1 1797,819.6 			"/>
		</g>
		<g>
			<polygon class="st27" points="1651.9,1028.2 1593.9,994.7 1593.9,927.7 1651.9,961.2 			"/>
			<polygon class="st28" points="1709.9,994.7 1651.9,1028.2 1651.9,961.2 1709.9,927.7 			"/>
			<polygon class="st29" points="1651.9,961.2 1593.9,927.7 1651.9,894.2 1709.9,927.7 			"/>
		</g>
	</g>
	<g>
		<g>
			
				<rect x="1706.9" y="637.7" transform="matrix(0.5 -0.866 0.866 0.5 352.9307 1936.2295)" class="st30" width="292.8" height="49.5"/>
			<polygon class="st30" points="1866,537.8 1969.2,461.8 1954.9,589.2 			"/>
		</g>
		<polygon class="st31" points="1758.7,777.2 1801.6,802 1801.6,633.1 1758.7,608.3 		"/>
		
			<rect x="1560.5" y="722.8" transform="matrix(0.5 -0.866 0.866 0.5 206.0245 1851.9302)" class="st30" width="292.8" height="49.5"/>
	</g>
</g>
<g>
	<g>
		<g>
			<g class="st32">
				<g>
					<path class="st33" d="M911.3,1809.6c-28.4,14-42.1,31.7-30.4,39.6l270.7,182.5c11.6,7.8,44.2,2.8,72.6-11.1l416.8-204.9
						c28.4-14,42.1-31.7,30.5-39.6l-270.7-182.4c-11.7-7.9-44.2-2.9-72.7,11.1L911.3,1809.6z"/>
				</g>
			</g>
		</g>
		<g>
			<g class="st32">
				<g>
					<path class="st2" d="M923.9,1809.6c-28.4,14-42.1,31.7-30.4,39.6l270.7,182.5c11.6,7.8,44.2,2.8,72.6-11.1l416.8-204.9
						c28.4-14,42.1-31.7,30.5-39.6l-270.7-182.4c-11.7-7.9-44.2-2.9-72.7,11.1L923.9,1809.6z"/>
				</g>
			</g>
		</g>
		<g>
			<g class="st32">
				<g>
					<path class="st34" d="M930.9,1808.6c-27.4,15.8-39.9,34.5-27.7,41.5l282.2,164c12.1,7,44.3-0.1,71.7-16l402.3-232.2
						c27.4-15.9,39.9-34.5,27.8-41.5l-282.2-164c-12.2-7.1-44.3,0.1-71.8,15.9L930.9,1808.6z"/>
				</g>
			</g>
		</g>
		<g>
			<g class="st32">
				<g>
					<path class="st33" d="M937.2,1795.9c-27.4,15.8-39.9,34.5-27.7,41.5l282.2,164c12.1,7,44.3-0.1,71.7-16l402.3-232.2
						c27.4-15.9,39.9-34.5,27.8-41.5l-282.2-164c-12.2-7.1-44.3,0.1-71.8,15.9L937.2,1795.9z"/>
				</g>
			</g>
		</g>
		<g>
			<g class="st32">
				<g>
					<path class="st2" d="M937.2,1783.2c-27.4,15.8-39.9,34.5-27.7,41.5l282.2,164c12.1,7,44.3-0.1,71.7-16l402.3-232.2
						c27.4-15.9,39.9-34.5,27.8-41.5l-282.2-164c-12.2-7.1-44.3,0.1-71.8,15.9L937.2,1783.2z"/>
				</g>
			</g>
		</g>
		<g>
			<g>
				<path class="st33" d="M1370.6,1568.9c-1.9,1.1,29.8,21.4,70.8,45.2l80.5,46.8c41,23.8,75.8,42.3,77.8,41.1l19.5-11.2
					c1.9-1.1-29.7-21.3-70.8-45.2l-80.5-46.8c-41-23.8-75.9-42.3-77.8-41.2L1370.6,1568.9z"/>
			</g>
			<g>
				<path class="st33" d="M1436.8,1659.6c-1,0.6,21.1,14.3,49.3,30.7l55.4,32.2c28.2,16.4,51.9,29.2,52.8,28.7l9.7-5.6
					c0.9-0.5-21.1-14.3-49.3-30.7l-55.4-32.2c-28.2-16.4-51.9-29.2-52.8-28.7L1436.8,1659.6z"/>
			</g>
			<g>
				<path class="st33" d="M1419.2,1715.3c-1,0.6,16.4,11.5,38.6,24.5l43.8,25.4c22.3,13,41.2,23,42.1,22.5l9.7-5.6
					c1-0.6-16.3-11.5-38.6-24.5l-43.8-25.4c-22.3-12.9-41.2-23-42.1-22.5L1419.2,1715.3z"/>
			</g>
			<g>
				<path class="st33" d="M1271.8,1800.4c-1,0.6,16.3,11.5,38.7,24.5l43.8,25.4c22.3,12.9,41.1,23,42.1,22.4l9.7-5.6
					c1-0.6-16.3-11.5-38.6-24.5l-43.8-25.4c-22.3-13-41.2-23-42.1-22.5L1271.8,1800.4z"/>
			</g>
			<g>
				<path class="st33" d="M1371.5,1654c-1,0.6,26.9,17.7,62.2,38.2l69.3,40.3c35.3,20.5,64.7,36.7,65.7,36.2l9.7-5.6
					c1-0.6-26.9-17.6-62.2-38.2l-69.3-40.3c-35.3-20.5-64.7-36.7-65.7-36.2L1371.5,1654z"/>
			</g>
			<g>
				<path class="st33" d="M1346.7,1774.4c-1,0.6,14.4,10.4,34.2,21.9l38.9,22.6c19.8,11.5,36.7,20.4,37.7,19.9l9.7-5.6
					c1-0.6-14.4-10.4-34.2-21.9l-38.9-22.6c-19.9-11.5-36.7-20.5-37.7-19.9L1346.7,1774.4z"/>
			</g>
			<g>
				<path class="st33" d="M1286.4,1705c-1,0.6,26.9,17.7,62.3,38.2l69.3,40.3c35.3,20.5,64.7,36.7,65.7,36.2l9.7-5.6
					c1-0.6-26.8-17.7-62.2-38.2l-69.3-40.3c-35.3-20.5-64.8-36.7-65.8-36.2L1286.4,1705z"/>
			</g>
			<g>
				<path class="st33" d="M1229.8,1739c-1,0.6,26.9,17.7,62.2,38.2l69.3,40.3c35.3,20.5,64.8,36.7,65.7,36.1l9.7-5.6
					c0.9-0.5-26.9-17.6-62.2-38.2l-69.3-40.3c-35.3-20.5-64.8-36.7-65.7-36.2L1229.8,1739z"/>
			</g>
		</g>
	</g>
</g>
<g>
	<g class="st35">
		
			<linearGradient id="SVGID_4_" gradientUnits="userSpaceOnUse" x1="6423.6167" y1="2903.2375" x2="6797.106" y2="2903.2375" gradientTransform="matrix(-1 0 0 -1 7889.4424 4620)">
			<stop  offset="0" style="stop-color:#6ACDE9"/>
			<stop  offset="0.3268" style="stop-color:#58A6DB"/>
			<stop  offset="0.405" style="stop-color:#91BFE6"/>
			<stop  offset="1" style="stop-color:#4BB2E5"/>
		</linearGradient>
		<path class="st36" d="M1147.5,1640.3c-73.2,42.3-73.6,110.8-0.9,153s191,42.2,264.1,0c73.2-42.3,73.5-110.7,0.9-153
			S1220.7,1598,1147.5,1640.3z"/>
	</g>
	
		<linearGradient id="SVGID_5_" gradientUnits="userSpaceOnUse" x1="6556.1426" y1="2903.0317" x2="6797.0308" y2="2903.0317" gradientTransform="matrix(-1 0 0 -1 7889.4424 4620)">
		<stop  offset="0" style="stop-color:#6ACDE9"/>
		<stop  offset="0.3268" style="stop-color:#58A6DB"/>
		<stop  offset="0.405" style="stop-color:#91BFE6"/>
		<stop  offset="1" style="stop-color:#4BB2E5"/>
	</linearGradient>
	<path class="st37" d="M1147.5,1640.3c33.2-19.2,75.6-29.5,118.9-31.3c-28.3,5-55,13.9-77.4,26.9c-73.2,42.3-73.6,110.8-0.9,153
		c39.7,23.1,93.1,33.5,145.2,31.3c-64,11.3-136.3,2.4-186.7-26.9C1074,1751,1074.4,1682.5,1147.5,1640.3z"/>
	<g>
		<g class="st32">
			
				<linearGradient id="SVGID_6_" gradientUnits="userSpaceOnUse" x1="6426.2427" y1="2956.0999" x2="6794.7422" y2="2956.0999" gradientTransform="matrix(-1 0 0 -1 7889.4424 4620)">
				<stop  offset="0.1592" style="stop-color:#64CCE9"/>
				<stop  offset="1" style="stop-color:#545FAB"/>
			</linearGradient>
			<path class="st38" d="M1149.3,1628.7c4.3-2.5,8.8-4.8,13.5-7c1.5-0.7,3.2-1.4,4.7-2.1c2.7-1.2,5.4-2.5,8.3-3.6
				c0.5-0.2,1-0.4,1.5-0.6c1.1-0.4,2.2-0.8,3.2-1.2c3.7-1.4,7.4-2.6,11.2-3.8c1.3-0.4,2.6-0.8,3.8-1.2c0.9-0.3,1.7-0.5,2.5-0.8
				c3.7-1.1,7.5-2,11.3-2.9c0.8-0.2,1.6-0.4,2.4-0.5c1.8-0.4,3.6-0.9,5.5-1.2c1.5-0.3,3.1-0.5,4.6-0.8c3.2-0.6,6.5-1.2,9.8-1.7
				c1.3-0.2,2.6-0.5,3.9-0.7c1.4-0.2,2.9-0.3,4.4-0.5c3.1-0.4,6.1-0.7,9.2-1c1.5-0.1,2.9-0.4,4.4-0.5c1.4-0.1,2.8-0.1,4.1-0.2
				c3.1-0.2,6.2-0.4,9.4-0.5c1.6-0.1,3.1-0.2,4.7-0.2c1.2,0,2.5,0,3.7,0c3.4,0,6.8,0,10.1,0c1.7,0,3.4,0,5,0
				c1.7,0.1,3.4,0.2,5.1,0.3c0.9,0,1.9,0.1,2.8,0.1c4.2,0.2,8.4,0.6,12.6,1c0.8,0.1,1.6,0.2,2.3,0.3c1.2,0.1,2.5,0.3,3.7,0.4
				c4.3,0.5,8.5,1.1,12.7,1.8c1.1,0.2,2.1,0.3,3.2,0.5c0.5,0.1,1,0.2,1.6,0.2c2,0.4,3.9,0.9,5.9,1.3c3.4,0.7,6.8,1.4,10.2,2.2
				c2.5,0.6,4.8,1.3,7.3,1.9c3.2,0.9,6.4,1.7,9.5,2.7c0.7,0.2,1.4,0.4,2.1,0.6c3.8,1.2,7.5,2.5,11.1,3.9c0.5,0.2,1,0.4,1.5,0.6
				c4.1,1.6,8,3.3,11.9,5.1c1.1,0.5,2.3,1,3.4,1.6c4.3,2.1,8.4,4.2,12.4,6.5c0.8,0.4,1.5,0.9,2.2,1.3s1.3,0.9,2,1.3
				c1.1,0.7,2.2,1.4,3.3,2.1c1,0.7,2,1.3,2.9,2c1,0.7,2.1,1.4,3.1,2.2c0.9,0.7,1.8,1.4,2.7,2c1,0.7,1.9,1.5,2.9,2.3
				c0.9,0.7,1.7,1.4,2.5,2.1c0.9,0.8,1.8,1.5,2.6,2.3c0.3,0.3,0.7,0.6,1.1,0.9c0.3,0.3,0.6,0.6,0.9,0.9c1.4,1.4,2.8,2.7,4.1,4.1
				c0.5,0.5,0.9,1,1.4,1.4c1.7,1.8,3.3,3.7,4.8,5.6c0.1,0.1,0.1,0.1,0.2,0.2c0.3,0.4,0.6,0.8,0.9,1.3c0.9,1.2,1.8,2.4,2.7,3.6
				c0.4,0.6,0.8,1.3,1.3,2c0.7,1.1,1.4,2.2,2,3.3c0.2,0.3,0.4,0.6,0.5,0.9c0.3,0.5,0.5,0.9,0.7,1.4c0.5,0.9,1,1.8,1.4,2.8
				c0.4,0.8,0.7,1.5,1.1,2.3c0.4,0.9,0.8,1.9,1.2,2.8c0.2,0.4,0.4,0.8,0.5,1.2c0.1,0.4,0.2,0.8,0.4,1.2c0.3,0.9,0.6,1.8,0.9,2.7
				c0.2,0.8,0.5,1.6,0.7,2.4c0.2,0.9,0.5,1.8,0.7,2.7c0.1,0.5,0.3,1,0.4,1.4c0.1,0.3,0.1,0.7,0.2,1c0.2,0.9,0.3,1.8,0.4,2.8
				c0.1,0.8,0.2,1.6,0.3,2.4c0.1,0.9,0.1,1.9,0.2,2.8c0,0.5,0.1,1.1,0.1,1.6s0,1.1,0,1.6l0.1,25.4c0-1.1-0.1-2.2-0.1-3.2
				c-0.1-0.9-0.1-1.9-0.2-2.8c-0.1-0.8-0.2-1.6-0.3-2.4c-0.1-0.9-0.3-1.8-0.4-2.8c-0.1-0.8-0.3-1.6-0.5-2.4
				c-0.2-0.9-0.4-1.8-0.7-2.7c-0.2-0.8-0.5-1.6-0.7-2.4c-0.3-0.9-0.6-1.8-0.9-2.7c-0.3-0.8-0.6-1.6-0.9-2.4
				c-0.4-0.9-0.8-1.9-1.2-2.8c-0.3-0.8-0.7-1.5-1.1-2.3c-0.5-0.9-0.9-1.9-1.4-2.8c-0.4-0.7-0.8-1.5-1.2-2.2c-0.6-1.1-1.3-2.2-2-3.3
				c-0.4-0.7-0.8-1.3-1.3-2c-0.8-1.2-1.7-2.4-2.7-3.6c-0.4-0.5-0.7-1-1.1-1.5c-1.5-1.9-3.1-3.7-4.8-5.6c-0.4-0.5-0.9-1-1.4-1.4
				c-1.3-1.4-2.7-2.8-4.1-4.1c-0.7-0.6-1.3-1.2-2-1.9c-0.9-0.8-1.8-1.5-2.7-2.3c-0.8-0.7-1.7-1.4-2.5-2.1c-0.9-0.8-1.9-1.5-2.9-2.2
				c-0.9-0.7-1.8-1.4-2.7-2.1c-1-0.7-2-1.5-3.1-2.2c-1-0.7-1.9-1.3-2.9-2c-1.1-0.7-2.2-1.4-3.3-2.1c-1.4-0.9-2.8-1.8-4.3-2.6
				c-4-2.3-8.2-4.5-12.4-6.5c-1.1-0.5-2.2-1.1-3.4-1.6c-3.9-1.8-7.8-3.5-11.9-5.1c-0.5-0.2-1-0.4-1.5-0.6c-4.3-1.6-8.7-3.1-13.2-4.5
				c-3.1-1-6.3-1.8-9.4-2.7c-2.4-0.7-4.8-1.4-7.3-2c-3.3-0.8-6.7-1.5-10.1-2.2c-2.5-0.5-5-1.1-7.5-1.5c-1.1-0.2-2.1-0.3-3.2-0.5
				c-4.2-0.7-8.5-1.3-12.7-1.8c-1.2-0.1-2.5-0.3-3.7-0.4c-5-0.5-10-1-15-1.2c-0.9-0.1-1.9-0.1-2.8-0.1c-3.3-0.2-6.7-0.2-10.1-0.3
				c-3.4-0.1-6.8-0.1-10.2,0c-2.8,0-5.6,0.1-8.4,0.2c-3.1,0.1-6.3,0.3-9.4,0.5c-2.8,0.2-5.7,0.4-8.5,0.7c-3.1,0.3-6.2,0.6-9.2,1
				c-2.8,0.4-5.5,0.7-8.2,1.2c-3.3,0.5-6.5,1.1-9.8,1.7c-3.4,0.6-6.7,1.3-10.1,2c-0.8,0.2-1.6,0.4-2.4,0.6
				c-4.7,1.1-9.3,2.4-13.9,3.7c-1.3,0.4-2.6,0.8-3.9,1.2c-3.8,1.2-7.5,2.5-11.2,3.8c-1.1,0.4-2.2,0.8-3.2,1.2
				c-3.3,1.3-6.5,2.7-9.8,4.1c-1.6,0.7-3.2,1.3-4.8,2.1c-4.6,2.2-9.1,4.5-13.5,7c-22.7,13.1-38.2,28.7-46.7,45.4
				c-1.7,3.3-3.1,6.7-4.2,10.1c-0.6,1.7-1.1,3.4-1.5,5.1c-1.3,5.1-1.9,10.3-1.9,15.4l-0.1-25.4
				C1095,1677.1,1113.1,1649.6,1149.3,1628.7z"/>
			
				<linearGradient id="SVGID_7_" gradientUnits="userSpaceOnUse" x1="6420.9419" y1="2848.5996" x2="6799.9424" y2="2848.5996" gradientTransform="matrix(-1 0 0 -1 7889.4424 4620)">
				<stop  offset="0.1592" style="stop-color:#64CCE9"/>
				<stop  offset="1" style="stop-color:#545FAB"/>
			</linearGradient>
			<path class="st39" d="M1089.9,1704.7c0,1.1,0.1,2.2,0.1,3.3c0.1,1,0.1,1.9,0.2,2.9c0.1,0.8,0.2,1.7,0.3,2.5
				c0.1,1,0.3,1.9,0.4,2.9c0.2,0.8,0.3,1.7,0.5,2.5c0.2,0.9,0.4,1.9,0.7,2.8c0.2,0.8,0.5,1.7,0.7,2.5c0.3,0.9,0.6,1.8,0.9,2.8
				c0.3,0.8,0.6,1.6,0.9,2.4c0.4,1,0.8,1.9,1.2,2.9c0.4,0.8,0.7,1.6,1.1,2.4c0.5,1,1,1.9,1.5,2.8c0.4,0.8,0.8,1.5,1.3,2.3
				c0.7,1.1,1.4,2.3,2.1,3.4c0.4,0.7,0.8,1.3,1.3,2c0.9,1.3,1.8,2.5,2.7,3.7c0.4,0.5,0.7,1,1.1,1.5c1.5,1.9,3.2,3.8,4.9,5.7
				c0.5,0.5,0.9,1,1.4,1.5c1.4,1.4,2.8,2.8,4.3,4.3c0.7,0.6,1.4,1.3,2.1,1.9c0.9,0.8,1.8,1.6,2.7,2.4c0.9,0.7,1.7,1.5,2.6,2.2
				c1,0.8,1.9,1.5,2.9,2.3c0.9,0.7,1.9,1.4,2.8,2.1c1,0.8,2.1,1.5,3.2,2.2c1,0.7,2,1.4,3,2c1.1,0.7,2.3,1.5,3.4,2.2
				c1.4,0.9,2.9,1.8,4.4,2.7c4.1,2.4,8.4,4.6,12.8,6.7c1.1,0.6,2.3,1.1,3.5,1.6c4,1.8,8,3.6,12.2,5.2c0.5,0.2,1,0.4,1.5,0.6
				c4.4,1.7,9,3.2,13.6,4.6c3.2,1,6.5,1.9,9.7,2.8c2.5,0.7,4.9,1.4,7.5,2c3.4,0.8,6.9,1.5,10.4,2.2c2.6,0.5,5.1,1.1,7.7,1.6
				c1.1,0.2,2.2,0.3,3.3,0.5c4.3,0.7,8.7,1.3,13.1,1.8c1.3,0.2,2.5,0.3,3.8,0.5c5.1,0.5,10.2,1,15.4,1.3c1,0.1,1.9,0.1,2.9,0.1
				c3.4,0.2,6.9,0.2,10.4,0.3c3.5,0.1,7,0.1,10.4,0c2.9,0,5.8-0.1,8.6-0.2c3.2-0.1,6.4-0.3,9.7-0.5c2.9-0.2,5.8-0.4,8.7-0.7
				c3.2-0.3,6.3-0.7,9.5-1.1c2.8-0.4,5.7-0.8,8.5-1.2c3.4-0.5,6.7-1.1,10-1.7c3.5-0.7,6.9-1.3,10.4-2.1c0.8-0.2,1.7-0.4,2.5-0.6
				c4.8-1.1,9.6-2.4,14.3-3.8c1.3-0.4,2.6-0.8,4-1.2c3.9-1.2,7.7-2.5,11.5-3.9c1.1-0.4,2.2-0.8,3.3-1.2c3.4-1.3,6.7-2.8,10-4.3
				c1.6-0.7,3.3-1.4,4.9-2.1c4.8-2.3,9.4-4.7,13.9-7.2c37.3-21.5,55.9-49.8,55.8-78.1l0.1,25.4c0.1,28.3-18.5,56.6-55.8,78.1
				c-4.5,2.6-9.1,5-13.9,7.2c-1.6,0.8-3.3,1.4-4.9,2.1c-2.8,1.2-5.6,2.5-8.5,3.7c-0.5,0.2-1.1,0.4-1.6,0.6c-1.1,0.4-2.2,0.8-3.3,1.2
				c-3.8,1.4-7.6,2.7-11.5,3.9c-1.3,0.4-2.6,0.8-4,1.2c-0.9,0.3-1.7,0.6-2.6,0.8c-3.8,1.1-7.7,2.1-11.7,3c-0.8,0.2-1.7,0.4-2.5,0.6
				c-1.9,0.4-3.7,0.9-5.6,1.3c-1.6,0.3-3.2,0.5-4.8,0.8c-3.3,0.6-6.7,1.2-10.1,1.7c-1.3,0.2-2.6,0.5-4,0.7c-1.5,0.2-3,0.3-4.5,0.5
				c-3.2,0.4-6.3,0.8-9.5,1.1c-1.5,0.1-3,0.4-4.5,0.5c-1.4,0.1-2.8,0.1-4.3,0.2c-3.2,0.2-6.4,0.4-9.6,0.5c-1.6,0.1-3.2,0.2-4.8,0.3
				c-1.3,0-2.6,0-3.9,0c-3.5,0-6.9,0-10.4,0c-1.7,0-3.4,0-5.2,0c-1.7-0.1-3.5-0.2-5.2-0.3c-1,0-1.9-0.1-2.9-0.1
				c-4.3-0.3-8.7-0.6-13-1c-0.8-0.1-1.6-0.2-2.4-0.3c-1.3-0.1-2.5-0.3-3.8-0.5c-4.4-0.5-8.8-1.1-13.1-1.8c-1.1-0.2-2.2-0.3-3.3-0.5
				c-0.5-0.1-1.1-0.2-1.6-0.3c-2.1-0.4-4.1-0.9-6.1-1.3c-3.5-0.7-7-1.4-10.4-2.2c-2.5-0.6-5-1.3-7.5-2c-3.3-0.9-6.5-1.8-9.7-2.8
				c-0.7-0.2-1.4-0.4-2.1-0.6c-3.9-1.3-7.7-2.6-11.4-4c-0.5-0.2-1-0.4-1.5-0.6c-4.2-1.6-8.2-3.4-12.2-5.2c-1.2-0.5-2.3-1.1-3.5-1.6
				c-4.4-2.1-8.7-4.3-12.8-6.7c-0.8-0.5-1.5-0.9-2.3-1.4c-0.7-0.4-1.4-0.9-2.1-1.3c-1.2-0.7-2.3-1.4-3.4-2.2c-1-0.7-2-1.4-3-2
				c-1.1-0.7-2.1-1.5-3.2-2.2c-1-0.7-1.9-1.4-2.8-2.1c-1-0.8-2-1.5-3-2.3c-0.9-0.7-1.8-1.4-2.6-2.2c-0.9-0.8-1.8-1.6-2.7-2.4
				c-0.4-0.3-0.7-0.6-1.1-1c-0.3-0.3-0.6-0.6-1-0.9c-1.5-1.4-2.9-2.8-4.3-4.3c-0.5-0.5-1-1-1.4-1.5c-1.7-1.9-3.4-3.8-4.9-5.7
				c-0.1-0.1-0.1-0.1-0.2-0.2c-0.3-0.4-0.6-0.9-1-1.3c-0.9-1.2-1.9-2.5-2.7-3.7c-0.5-0.7-0.9-1.3-1.3-2c-0.7-1.1-1.4-2.2-2.1-3.4
				c-0.2-0.3-0.4-0.6-0.6-0.9c-0.3-0.5-0.5-0.9-0.7-1.4c-0.5-0.9-1-1.9-1.5-2.8c-0.4-0.8-0.8-1.6-1.1-2.4c-0.4-1-0.8-1.9-1.2-2.9
				c-0.2-0.4-0.4-0.8-0.5-1.3c-0.1-0.4-0.3-0.8-0.4-1.2c-0.3-0.9-0.6-1.8-0.9-2.7c-0.3-0.8-0.5-1.7-0.7-2.5
				c-0.2-0.9-0.5-1.8-0.7-2.8c-0.1-0.5-0.3-1-0.4-1.5c-0.1-0.3-0.1-0.7-0.2-1c-0.2-0.9-0.3-1.9-0.4-2.8c-0.1-0.8-0.2-1.7-0.3-2.5
				c-0.1-1-0.2-1.9-0.2-2.9c0-0.6-0.1-1.1-0.1-1.7s0-1.1,0-1.7l0,0L1089.9,1704.7z"/>
			<g>
				
					<linearGradient id="SVGID_8_" gradientUnits="userSpaceOnUse" x1="6421.0039" y1="2915.9126" x2="6799.5811" y2="2915.9126" gradientTransform="matrix(-1 0 0 -1 7889.4424 4620)">
					<stop  offset="0.1592" style="stop-color:#64CCE9"/>
					<stop  offset="1" style="stop-color:#545FAB"/>
				</linearGradient>
				<path class="st40" d="M1413.5,1626.5c73.6,42.8,73.2,112.4-0.9,155.1c-74.1,42.8-194.2,42.8-267.8,0s-73.2-112.4,0.9-155.1
					S1339.9,1583.8,1413.5,1626.5z M1409,1779.6c72-41.6,72.4-109.3,0.8-150.9s-188.4-41.6-260.5,0s-72.4,109.3-0.8,150.9
					C1220.1,1821.1,1336.9,1821.2,1409,1779.6"/>
			</g>
		</g>
	</g>
	<g>
		<g class="st32">
			
				<linearGradient id="SVGID_9_" gradientUnits="userSpaceOnUse" x1="6738.5029" y1="2792.6001" x2="6871.1899" y2="2792.6001" gradientTransform="matrix(-1 0 0 -1 7889.4424 4620)">
				<stop  offset="0.1592" style="stop-color:#64CCE9"/>
				<stop  offset="1" style="stop-color:#545FAB"/>
			</linearGradient>
			<path class="st41" d="M1024.8,1842.9c-0.8-0.2-1.5-0.4-2.2-0.5c-0.1,0-0.1,0-0.2,0c-0.8-0.1-1.5,0-2.2,0.1h-0.1
				c-0.7,0.1-1.3,0.4-1.9,0.7l109.8-63.8c0,0,0,0,0.1,0c0.2-0.1,0.4-0.2,0.7-0.3c0.2-0.1,0.5-0.2,0.7-0.2s0.3-0.1,0.5-0.1h0.1
				c0.1,0,0.1,0,0.2,0c0.3,0,0.5-0.1,0.8-0.1s0.6,0,0.9,0c0.1,0,0.2,0,0.3,0c0.1,0,0.1,0,0.2,0c0.2,0,0.3,0,0.5,0.1
				c0.4,0.1,0.8,0.1,1.2,0.3c0.2,0,0.3,0.1,0.5,0.2c0.2,0,0.3,0.1,0.5,0.2s0.4,0.1,0.6,0.2c0.6,0.3,1.2,0.6,1.9,0.9
				c0.9,0.5,1.7,1.1,2.5,1.7c0.3,0.2,0.5,0.5,0.8,0.7c0.4,0.3,0.8,0.7,1.2,1c0.2,0.2,0.3,0.4,0.5,0.5c0.1,0.2,0.3,0.3,0.4,0.5
				c0.2,0.2,0.3,0.3,0.5,0.5c0.4,0.4,0.7,0.9,1.1,1.3c0.1,0.2,0.2,0.3,0.4,0.5c0.1,0.1,0.1,0.2,0.2,0.3c0.1,0.2,0.2,0.3,0.3,0.5
				c0.3,0.4,0.5,0.8,0.8,1.2c0.2,0.4,0.5,0.8,0.7,1.1c0,0,0,0.1,0.1,0.1c0,0,0,0.1,0.1,0.1c0.2,0.3,0.4,0.6,0.5,0.9
				c0.2,0.4,0.4,0.8,0.6,1.1c0.2,0.3,0.3,0.7,0.5,1c0,0,0,0,0,0.1c0,0,0,0,0,0.1c0.2,0.4,0.3,0.8,0.5,1.2c0.2,0.4,0.3,0.8,0.5,1.3
				c0.1,0.2,0.1,0.4,0.2,0.6c0,0.1,0.1,0.2,0.1,0.3c0,0.2,0.1,0.3,0.1,0.5c0.1,0.5,0.3,1,0.4,1.5c0.1,0.3,0.1,0.6,0.2,0.9
				c0,0.2,0.1,0.3,0.1,0.5s0.1,0.3,0.1,0.5c0.1,0.9,0.2,1.7,0.2,2.6c0,4.2-1.5,7.2-3.9,8.6l-109.8,63.8c2.4-1.4,3.9-4.4,3.9-8.6
				c0-1-0.1-2-0.2-3.1c0-0.2-0.1-0.3-0.1-0.5c-0.2-1-0.4-1.9-0.7-2.9c0-0.1-0.1-0.2-0.1-0.3c-0.3-1.1-0.7-2.1-1.2-3.2c0,0,0,0,0-0.1
				c-0.5-1.1-1-2.1-1.6-3.1c0,0,0-0.1-0.1-0.1c-0.6-1-1.2-1.9-1.9-2.9c-0.1-0.1-0.1-0.2-0.2-0.3c-0.6-0.8-1.3-1.6-2-2.3
				c-0.1-0.2-0.3-0.3-0.4-0.5c-0.5-0.6-1.1-1.1-1.7-1.6c-0.3-0.2-0.5-0.5-0.8-0.7c-0.8-0.6-1.6-1.2-2.5-1.7
				c-0.8-0.5-1.7-0.8-2.5-1.1C1025.2,1843,1025,1843,1024.8,1842.9z"/>
			<g>
				<path class="st42" d="M1027.8,1844.2c-7.4-4.3-13.4-0.8-13.4,7.6c0,8.5,6,18.9,13.4,23.1c7.4,4.3,13.4,0.8,13.4-7.7
					C1041.1,1858.8,1035.2,1848.5,1027.8,1844.2z"/>
			</g>
		</g>
	</g>
	<g>
		<g class="st32">
			
				<linearGradient id="SVGID_10_" gradientUnits="userSpaceOnUse" x1="6783.8428" y1="2745.0999" x2="6982.6426" y2="2745.0999" gradientTransform="matrix(-1 0 0 -1 7889.4424 4620)">
				<stop  offset="0.1592" style="stop-color:#64CCE9"/>
				<stop  offset="1" style="stop-color:#545FAB"/>
			</linearGradient>
			<path class="st43" d="M919.5,1887.3c-0.4-0.1-0.8-0.2-1.2-0.3c-0.4-0.1-0.7-0.2-1.1-0.2c-0.5-0.1-0.9-0.2-1.4-0.2
				c-0.3,0-0.5-0.1-0.8-0.1c-0.6,0-1.1-0.1-1.7,0c-0.1,0-0.3,0-0.4,0c-0.7,0-1.3,0.1-2,0.2c-0.2,0-0.3,0.1-0.5,0.1
				c-0.5,0.1-1,0.3-1.5,0.4c-0.1,0.1-0.3,0.1-0.4,0.2c-0.6,0.2-1.2,0.5-1.7,0.8l0,0l0,0l153.4-89.1l0.1-0.1c0.4-0.2,0.9-0.5,1.3-0.6
				c0.1,0,0.2-0.1,0.3-0.1c0.1-0.1,0.3-0.1,0.4-0.2c0.2-0.1,0.5-0.2,0.7-0.2c0.2-0.1,0.5-0.1,0.8-0.2c0.2,0,0.3-0.1,0.5-0.1
				c0.1,0,0.2,0,0.2-0.1c0.5-0.1,1.1-0.2,1.6-0.2h0.1c0.1,0,0.3,0,0.4,0c0.4,0,0.8,0,1.2,0c0.1,0,0.3,0,0.4,0c0.3,0,0.5,0,0.8,0.1
				c0.2,0,0.5,0,0.7,0.1c0.2,0,0.4,0.1,0.7,0.1c0.4,0.1,0.7,0.1,1.1,0.2c0.2,0,0.4,0.1,0.6,0.1c0.2,0.1,0.4,0.1,0.6,0.2
				c0.6,0.2,1.2,0.4,1.9,0.6c0.2,0.1,0.4,0.1,0.7,0.2c0.1,0.1,0.3,0.1,0.4,0.2c1.1,0.5,2.2,1,3.3,1.7c1.7,1,3.4,2.2,5,3.5
				c0.5,0.4,1,0.9,1.5,1.3c0.8,0.7,1.6,1.3,2.3,2.1c0.3,0.3,0.7,0.7,1,1.1c0.3,0.3,0.6,0.6,0.9,0.9c0.3,0.4,0.7,0.7,1,1.1
				c0.7,0.8,1.5,1.7,2.2,2.6c0.2,0.3,0.5,0.6,0.7,0.9c0.1,0.2,0.2,0.3,0.4,0.5c0.2,0.3,0.5,0.6,0.7,1c0.5,0.8,1,1.5,1.5,2.3
				c0.5,0.7,0.9,1.5,1.4,2.2c0,0.1,0.1,0.1,0.1,0.2c0,0,0.1,0.1,0.1,0.2c0.4,0.6,0.7,1.3,1.1,1.9c0.4,0.7,0.8,1.5,1.1,2.3
				c0.3,0.7,0.6,1.3,0.9,2c0,0,0,0.1,0.1,0.1c0,0,0,0.1,0.1,0.1c0.3,0.8,0.7,1.6,1,2.4s0.6,1.7,0.9,2.5c0.1,0.4,0.3,0.8,0.4,1.2
				c0.1,0.2,0.1,0.4,0.2,0.5c0.1,0.3,0.2,0.6,0.3,0.9c0.3,1,0.5,2,0.7,3c0.1,0.6,0.2,1.2,0.3,1.8c0.1,0.3,0.1,0.6,0.2,1
				c0,0.3,0.1,0.6,0.2,0.9c0.2,1.8,0.3,3.5,0.3,5.2c0,6.3-1.7,11.1-4.5,14.3c-0.9,1.1-2,2-3.2,2.6l-153.4,89.1
				c4.7-2.8,7.7-8.6,7.7-17c0-2-0.2-4-0.5-6.1c0-0.3-0.1-0.6-0.2-1c-0.3-1.9-0.8-3.8-1.3-5.8c-0.1-0.2-0.1-0.4-0.2-0.5
				c-0.6-2.1-1.4-4.2-2.3-6.2c0,0,0-0.1-0.1-0.1c-0.9-2.1-2-4.2-3.1-6.2c0-0.1-0.1-0.1-0.1-0.2c-1.1-2-2.4-3.8-3.7-5.7
				c-0.1-0.2-0.2-0.3-0.4-0.5c-1.2-1.6-2.5-3.2-3.9-4.6c-0.3-0.3-0.6-0.6-0.9-0.9c-1.1-1.1-2.2-2.1-3.3-3.1c-0.5-0.4-1-0.9-1.5-1.3
				c-1.6-1.3-3.3-2.5-5-3.5c-1.1-0.7-2.2-1.2-3.3-1.7c-0.3-0.2-0.7-0.3-1-0.4C920.8,1887.7,920.2,1887.5,919.5,1887.3z"/>
			<g>
				
					<linearGradient id="SVGID_11_" gradientUnits="userSpaceOnUse" x1="6937.2422" y1="2699.6001" x2="6990.2422" y2="2699.6001" gradientTransform="matrix(-1 0 0 -1 7889.4424 4620)">
					<stop  offset="0.1592" style="stop-color:#64CCE9"/>
					<stop  offset="1" style="stop-color:#545FAB"/>
				</linearGradient>
				<path class="st44" d="M925.8,1890c-14.6-8.4-26.5-1.7-26.6,15.1c0,16.8,11.8,37.2,26.4,45.7c14.6,8.4,26.5,1.7,26.6-15.1
					C952.2,1918.9,940.4,1898.5,925.8,1890z"/>
			</g>
		</g>
	</g>
</g>
<g id="XMLID_1_">
	<g>
		<path class="st45" d="M1889.2,1114c-0.1-0.3-0.2-0.5-0.2-0.8c-0.6-1-1.3-2.1-1.9-3.1c-2.2,6.2-8,12.4-9.3,18.9
			c-1.9,11.3-0.2,23.8,1.1,34c0.3,2.9,0.2,5.6,0.1,8.3c6.6-6.7,7.9-18.3,10-28.2c1.1-7.4,3.1-17.2,2-24.9
			C1890.3,1116.8,1889.7,1115.4,1889.2,1114z"/>
		<path class="st46" d="M1907.5,1173.3c-8.7,3.2-22.2,8.8-26.9,15.2c1,1.6,2.5,2.9,4.6,4.2c0,0,11.2,2.7,21.4,3.8
			C1906.9,1188.3,1907.3,1180,1907.5,1173.3z"/>
		<path class="st47" d="M1887,1110c0.7,1,1.3,2,1.9,3c-0.7-3.9,3.8-6,7.2-4.6c-1.5-6.3-5.6-12.1-1.3-25c-0.4-0.3-0.7-0.5-1.1-0.8
			c-2.3,6.1-5.4,11.9-7,17.8C1888.5,1103.6,1888.1,1106.8,1887,1110z"/>
		<path class="st47" d="M1919.8,1139.3c0-1.6-0.1-2.9-0.3-4.1c-0.4,2.7-2.7,5.2-6.1,4.3c-2.4-0.6-4.6-1.5-6.5-2.5
			c-0.4,0.6-0.8,1.2-1.1,1.9c0.6,5.5-0.4,11-4.4,15c0,0.2,0,0.4,0,0.6c-0.1-0.1-0.2-0.1-0.3-0.2l0,0c-2.1,2-5,1.8-7.1,0
			c-2.6-2.2-3.2-5.1-4-8.2c-0.5-2.4,0.7-5.5,3.3-6.1c1-4.1,1.7-8.3,1.8-12.6c0-0.5,0.1-0.9,0.2-1.3c-1.6-2.4-3-5-4.3-7.8
			c1.1,7.8-0.9,17.5-2,24.8c-2.1,9.9-3.4,21.6-10.1,28.2c-0.6,6.4-1.4,12.5,1.7,17.2c4.8-6.3,18.3-11.9,26.9-15.2
			c0.1-2.2,0.1-4.2,0.1-5.9c1.9,0.6,3.7-1.7,5.5-4.9c2.7-5,5-12.5,6.2-17.7C1919.6,1142.2,1919.9,1140.2,1919.8,1139.3z"/>
		<path class="st48" d="M1744.2,2138.2c4.7-4.3,11.1-6.4,17.5-5.8c2.1,0.2,4.3,0.3,5.9,0.4c0.6,0,1.3,0,1.9,0
			c13.2-0.7,30.4-11.6,41.8-14.6c15.3,18.6,37.7,29.2,55.4,32.7c8.5,1.6,15.8,1.6,20.8,0c2.1-0.8,3.9-1.7,5-3.1
			c0.5,3.6,1.3,8.2,1.9,12.7c0.6,5.5,1.2,11,0.9,14.9c-14.2,5.7-16.6,6.5-33.3,7.4c-3.1,0.1-13.5-0.2-13.5-0.2
			c-3.2-1.8-2.6-5.8-5.1-7c-6.2-3-13.6,0.3-19.1,2c-4.9,1-4.3,1.6-9.1,2.1c-3.1,0-8-0.6-11.7-0.8c-8.7-1.3-18.5-2.5-27.2-4.5
			c-8.3-1.8-16.1-4.1-23.4-7c-8.8-3.5-14.7-12.3-14.3-21.7v-0.1c0-0.1,0-0.1,0-0.1c0-0.2,0-0.4,0-0.6
			C1738.8,2143.4,1741.3,2140.8,1744.2,2138.2z"/>
		<g>
			<path class="st46" d="M1722.6,1365.6c5.6,4.3,11.3,8.1,16.5,12.4c2.2,0.4,4.5,0.4,6.8,0.3c4.7,3.2,11.7,5.3,18.9,6.5
				c0,0,0,0,0.1,0.1c12.8,5.5,39.5,0.8,51.7-5.2h0.3c-2.9-11.6-3-24.8-0.2-36.1c-2.6-2.6-4-5.9-5.9-8.4c-0.3-0.4-0.6-0.8-0.9-1.1
				c-0.8-0.9-1.7-1.8-2.8-2.4c-1.4-0.8-3.1-1.3-5.1-1.3c-4.6,0.1-8.2,3.7-14,2.7c-5-1.2-10-5.9-13.1-9.3c-5.2,8.7-4,14.6,0.6,18.1
				c2.5,2,5.9,3.2,10.2,3.7h0.1c0.6,0.2,1.3,0.2,2.1,0.3c-1.1,1.3-1.8,2.6-2.5,3.9c-1,2.3-1.7,4.6-2.8,6.6c-0.3,0.6-0.6,1.1-1,1.6
				c-12.4,2.6-24.7,3.8-36.4,7.8c-1.6-0.9-3.3-1.8-5.1-2.7C1734.3,1364,1728.5,1364.8,1722.6,1365.6z"/>
			
				<linearGradient id="SVGID_12_" gradientUnits="userSpaceOnUse" x1="7863.29" y1="-552.4631" x2="7793.6885" y2="-558.6962" gradientTransform="matrix(-0.4003 -0.9164 0.9164 -0.4003 5567.0728 8270.8164)">
				<stop  offset="0" style="stop-color:#242666"/>
				<stop  offset="1" style="stop-color:#33419A"/>
			</linearGradient>
			<path class="st49" d="M2043.4,1245.4c0,0-39.4,52.3-129.2,150.6l-106.8-10.2c0,0-32-36.2-12.9-58c21.2-24.3,0,0,0,0l89.6-0.7
				l80.9-106.2C1965,1220.8,2039.5,1180.3,2043.4,1245.4z"/>
		</g>
		<path class="st47" d="M1906.5,1196.5c-0.4,7.2-0.8,14.2-0.8,19.4c8.6-4.3,17.7-7.4,27.6-9.1c4.5-0.9,9.3-1.8,14.1-2.6
			c-3.1-3.6-6-7.7-7.8-12.1c-4-0.3-7.9-1.1-11.7-2.6c-2.3-6.4-10.5-19.5-14.8-26.9c-1.8,3.3-3.7,5.5-5.5,4.9
			c-0.1,1.7-0.1,3.7-0.1,5.9C1907.3,1180,1906.9,1188.3,1906.5,1196.5z"/>
		<path class="st50" d="M1854.5,1665.6c17.9,2.3,35.7,1.3,52.1-1.6c7.1-1.3,13.9-2.8,20.4-4.7c-1.2,30-8.9,111.3-13.3,170.8
			c-0.2,2.9-0.4,5.7-0.7,8.4c-3,27.6-10.3,54.7-12.1,84.6c0,0,6.9,67.7,5.2,96.7c-1.1,17.9-2.3,34.8-3.8,49.9
			c-3.6,39.5-7.7,67-8.8,71.8c0.5,2.4,0,4.5-1.3,6.2c-1.1,1.3-2.8,2.3-5,3.1c-5,1.6-12.3,1.6-20.8,0c-17.7-3.4-40.1-14-55.4-32.7
			c-9.9-149.6-10.1-318.6-22.4-479.7C1809.6,1654.6,1832.2,1662.7,1854.5,1665.6z"/>
		<path class="st46" d="M1939.6,1192c1.8,4.4,4.7,8.5,7.8,12.1c9-1.5,18.1-2.4,26.9-1.5c-0.9-3.5-1.3-7.8-1.2-11.8
			c-5.9,1.4-9.4,1.8-17.7,1.6c-4.1,0-8.2,0-12.4-0.2C1941.9,1192.2,1940.6,1192.1,1939.6,1192z"/>
		<path class="st50" d="M1947.5,1204.1c-4.8,0.8-9.6,1.7-14.1,2.6c-10,1.7-19.1,4.8-27.6,9.1c-12.7,6.2-24.3,14.7-35.9,24
			c15.8-6.4,31.6-13.8,48.7-18.1c12.7-3.4,25.3-6,37.9-7.8c11.4-1.7,22.9-2.9,34.6-3.5l-0.2-2.8c0,0-0.8-0.5-1.2-1
			c-4.9-2.2-10-3.5-15.2-4.1C1965.6,1201.7,1956.5,1202.5,1947.5,1204.1z"/>
		<path class="st51" d="M1784.7,1425.9c-0.9,42.3-1.2,87.9-1.2,125.6c-0.1,42.9,0,75.7-0.2,82.6c1.7,1.5,3.6,3,5.4,4.3
			c20.9,16.2,43.5,24.3,65.8,27.2c17.9,2.3,35.7,1.3,52.1-1.6c7.1-1.3,13.9-2.8,20.4-4.7c1.9-0.6,3.9-1.1,5.8-1.7
			c5.2-1.6,10.2-3.3,14.9-5.1c5.8-2.1,11-4.4,15.9-6.5c6.1-2.8,11.6-5.7,16.2-8.2c8-4.4,13.3-8.2,15.1-10
			c-5.4-77.3,1.5-176.2,6.9-198.7l-0.5-0.1c3.3-13.7,6.8-26.3,10.3-38.1c0.5-1.4,0.8-2.9,1.3-4.4c8-27.5,16.1-51.6,22-79.4
			c5.2-17.6,10.7-45.6,8-67c-0.1-0.4-0.4-0.9-0.6-1.5c0.1,0,0.2-0.1,0.3-0.2c0-0.9-0.2-1.9-0.4-2.8c0,0,0,0,0-0.1
			c-2.8-14.6-10.1-25.2-24.9-25.6c-9.1-0.1-17.9,0.1-26.5,0.6c-11.7,0.6-23.2,1.7-34.6,3.5c-12.6,1.8-25.2,4.4-37.9,7.8
			c-17.1,4.3-32.9,11.7-48.7,18.1c-3.5,1.5-7.1,2.9-10.6,4.2c-10.5,3.8-26.2,9.1-36.3,15.7c42.7-22.1,77.5,59.1,34.7,86.1
			C1832.9,1376.5,1808.6,1398.8,1784.7,1425.9z M1947.1,1562.7c0-0.2,0-0.4,0.1-0.6c-0.1,2.7-0.2,5.5-0.3,8.2
			C1947,1567.8,1947,1565.2,1947.1,1562.7z"/>
		<path class="st52" d="M2042.8,1238.4c-0.1,0.1-0.2,0.2-0.3,0.2c0.2,0.5,0.5,1.1,0.6,1.5C2043,1239.5,2043,1238.9,2042.8,1238.4z"
			/>
		<path class="st53" d="M2006.6,2079.6c8.5,1.8,16.4,2,22.2,0.5c0-0.4,0-0.9,0.1-1.3C2021.3,2079.6,2014,2079.8,2006.6,2079.6z"/>
		<path class="st50" d="M1913.7,1830.1c4.4-59.5,12.1-140.9,13.3-170.8c1.9-0.6,3.9-1.1,5.8-1.7c5.2-1.6,10.2-3.3,14.9-5.1
			c5.8-2.1,11-4.4,15.9-6.5c6.1-2.8,11.6-5.7,16.2-8.2c9.7,60.5,19.8,145.9,20.6,204.7c0,0,32.4,116.4,36.1,190
			c0.5,13.1,1.2,26.1,2.8,37.5c0,1.2-0.3,2.2-0.7,3.1c-1,2.3-2.8,4.1-5.3,5.4c-1.5,0.2-3,0.3-4.6,0.5c-7.5,0.7-14.9,0.9-22.3,0.8
			c-0.1,0-0.2,0-0.3,0c-18.6-3.8-40-14.7-50.2-31.4l-0.7-3.5l-42.4-206.2C1913.3,1835.8,1913.5,1833,1913.7,1830.1z"/>
		<path class="st54" d="M2028.9,2078.9c0,0.4,0,0.8-0.1,1.3c1.8-0.4,3.4-1.1,4.7-1.7C2032,2078.6,2030.4,2078.7,2028.9,2078.9z"/>
		<path class="st48" d="M1908.8,2070.3c0.3-2.2,0.7-4.3,1.1-5.5c-0.1,0-0.1-0.1-0.2-0.2c-1.3-2,10.2-12.7,11.7-13.3
			c0,0,8.4,1.7,12.4,2c0.9,0,1.9,0.1,2.6,0c8.6-0.2,10.7-5.8,19-8.4l0.7,3.5c10.2,16.6,31.6,27.6,50.2,31.4c0.1,0,0.2,0,0.3,0
			c8.5,1.8,16.4,2,22.2,0.5c1.8-0.4,3.4-1.1,4.7-1.7c2.5-1.3,4.2-3.1,5.3-5.4c1.5,1.7,4,10.3,3.5,14.9c0,0.1,0,0.1,0,0.1
			c0.5,3.3,0.4,7.8-0.4,10.8c-1,3.5-3.6,4.5-6.9,6.4c-5.5,1.9-9.5,2.4-19.3,2.4c-2.5,0-11.5-0.9-11.5-0.9c-2.8-1.9-2.5-5.9-4.7-7.1
			c-5.4-3.3-11.4-0.2-15.9,1c-4.2,0.9-3.5,1.5-7.7,1.7c-2.6-0.1-6.9-1-10-1.2c-7.4-1.8-15.9-3.5-23.3-5.8
			c-11.1-3.5-23.1-8.2-32.7-14.9C1908.5,2078.4,1908.4,2074.1,1908.8,2070.3z"/>
		<path class="st46" d="M1841,1601.8c-6.2-3.4-11.9-7.1-18-10.1c-1.3-1.9-2.2-4-3-6.2c-4.8-3.1-9.5-8.6-13.5-14.7c0,0,0,0-0.1,0
			c-10.2-9.5-16.5-35.9-15.9-49.4l-0.1-0.3c11.8-2,24-7.2,33.2-14.3c3.5,1.3,7,1.4,10.1,2c0.4,0.1,0.9,0.3,1.4,0.4
			c1.2,0.4,2.3,0.8,3.3,1.6c1.3,1,2.4,2.3,3.3,4.2c1.8,4.2-0.1,9,3.1,13.9c3.1,4.1,9.4,6.8,13.7,8.3c-5.9,8.2-11.8,9.5-16.8,6.7
			c-2.8-1.5-5.3-4.2-7.4-7.9v-0.1c-0.5-0.5-0.7-1.1-1.1-1.8c-0.7,1.5-1.6,2.7-2.6,3.9c-1.7,1.8-3.6,3.4-5,5.2
			c-0.4,0.5-0.8,1-1.1,1.6c2.6,12.4,6.5,24.2,7.4,36.5c1.4,1.1,3,2.3,4.5,3.6C1837.9,1590.4,1839.5,1596.1,1841,1601.8z"/>
		<path class="st50" d="M1822.9,1259.7c0,0-32.1,57-86.3,178.6l52.1,93.8c0,0,45.9,14.9,58.3-11.4c13.7-29.2,0,0,0,0l-35.2-82.4
			l63.9-114.7c2.5-4.6,3.7-9.7,3.2-14.9C1876.8,1288.3,1867.3,1238.4,1822.9,1259.7z"/>
		<path class="st55" d="M1904.2,1135.4c0,0.1,0,0.1,0,0.2c0.8,0.9,1.3,1.9,1.5,3.1c0,0.1,0,0.2,0,0.3c0.4-0.7,0.7-1.3,1.2-2
			C1905.9,1136.5,1905.1,1136,1904.2,1135.4z"/>
		<path class="st55" d="M2022.9,1076.1c-3.3-7-10.9-12.8-16.4-17.9c-3.8-3.5-8-6.6-12.4-9.2c0,0,0,0-0.1,0c-2.2-0.3-4-0.8-6-1.7
			c-1-0.4-2-0.9-3-1.3c-0.3-0.2-0.7-0.3-1-0.5c0,0,0,0-0.1,0c-0.1-0.1-0.3-0.1-0.4-0.2c-0.6-0.2-1.2-0.5-1.7-0.9
			c-2.6-1.5-5.2-2.9-8-4c-4.3-1.2-8.7-2.1-13.1-2.8c-2,0-4.1-0.3-6.1-0.8c-1.1-0.1-2.1-0.3-3.2-0.5c-2-0.3-4.1-0.5-6.1-0.8
			c-2.5,0.1-5.1,0.2-7.7,0.5c-0.1,0-0.1,0-0.2,0c-0.3,0-0.6,0.1-0.9,0.1c-0.4,0-0.7,0-1.1-0.1c-0.6,0.2-1.2,0.4-1.9,0.4
			c-0.3,0-0.6,0-0.8-0.1c-0.2,0-0.4,0-0.6,0.1c-0.6,0.3-1.4,0.5-2.3,0.5h-0.1c-1.9,0.7-3.8,1.2-5.8,1.6c-0.4,0.1-0.8,0.1-1.2,0.1
			c-5.8,1.5-11.3,3.6-16,6.7c-0.3,0-0.6,0.1-0.8,0.1c-1.2,0.9-2.4,1.7-3.7,2.6c-0.5,0.6-1,1.2-1.5,1.8c-0.6,0.3-1.1,0.7-1.6,1.1
			c-1,0.8-1.7,1.8-2.3,2.9c-0.3,0.6-0.5,1.2-0.7,1.7c-0.1,0.1-0.1,0.3-0.2,0.4c-0.1,0-0.3,0.1-0.4,0.1c-0.1,0.3-0.3,0.6-0.4,0.9
			c-0.3,0.8-0.7,1.5-1.4,2c-0.1,0.1-0.2,0.2-0.3,0.3c-0.3,1-0.9,1.8-1.8,2.4c-2.5,3.5-4.4,7.6-5.6,12.2c-0.4,1.7,0,3.2,0.9,4.3
			c0.9,1.7,3,3.3,6.8,4.8c0.4,0.3,0.7,0.5,1.1,0.8c-4.3,12.8-0.3,18.6,1.2,24.9c1.2,0.5,2.2,1.5,2.8,2.9c3.2,8.5,7.8,16,17,18.4
			c0.6,0,1.1,0.3,1.6,0.6c1.6,1,2.3,2.6,2.1,4.3c0.3,1.3,0.4,2.9,0.5,4.8c0.1,1-0.2,3-0.6,5.4c-1.1,5.2-3.4,12.7-6.2,17.7
			c4.2,7.3,12.5,20.5,14.7,26.9c3.8,1.5,7.7,2.3,11.7,2.6c1,0.1,2.3,0.2,3.4,0.2c4.2,0.2,8.3,0.1,12.4,0.2
			c8.3,0.2,11.8-0.2,17.7-1.6c1.6-0.4,3.5-0.8,5.6-1.3c0.1-3.2,6.3-11.5,12-17.3c0.7-0.7,1.3-1.4,2-2c9.1-9.8,19.9-18.8,27.9-29.5
			l0.1,0.1c2.5-5.3,3.8-11.6,5.3-17.1c1.4-5.6,2.3-11.5,3-17.5c0.6-4.7,0.9-9.5,1-14.2h0.2
			C2029.1,1086.7,2024.9,1080.1,2022.9,1076.1z"/>
	</g>
</g>
<path class="st47" d="M1918.1,1130.1c-3.2-1.8-6.8-2.3-9.7-4.6c-2.5-2-4.5-4.5-6.4-7c-0.2-0.9-0.6-1.7-1.2-2.4
	c-1-2.8-2.2-5.6-3.6-8.3c-3-5.7-11.6-0.7-8.6,5c0.7,1.3,1.3,2.7,1.9,4c-0.3,0.6-0.4,1.2-0.5,1.9c-0.7,10.7-1.3,21.3-2,32
	c-0.1,1.8,0.7,3.1,1.8,3.9c-0.4,2.4,0.6,5,3.5,5.5c3.5,0.6,6.8,0.8,10.3,0.5c-0.2,0.4-0.4,0.7-0.6,1.1c-3.4,5.5,5.2,10.5,8.6,5
	c5.3-8.4,8.3-18.5,8.6-28.5c0-0.6-0.1-1.1-0.2-1.6C1921,1134.5,1920.8,1131.6,1918.1,1130.1z"/>
<path class="st55" d="M1929.1,1133.6c-0.5-1.4-1.1-2.7-1.8-4c-0.3-0.7-0.5-1.4-0.8-2.1c-0.7-2.4-1.2-4.3-3.1-6
	c-0.5-0.4-1-0.8-1.5-1.1c-0.1-0.3-0.3-0.5-0.4-0.8c-0.8-1.6-2-2.4-3.4-2.5l-0.5-0.5c-3.5-3.8-9.5,0.2-8.4,4.9
	c0.4,1.6,1.2,3.1,2.4,4.3c0.6,0.5,1.2,0.9,1.9,1.3l2.6,2.9c0.3,0.5,0.7,1,1,1.5c0.1,0.4,0.2,0.8,0.4,1.2c0.2,0.6,1.3,2.1,2,3.5
	c0.4,1.3,0.5,2.6,0.3,3.9c-1.1,5.3,6.4,9.2,9.1,3.9C1931.2,1139.7,1930.4,1136.7,1929.1,1133.6z"/>
</svg>
