<?xml version="1.0" encoding="utf-8"?>
<svg id="master-artboard" viewBox="0 0 1400 980" version="1.1" xmlns="http://www.w3.org/2000/svg" x="0px" y="0px" width="1400px" height="980px" enable-background="new 0 0 1400 980">
<g transform="matrix(1, 0, 0, 1, 0, 0)">
		<g>
			<path d="M 0 0 H 1400 V 980 H 0 V 0 Z" fill="#FFFFFF"/>
		</g>
	</g><path fill="#96E1FF" d="M503.4,493.5c6.6-12.8,11.2-26.7,13.5-41.4l-36.4-11.8c0.2-2.7,0.4-5.5,0.4-8.3c0-2.8-0.2-5.6-0.4-8.3&#10;&#9;&#9;&#9;l36.4-11.8c-2.2-14.7-6.9-28.6-13.5-41.4L467,382.2c-2.9-4.8-6.1-9.3-9.8-13.5l22.5-31c-10.2-10.3-22.1-19-35.2-25.6L422,343.1&#10;&#9;&#9;&#9;c-5.1-2.2-10.4-3.8-15.9-5.1v-38.3c-7.1-1.2-14.4-1.8-21.8-1.8c-7.4,0-14.7,0.6-21.8,1.8V338c-5.5,1.3-10.8,2.9-15.9,5.1&#10;&#9;&#9;&#9;l-22.5-30.9c-13.1,6.6-25,15.3-35.2,25.6l22.5,31c-3.6,4.2-6.9,8.7-9.8,13.5l-36.4-11.8c-6.6,12.8-11.2,26.7-13.5,41.4l36.4,11.8&#10;&#9;&#9;&#9;c-0.2,2.8-0.4,5.5-0.4,8.3c0,2.8,0.2,5.6,0.4,8.3l-36.4,11.8c2.2,14.7,6.9,28.7,13.5,41.4l36.4-11.8c2.9,4.8,6.1,9.3,9.8,13.5&#10;&#9;&#9;&#9;l-22.5,31c10.2,10.3,22.1,19,35.2,25.6l22.5-30.9c5.1,2.2,10.4,3.8,15.9,5.1v38.3c7.1,1.2,14.4,1.8,21.8,1.8&#10;&#9;&#9;&#9;c7.4,0,14.7-0.6,21.8-1.8l0-38.3c5.5-1.3,10.8-2.9,15.9-5.1l22.5,30.9c13.1-6.6,25-15.3,35.2-25.6l-22.5-31&#10;&#9;&#9;&#9;c3.6-4.2,6.9-8.7,9.8-13.5L503.4,493.5z M384.4,497.3c-36.1,0-65.3-29.2-65.3-65.3c0-36.1,29.2-65.3,65.3-65.3&#10;&#9;&#9;&#9;c36.1,0,65.3,29.2,65.3,65.3C449.7,468,420.4,497.3,384.4,497.3z" transform="matrix(1, 0, 0, 1, 0, 0)"/><path d="M384.4,567.2c-7.3,0-14.6-0.6-22-1.8c-0.6-0.1-1-0.6-1-1.2v-37.3c-5.1-1.2-9.9-2.8-14.2-4.5l-21.9,30.1&#10;&#9;&#9;&#9;c-0.4,0.5-1,0.6-1.6,0.4c-13.2-6.6-25.2-15.3-35.5-25.8c-0.4-0.4-0.5-1.1-0.1-1.6l21.9-30.2c-3.2-3.7-6.1-7.8-8.7-12.1l-35.5,11.5&#10;&#9;&#9;&#9;c-0.6,0.2-1.2-0.1-1.5-0.6c-6.8-13.2-11.4-27.2-13.6-41.8c-0.1-0.6,0.3-1.2,0.8-1.4l35.5-11.5c-0.2-2.3-0.3-4.8-0.3-7.5&#10;&#9;&#9;&#9;c0-2.6,0.2-5.2,0.3-7.5l-35.5-11.5c-0.6-0.2-0.9-0.8-0.8-1.4c2.2-14.6,6.8-28.6,13.6-41.8c0.3-0.5,0.9-0.8,1.5-0.6l35.5,11.5&#10;&#9;&#9;&#9;c2.6-4.3,5.6-8.3,8.7-12.1L288,338.5c-0.4-0.5-0.3-1.2,0.1-1.6c10.4-10.5,22.3-19.2,35.5-25.8c0.5-0.3,1.2-0.1,1.6,0.4l21.9,30.1&#10;&#9;&#9;&#9;c4.4-1.8,9.1-3.3,14.2-4.5v-37.3c0-0.6,0.4-1.1,1-1.2c14.6-2.4,29.3-2.4,43.9,0c0.6,0.1,1,0.6,1,1.2V337c5.1,1.2,9.9,2.7,14.2,4.5&#10;&#9;&#9;&#9;l21.9-30.1c0.4-0.5,1-0.6,1.6-0.4c13.2,6.6,25.2,15.3,35.5,25.8c0.4,0.4,0.5,1.1,0.1,1.6l-21.9,30.2c3.2,3.7,6.1,7.8,8.7,12.1&#10;&#9;&#9;&#9;l35.5-11.5c0.6-0.2,1.2,0.1,1.5,0.6c6.8,13.2,11.4,27.2,13.6,41.8c0.1,0.6-0.3,1.2-0.8,1.4l-35.5,11.5c0.2,2.2,0.3,4.8,0.3,7.5&#10;&#9;&#9;&#9;c0,2.7-0.2,5.3-0.3,7.5l35.5,11.5c0.6,0.2,0.9,0.8,0.8,1.4c-2.2,14.6-6.8,28.6-13.6,41.8c-0.3,0.5-0.9,0.8-1.5,0.6l-35.5-11.5&#10;&#9;&#9;&#9;c-2.7,4.3-5.6,8.4-8.7,12.1l21.9,30.2c0.4,0.5,0.3,1.2-0.1,1.6c-10.4,10.5-22.3,19.2-35.5,25.8c-0.5,0.3-1.2,0.1-1.5-0.4&#10;&#9;&#9;&#9;l-21.9-30.1c-4.4,1.8-9.2,3.3-14.2,4.5l0,37.3c0,0.6-0.4,1.1-1,1.2C399,566.6,391.6,567.2,384.4,567.2z M363.8,563.1&#10;&#9;&#9;&#9;c13.7,2.1,27.4,2.1,41.1,0l0-37.2c0-0.6,0.4-1.1,1-1.2c5.7-1.3,10.9-3,15.7-5c0.5-0.2,1.1-0.1,1.5,0.4l21.8,30.1&#10;&#9;&#9;&#9;c12.3-6.3,23.5-14.4,33.2-24.2l-21.9-30.1c-0.3-0.5-0.3-1.1,0.1-1.5c3.5-4,6.7-8.5,9.6-13.3c0.3-0.5,0.9-0.7,1.4-0.5l35.4,11.5&#10;&#9;&#9;&#9;c6.3-12.3,10.6-25.5,12.7-39.1l-35.4-11.5c-0.5-0.2-0.9-0.7-0.8-1.3c0.2-2.3,0.4-5.2,0.4-8.2c0-3-0.2-5.8-0.4-8.2&#10;&#9;&#9;&#9;c-0.1-0.6,0.3-1.1,0.8-1.3l35.4-11.5c-2.2-13.6-6.4-26.7-12.7-39.1l-35.5,11.5c-0.5,0.2-1.1,0-1.4-0.5c-2.9-4.8-6.1-9.3-9.6-13.3&#10;&#9;&#9;&#9;c-0.4-0.4-0.4-1.1-0.1-1.5l21.9-30.1c-9.8-9.7-20.9-17.8-33.2-24.1L423,343.8c-0.3,0.5-1,0.6-1.5,0.4c-4.7-2-10-3.7-15.7-5&#10;&#9;&#9;&#9;c-0.6-0.1-1-0.6-1-1.2v-37.2c-13.7-2.1-27.4-2.1-41.1,0V338c0,0.6-0.4,1.1-1,1.2c-5.7,1.3-10.9,3-15.7,5c-0.5,0.2-1.1,0.1-1.5-0.4&#10;&#9;&#9;&#9;l-21.8-30.1c-12.3,6.3-23.4,14.4-33.2,24.2l21.9,30.1c0.3,0.5,0.3,1.1-0.1,1.5c-3.5,4.1-6.8,8.5-9.6,13.3&#10;&#9;&#9;&#9;c-0.3,0.5-0.9,0.7-1.4,0.5l-35.4-11.5c-6.3,12.3-10.5,25.5-12.7,39.1l35.4,11.5c0.5,0.2,0.9,0.7,0.8,1.3c-0.2,2.4-0.4,5.3-0.4,8.2&#10;&#9;&#9;&#9;c0,2.9,0.2,5.8,0.4,8.2c0,0.6-0.3,1.1-0.8,1.3L253.2,453c2.2,13.6,6.4,26.7,12.7,39.1l35.4-11.5c0.5-0.2,1.1,0,1.4,0.5&#10;&#9;&#9;&#9;c2.9,4.8,6.1,9.2,9.6,13.3c0.4,0.4,0.4,1.1,0.1,1.5L290.7,526c9.8,9.7,20.9,17.9,33.2,24.2l21.8-30c0.3-0.5,0.9-0.6,1.5-0.4&#10;&#9;&#9;&#9;c4.7,2,10,3.7,15.7,5c0.6,0.1,1,0.6,1,1.2V563.1z M384.4,498.5c-36.7,0-66.5-29.9-66.5-66.5s29.9-66.5,66.5-66.5&#10;&#9;&#9;&#9;s66.5,29.9,66.5,66.5S421.1,498.5,384.4,498.5z M384.4,367.9c-35.3,0-64.1,28.7-64.1,64.1c0,35.3,28.7,64.1,64.1,64.1&#10;&#9;&#9;&#9;s64.1-28.7,64.1-64.1C448.5,396.6,419.7,367.9,384.4,367.9z" transform="matrix(1, 0, 0, 1, 0, 0)"/><path d="M598,340.6c-0.1,0-0.2,0-0.3,0c-0.4-0.1-0.7-0.3-0.8-0.7c-18.6-41.1-53.3-74.1-95.3-90.4c-0.3-0.1-0.6-0.4-0.7-0.8&#10;&#9;&#9;&#9;c-0.1-0.4-0.1-0.7,0.1-1c12.7-19.6,34.2-31.3,57.5-31.3c5.2,0,10.5,0.6,15.6,1.8c17.8,4.2,33,15,42.6,30.6&#10;&#9;&#9;&#9;c9.7,15.5,12.7,33.9,8.5,51.7c-3.7,16-13.1,30.2-26.5,39.9C598.5,340.5,598.3,340.6,598,340.6z M503.9,247.8&#10;&#9;&#9;&#9;c41.5,16.6,75.9,49.1,94.6,89.7c12.2-9.3,20.8-22.6,24.3-37.5c4-17.2,1.1-34.9-8.2-49.9c-9.3-15-23.9-25.5-41.1-29.5&#10;&#9;&#9;&#9;c-5-1.2-10-1.7-15.1-1.7C536.5,218.9,516.2,229.7,503.9,247.8z" transform="matrix(1, 0, 0, 1, 0, 0)"/><path fill="#FF8A9E" d="M662.3,309.2c2.5-10.7,3.3-21.4,2.5-31.8l26.6-11.6c-2-13.5-5.9-26.5-11.7-38.6l-28.6,5.1&#10;&#9;&#9;&#9;c-10.5-18.4-26.4-33.6-46.1-43.2l3.2-28.9c-6.2-2.5-12.6-4.5-19.3-6.1c-6.7-1.6-13.4-2.6-20-3.1l-9.9,27.3&#10;&#9;&#9;&#9;c-21.9-0.2-42.9,6.5-60.4,18.3l-23.4-17.2c-10.5,8.3-19.9,18.2-27.6,29.4l18.7,22.2c-1.4,2.3-2.6,4.7-3.8,7.1&#10;&#9;&#9;&#9;c13.7,1.9,26.9,5.3,39.4,10.2c15-23.1,43.4-35.5,71.8-28.9c36.2,8.4,58.7,44.6,50.2,80.8c-3.8,16.4-13.4,30-26,39.1&#10;&#9;&#9;&#9;c5.5,12.2,9.7,25.2,12.3,38.7c2.7-1.5,5.3-3.1,7.9-4.8l23.4,17.2c10.5-8.3,19.9-18.2,27.6-29.4l-18.7-22.2&#10;&#9;&#9;&#9;C655.8,329.9,659.8,319.9,662.3,309.2z" transform="matrix(1, 0, 0, 1, 0, 0)"/><path d="M641.6,391.7c-0.3,0-0.5-0.1-0.7-0.2l-22.7-16.7c-2.3,1.5-4.7,3-7.3,4.4c-0.3,0.2-0.8,0.2-1.1,0c-0.4-0.2-0.6-0.5-0.7-0.9&#10;&#9;&#9;&#9;c-2.5-13.2-6.6-26.1-12.2-38.4c-0.2-0.5-0.1-1.2,0.4-1.5c12.9-9.3,21.9-23,25.5-38.4c4-17.2,1.1-34.9-8.2-49.9&#10;&#9;&#9;&#9;c-9.3-15-23.9-25.5-41.1-29.5c-5-1.2-10-1.7-15.1-1.7c-22.4,0-43.2,11.3-55.4,30.1c-0.3,0.5-0.9,0.7-1.5,0.5&#10;&#9;&#9;&#9;c-12.6-4.9-25.7-8.3-39.1-10.1c-0.4-0.1-0.7-0.3-0.9-0.6c-0.2-0.3-0.2-0.8,0-1.1c1.1-2.2,2.2-4.4,3.4-6.4l-18.1-21.5&#10;&#9;&#9;&#9;c-0.4-0.4-0.4-1-0.1-1.5c7.7-11.2,17.1-21.2,27.9-29.7c0.4-0.3,1-0.4,1.5,0l22.7,16.7c17.7-11.8,38.3-18,59.5-18l9.6-26.5&#10;&#9;&#9;&#9;c0.2-0.5,0.7-0.8,1.3-0.8c6.8,0.5,13.5,1.6,20.2,3.1c6.6,1.5,13.2,3.6,19.5,6.1c0.5,0.2,0.8,0.7,0.8,1.3l-3.1,28&#10;&#9;&#9;&#9;c19,9.4,34.7,24.1,45.4,42.5l27.7-4.9c0.5-0.1,1.1,0.2,1.3,0.7c5.9,12.3,9.9,25.5,11.8,39c0.1,0.5-0.2,1.1-0.7,1.3l-25.8,11.3&#10;&#9;&#9;&#9;c0.7,10.5-0.2,21-2.6,31.3c-2.4,10.3-6.3,20.2-11.5,29.3l18.1,21.5c0.4,0.4,0.4,1,0.1,1.5c-7.7,11.2-17.1,21.2-27.9,29.7&#10;&#9;&#9;&#9;C642.1,391.6,641.9,391.7,641.6,391.7z M618.2,372c0.3,0,0.5,0.1,0.7,0.2l22.6,16.6c10-8,18.8-17.3,26.1-27.8l-18.1-21.5&#10;&#9;&#9;&#9;c-0.3-0.4-0.4-1-0.1-1.4c5.3-9.1,9.3-19,11.7-29.3c2.4-10.4,3.3-20.9,2.5-31.5c0-0.5,0.3-1,0.7-1.2l25.7-11.2&#10;&#9;&#9;&#9;c-1.9-12.6-5.6-24.9-11.1-36.5l-27.6,4.9c-0.5,0.1-1-0.1-1.3-0.6c-10.6-18.6-26.3-33.4-45.5-42.7c-0.5-0.2-0.7-0.7-0.7-1.2&#10;&#9;&#9;&#9;L607,161c-5.9-2.3-12.1-4.2-18.3-5.7c-6.2-1.4-12.5-2.5-18.9-3l-9.6,26.4c-0.2,0.5-0.6,0.8-1.2,0.8c0,0,0,0,0,0l-0.7,0&#10;&#9;&#9;&#9;c-21.1,0-41.5,6.3-59,18.1c-0.4,0.3-1,0.3-1.4,0L475.4,181c-10,8-18.8,17.3-26.1,27.8l18.1,21.5c0.3,0.4,0.4,1,0.1,1.4&#10;&#9;&#9;&#9;c-1,1.8-2,3.6-3,5.5c12.7,1.9,25.1,5.1,37,9.7c12.8-19.1,34-30.4,56.9-30.4c5.2,0,10.5,0.6,15.6,1.8c17.8,4.2,33,15,42.6,30.6&#10;&#9;&#9;&#9;c9.7,15.5,12.7,33.9,8.5,51.7c-3.7,15.7-12.8,29.6-25.7,39.3c5.2,11.7,9.1,23.9,11.6,36.4c2.2-1.3,4.4-2.6,6.3-4&#10;&#9;&#9;&#9;C617.8,372.1,618,372,618.2,372z" transform="matrix(1, 0, 0, 1, 0, 0)"/><path d="M612.5,592.4L612.5,592.4c-0.5,0-1,0-1.4,0c-0.4,0-0.7-0.2-0.9-0.4s-0.3-0.6-0.3-1c1.6-10,2.3-18.9,2.3-27.2V447.1&#10;&#9;&#9;&#9;c0-0.3,0.1-0.6,0.4-0.9c0.2-0.2,0.7-0.3,0.9-0.4c33.2,0.4,62,23.2,70.1,55.4c9.9,39.2-14,79.1-53.1,88.9&#10;&#9;&#9;&#9;C624.6,591.7,618.6,592.4,612.5,592.4z M614.7,448.4v115.4c0,8-0.7,16.6-2.2,26.1c5.8,0,11.6-0.7,17.3-2.1&#10;&#9;&#9;&#9;c37.9-9.5,60.9-48.1,51.4-85.9C673.5,471.2,646.3,449.3,614.7,448.4z" transform="matrix(1, 0, 0, 1, 0, 0)"/><path fill="#A59CFF" d="M714.8,509.3l22.8-17.4c-0.3-1.3-0.6-2.7-0.9-4c-7.2-28.7-23.7-52.7-45.4-69.6l-25.5,13&#10;&#9;&#9;&#9;c-9.5-5.8-20-10-31-12.4l-9.5-27.1c-4.3-0.4-8.7-0.6-13-0.6c0.8,6.6,1.2,13.3,1.2,20.1v35.9c31.9,0.4,60.8,22.1,68.9,54.4&#10;&#9;&#9;&#9;c9.7,38.6-13.7,77.7-52.3,87.4c-6.4,1.6-12.8,2.3-19,2.2c0,0.2-0.1,0.4-0.1,0.6l-81.5,15.7l-2.2,7.2c22,19.6,50.5,31.3,80.7,32.4&#10;&#9;&#9;&#9;l13.1-25.6c5.5-0.5,11-1.4,16.5-2.7c5.5-1.4,10.8-3.2,15.9-5.4l23.6,16.3c26.1-15.2,45.6-39,55.7-66.7l-20.3-20.3&#10;&#9;&#9;&#9;C715.1,531.9,715.9,520.7,714.8,509.3z" transform="matrix(1, 0, 0, 1, 0, 0)"/><path d="M608.1,648.3C608,648.3,608,648.3,608.1,648.3c-30.1-1-59-12.7-81.5-32.7c-0.4-0.3-0.5-0.8-0.4-1.3l2.2-7.2&#10;&#9;&#9;&#9;c0.1-0.4,0.5-0.8,0.9-0.9l80.7-15.6c0.2-0.5,0.7-0.8,1.2-0.8c6.3,0.1,12.6-0.6,18.7-2.1c37.9-9.5,60.9-48.1,51.4-85.9&#10;&#9;&#9;&#9;c-7.8-31.1-35.7-53.1-67.7-53.5c-0.7,0-1.2-0.6-1.2-1.2v-35.9c0-6.4-0.4-13-1.2-19.9c0-0.3,0.1-0.7,0.3-1c0.2-0.3,0.6-0.4,0.9-0.4&#10;&#9;&#9;&#9;h0.4c4.4,0,8.7,0.2,12.8,0.6c0.5,0,0.9,0.4,1,0.8l9.3,26.4c10.6,2.4,20.8,6.5,30.1,12.1l24.9-12.7c0.4-0.2,0.9-0.2,1.3,0.1&#10;&#9;&#9;&#9;c22.9,17.8,38.7,42.1,45.8,70.3c0.3,1.1,0.5,2.2,0.7,3.3l0.2,0.8c0.1,0.5-0.1,1-0.5,1.2l-22.2,17c1,10.8,0.2,21.7-2.2,32.4&#10;&#9;&#9;&#9;l19.8,19.9c0.3,0.3,0.5,0.8,0.3,1.3c-10.3,28.3-30.3,52.2-56.2,67.4c-0.4,0.2-0.9,0.2-1.3-0.1l-23.1-16&#10;&#9;&#9;&#9;c-5.1,2.2-10.2,3.9-15.4,5.2c-5.2,1.3-10.6,2.2-16,2.7l-12.8,25C608.9,648.1,608.5,648.3,608.1,648.3z M528.8,614.3&#10;&#9;&#9;&#9;c21.8,19.2,49.6,30.3,78.5,31.5l12.7-24.9c0.2-0.4,0.6-0.6,1-0.7c5.6-0.5,11-1.4,16.3-2.7c5.3-1.3,10.6-3.1,15.7-5.3&#10;&#9;&#9;&#9;c0.4-0.2,0.8-0.1,1.2,0.1l23,15.9c24.9-14.7,44.1-37.8,54.2-64.9l-19.7-19.8c-0.3-0.3-0.4-0.7-0.3-1.2c2.6-10.8,3.3-21.9,2.2-32.9&#10;&#9;&#9;&#9;c0-0.4,0.1-0.8,0.5-1.1l22.1-16.9l0,0c-0.2-1.1-0.5-2.1-0.7-3.2c-6.9-27.4-22.2-51-44.3-68.4l-24.8,12.6c-0.4,0.2-0.8,0.2-1.2,0&#10;&#9;&#9;&#9;c-9.5-5.7-19.8-9.9-30.6-12.3c-0.4-0.1-0.8-0.4-0.9-0.8l-9.2-26.3c-3.4-0.3-7-0.5-10.8-0.5c0.7,6.5,1.1,12.7,1.1,18.8v34.7&#10;&#9;&#9;&#9;c32.7,0.9,60.9,23.5,68.9,55.3c9.9,39.2-14,79.1-53.1,88.9c-6,1.5-12.1,2.2-18.3,2.2c-0.2,0.3-0.5,0.5-0.8,0.6l-80.8,15.6&#10;&#9;&#9;&#9;L528.8,614.3z" transform="matrix(1, 0, 0, 1, 0, 0)"/><path d="M331.5,739.8H169.9c-15.7,0-28.4-12.7-28.4-28.4V584.1h-29.8c-13.7,0-23.9-4.7-28.9-13.3c-4.9-8.5-3.9-19.8,3-31.6&#10;&#9;&#9;&#9;l53.6-92.9c0.5-0.8,1-1.5,1.5-2.1c0.2-0.3,0.4-0.6,0.6-0.9v-32.2c0-97,78.9-176,176-176h121.3c7.8,0,15.9,0.6,24.1,1.7&#10;&#9;&#9;&#9;c13.6,1.9,26.9,5.3,39.6,10.3c42.6,16.6,77.9,50,96.7,91.7c5.6,12.5,9.8,25.6,12.4,39c0.8,4,1.4,8.3,2,13.2&#10;&#9;&#9;&#9;c0.8,7.1,1.2,13.7,1.2,20.2v152.6c0,8.4-0.8,17.4-2.4,27.5l-0.1,0.6c-0.1,0.5-0.5,0.9-1,1l-210,40.5l-68.8,105.7&#10;&#9;&#9;&#9;C332.3,739.6,331.9,739.8,331.5,739.8z M317.4,237.7c-95.7,0-173.5,77.8-173.5,173.5v32.6c0,0.2-0.1,0.5-0.2,0.7&#10;&#9;&#9;&#9;c-0.3,0.4-0.6,0.9-0.9,1.3c-0.5,0.6-0.9,1.2-1.3,1.9l-53.6,92.9c-6.4,11-7.4,21.4-3,29.1c4.5,7.8,14,12,26.7,12h31&#10;&#9;&#9;&#9;c0.7,0,1.2,0.6,1.2,1.2v128.5c0,14.3,11.6,26,26,26h160.9l68.7-105.6c0.2-0.3,0.5-0.5,0.8-0.5L610,590.8&#10;&#9;&#9;&#9;c1.6-9.9,2.3-18.7,2.3-26.9V411.2c0-6.4-0.4-13-1.2-19.9c-0.6-4.8-1.2-9-2-13c-2.5-13.2-6.6-26.1-12.2-38.4&#10;&#9;&#9;&#9;c-18.6-41.1-53.3-74.1-95.3-90.4c-12.6-4.9-25.7-8.3-39.1-10.1c-8-1.1-16-1.7-23.7-1.7H317.4z" transform="matrix(1, 0, 0, 1, 0, 0)"/><path d="M461.7,821.1h-45.8c-0.4,0-0.8-0.2-1-0.6L362,739.2c-0.3-0.4-0.3-0.9,0-1.3l52.9-81.3c0.2-0.3,0.6-0.6,1-0.6h45.8&#10;&#9;&#9;&#9;c0.4,0,0.8,0.2,1,0.5c0.2,0.3,0.3,0.8,0.1,1.2l-23.3,56.5h69.7c0.7,0,1.2,0.6,1.2,1.2s-0.6,1.2-1.2,1.2h-71.5&#10;&#9;&#9;&#9;c-0.4,0-0.8-0.2-1-0.5c-0.2-0.3-0.3-0.8-0.1-1.2l23.3-56.5h-43.3l-52.1,80l52.1,80h43.3l-23.3-56.5c-0.2-0.4-0.1-0.8,0.1-1.2&#10;&#9;&#9;&#9;c0.2-0.3,0.6-0.5,1-0.5h138.1c0.7,0,1.2,0.6,1.2,1.2c0,0.7-0.6,1.2-1.2,1.2H439.5l23.3,56.5c0.2,0.4,0.1,0.8-0.1,1.2&#10;&#9;&#9;&#9;S462.1,821.1,461.7,821.1z" transform="matrix(1, 0, 0, 1, 0, 0)"/><path d="M569.6,716.7h-38.2c-0.7,0-1.2-0.6-1.2-1.2s0.6-1.2,1.2-1.2h38.2c0.7,0,1.2,0.6,1.2,1.2S570.3,716.7,569.6,716.7z" transform="matrix(1, 0, 0, 1, 0, 0)"/><path d="M614.8,762.9h-20.1c-0.7,0-1.2-0.6-1.2-1.2c0-0.7,0.6-1.2,1.2-1.2h20.1c0.7,0,1.2,0.6,1.2,1.2&#10;&#9;&#9;&#9;C616.1,762.4,615.5,762.9,614.8,762.9z" transform="matrix(1, 0, 0, 1, 0, 0)"/><g transform="matrix(1, 0, 0, 1, 0, 0)">
			<path d="M950.4,790.3h-26.8c-0.7,0-1.2-0.6-1.2-1.2v-104c0-0.7,0.6-1.2,1.2-1.2h26.8c12.1,0,21.9,9.8,21.9,21.9v62.6&#10;&#9;&#9;&#9;&#9;C972.4,780.5,962.5,790.3,950.4,790.3z M924.9,787.8h25.5c10.7,0,19.5-8.7,19.5-19.5v-62.6c0-10.7-8.7-19.5-19.5-19.5h-25.5&#10;&#9;&#9;&#9;&#9;V787.8z"/>
		</g><path d="M950.4,777.7h-26.8c-0.7,0-1.2-0.6-1.2-1.2v-78.8c0-0.7,0.6-1.2,1.2-1.2h26.8c5.2,0,9.4,4.2,9.4,9.4v62.6&#10;&#9;&#9;&#9;&#9;C959.8,773.5,955.6,777.7,950.4,777.7z M924.9,775.3h25.5c3.8,0,6.9-3.1,6.9-6.9v-62.6c0-3.8-3.1-6.9-6.9-6.9h-25.5V775.3z" transform="matrix(1, 0, 0, 1, 0, 0)"/><path d="M885.9,838.1h-78.7c-21.5,0-39-17.5-39-39V644c0-0.7,0.6-1.2,1.2-1.2h18.9c0.7,0,1.2,0.6,1.2,1.2v50.6&#10;&#9;&#9;&#9;&#9;c0,7.3,6,13.3,13.3,13.3c7.3,0,13.3-6,13.3-13.3v-11.8c0-8.7,7.1-15.8,15.8-15.8s15.8,7.1,15.8,15.8v41.3c0,7.3,6,13.3,13.3,13.3&#10;&#9;&#9;&#9;&#9;c7.3,0,13.3-6,13.3-13.3v-3.7c0-8,6-14.7,14-15.6c0.1,0,0.2,0,0.3,0l0.5,0.1c0.7,0.1,1.4,0.1,2.1,0l0.5-0.1&#10;&#9;&#9;&#9;&#9;c6.7-0.8,11.8-6.4,11.8-13.2V644c0-0.7,0.6-1.2,1.2-1.2h18.9c0.7,0,1.2,0.6,1.2,1.2v155C924.9,820.6,907.4,838.1,885.9,838.1z&#10;&#9;&#9;&#9;&#9; M770.7,645.3v153.8c0,20.1,16.4,36.5,36.5,36.5h78.7c20.1,0,36.5-16.4,36.5-36.5V645.3H906v46.3c0,8-6,14.7-14,15.6l-0.4,0.1&#10;&#9;&#9;&#9;&#9;c-0.9,0.1-1.9,0.1-2.8,0l-0.3,0c-6.6,0.9-11.6,6.5-11.6,13.1v3.7c0,8.7-7.1,15.8-15.8,15.8c-8.7,0-15.8-7.1-15.8-15.8v-41.3&#10;&#9;&#9;&#9;&#9;c0-7.3-6-13.3-13.3-13.3s-13.3,6-13.3,13.3v11.8c0,8.7-7.1,15.8-15.8,15.8c-8.7,0-15.8-7.1-15.8-15.8v-49.3H770.7z" transform="matrix(1, 0, 0, 1, 0, 0)"/><path fill="#96761E" d="M875.7,644h-29.1h-29.1h-29.1v50.6c0,8,6.5,14.6,14.6,14.6c8,0,14.6-6.5,14.6-14.6v-11.8&#10;&#9;&#9;&#9;&#9;c0-8,6.5-14.6,14.6-14.6c8,0,14.6,6.5,14.6,14.6v41.3c0,8,6.5,14.6,14.6,14.6c8,0,14.6-6.5,14.6-14.6v-3.7&#10;&#9;&#9;&#9;&#9;c0-7.5,5.6-13.5,12.9-14.4c0.6,0.1,1.1,0.2,1.7,0.2s1.1-0.1,1.7-0.2c7.2-0.8,12.9-6.9,12.9-14.4V644H875.7z" transform="matrix(1, 0, 0, 1, 0, 0)"/><path d="M861.1,739.9c-8.7,0-15.8-7.1-15.8-15.8v-41.3c0-7.3-6-13.3-13.3-13.3s-13.3,6-13.3,13.3v11.8c0,8.7-7.1,15.8-15.8,15.8&#10;&#9;&#9;&#9;&#9;c-8.7,0-15.8-7.1-15.8-15.8V644c0-0.7,0.6-1.2,1.2-1.2h116.5c0.7,0,1.2,0.6,1.2,1.2v47.5c0,8-6,14.7-14,15.6l-0.4,0.1&#10;&#9;&#9;&#9;&#9;c-0.9,0.1-1.9,0.1-2.8,0l-0.3,0c-6.6,0.9-11.6,6.5-11.6,13.1v3.7C876.9,732.8,869.8,739.9,861.1,739.9z M832,667&#10;&#9;&#9;&#9;&#9;c8.7,0,15.8,7.1,15.8,15.8v41.3c0,7.3,6,13.3,13.3,13.3c7.3,0,13.3-6,13.3-13.3v-3.7c0-8,6-14.7,14-15.6c0.1,0,0.2,0,0.3,0&#10;&#9;&#9;&#9;&#9;l0.5,0.1c0.7,0.1,1.4,0.1,2.1,0l0.5-0.1c6.7-0.8,11.8-6.4,11.8-13.2v-46.3h-114v49.3c0,7.3,6,13.3,13.3,13.3&#10;&#9;&#9;&#9;&#9;c7.3,0,13.3-6,13.3-13.3v-11.8C816.2,674.1,823.3,667,832,667z" transform="matrix(1, 0, 0, 1, 0, 0)"/><path d="M809.9,624c-0.2,0-0.4-0.1-0.6-0.2c-0.6-0.3-0.8-1.1-0.4-1.7c6.9-11.7,6.9-30.6,0-42.3l-3.8-6.4&#10;&#9;&#9;&#9;&#9;c-7.3-12.3-7.3-32.4,0-44.8c0.3-0.6,1.1-0.8,1.7-0.4c0.6,0.3,0.8,1.1,0.4,1.7c-6.9,11.7-6.9,30.6,0,42.3l3.8,6.4&#10;&#9;&#9;&#9;&#9;c7.3,12.3,7.3,32.4,0,44.8C810.7,623.8,810.3,624,809.9,624z" transform="matrix(1, 0, 0, 1, 0, 0)"/><path d="M848.5,624c-0.2,0-0.4-0.1-0.6-0.2c-0.6-0.3-0.8-1.1-0.4-1.7c6.9-11.7,6.9-30.6,0-42.3l-3.8-6.4&#10;&#9;&#9;&#9;&#9;c-7.3-12.3-7.3-32.4,0-44.8c0.3-0.6,1.1-0.8,1.7-0.4c0.6,0.3,0.8,1.1,0.4,1.7c-6.9,11.7-6.9,30.6,0,42.3l3.8,6.4&#10;&#9;&#9;&#9;&#9;c7.3,12.3,7.3,32.4,0,44.8C849.3,623.8,848.9,624,848.5,624z" transform="matrix(1, 0, 0, 1, 0, 0)"/><path d="M887.1,624c-0.2,0-0.4-0.1-0.6-0.2c-0.6-0.3-0.8-1.1-0.4-1.7c6.9-11.7,6.9-30.6,0-42.3l-3.8-6.4&#10;&#9;&#9;&#9;&#9;c-7.3-12.3-7.3-32.4,0-44.8c0.3-0.6,1.1-0.8,1.7-0.4c0.6,0.3,0.8,1.1,0.4,1.7c-6.9,11.7-6.9,30.6,0,42.3l3.8,6.4&#10;&#9;&#9;&#9;&#9;c7.3,12.3,7.3,32.4,0,44.8C887.9,623.8,887.5,624,887.1,624z" transform="matrix(1, 0, 0, 1, 0, 0)"/><g transform="matrix(1, 0, 0, 1, 0, 0)">
			<path fill="#FBFFBD" d="M929.1,234.4c0-52.3-42.4-94.8-94.8-94.8c-52.3,0-94.8,42.4-94.8,94.8c0,23.3,8.4,44.7,22.4,61.2&#10;&#9;&#9;&#9;&#9;l44.7,86.5v17.5h27.6l0,0h27.6v-17.5l44.7-86.5C920.6,279.1,929.1,257.8,929.1,234.4z"/>
			<path d="M861.9,400.8h-55.3c-0.7,0-1.2-0.6-1.2-1.2v-17.2l-44.5-86.1c-14.6-17.3-22.6-39.2-22.6-61.9c0-52.9,43.1-96,96-96&#10;&#9;&#9;&#9;&#9;c52.9,0,96,43.1,96,96c0,22.6-8,44.6-22.6,61.9l-44.5,86.1v17.2C863.2,400.3,862.6,400.8,861.9,400.8z M807.9,398.4h52.8v-16.2&#10;&#9;&#9;&#9;&#9;c0-0.2,0-0.4,0.1-0.6l44.7-86.5c0-0.1,0.1-0.2,0.2-0.2c14.3-16.9,22.1-38.3,22.1-60.4c0-51.6-42-93.5-93.5-93.5&#10;&#9;&#9;&#9;&#9;c-51.6,0-93.5,42-93.5,93.5c0,22.1,7.8,43.5,22.1,60.4c0.1,0.1,0.1,0.1,0.2,0.2l44.7,86.5c0.1,0.2,0.1,0.4,0.1,0.6V398.4z"/>
		</g><path d="M 834.299988 399.600006 L 834.299988 342.700012 L 797.299988 230.899994 L 876.599976 230.899994 L 855.700012 283.899994 L 831.599976 283.899994" fill="#FBFFBD" transform="matrix(1, 0, 0, 1, 0, 0)"/><path d="M834.3,400.8c-0.7,0-1.2-0.6-1.2-1.2v-56.6l-36.9-111.7c-0.1-0.4-0.1-0.8,0.2-1.1s0.6-0.5,1-0.5h79.3&#10;&#9;&#9;&#9;&#9;c0.4,0,0.8,0.2,1,0.5c0.2,0.3,0.3,0.8,0.1,1.1l-21,53c-0.2,0.5-0.6,0.8-1.1,0.8h-24c-0.7,0-1.2-0.6-1.2-1.2&#10;&#9;&#9;&#9;&#9;c0-0.7,0.6-1.2,1.2-1.2h23.2l20-50.6H799l36.5,110.2c0,0.1,0.1,0.3,0.1,0.4v56.8C835.5,400.3,835,400.8,834.3,400.8z" transform="matrix(1, 0, 0, 1, 0, 0)"/><path d="M 806.700012 414.100006 L 861.900024 414.100006" fill="#FBFFBD" transform="matrix(1, 0, 0, 1, 0, 0)"/><path d="M861.9,415.3h-55.3c-0.7,0-1.2-0.6-1.2-1.2s0.6-1.2,1.2-1.2h55.3c0.7,0,1.2,0.6,1.2,1.2S862.6,415.3,861.9,415.3z" transform="matrix(1, 0, 0, 1, 0, 0)"/><path d="M 806.700012 431 L 861.900024 431" fill="#FBFFBD" transform="matrix(1, 0, 0, 1, 0, 0)"/><path d="M861.9,432.3h-55.3c-0.7,0-1.2-0.6-1.2-1.2s0.6-1.2,1.2-1.2h55.3c0.7,0,1.2,0.6,1.2,1.2S862.6,432.3,861.9,432.3z" transform="matrix(1, 0, 0, 1, 0, 0)"/><path fill="#FF8A9E" d="M815.5,443.7c2.2,8.4,9.7,14.5,18.7,14.5c9,0,16.6-6.2,18.7-14.5H815.5z" transform="matrix(1, 0, 0, 1, 0, 0)"/><path d="M834.3,459.5c-9.4,0-17.6-6.4-19.9-15.5c-0.1-0.4,0-0.8,0.2-1.1c0.2-0.3,0.6-0.5,1-0.5H853c0.4,0,0.7,0.2,1,0.5&#10;&#9;&#9;&#9;&#9;c0.2,0.3,0.3,0.7,0.2,1.1C851.9,453.1,843.7,459.5,834.3,459.5z M817.2,444.9c2.5,7.2,9.4,12.1,17.1,12.1s14.5-4.9,17.1-12.1&#10;&#9;&#9;&#9;&#9;H817.2z" transform="matrix(1, 0, 0, 1, 0, 0)"/><path d="M 853 362.799988 L 884 303" fill="#FBFFBD" transform="matrix(1, 0, 0, 1, 0, 0)"/><path d="M853,364.1c-0.2,0-0.4,0-0.6-0.1c-0.6-0.3-0.8-1.1-0.5-1.7l31-59.8c0.3-0.6,1.1-0.8,1.7-0.5c0.6,0.3,0.8,1.1,0.5,1.7&#10;&#9;&#9;&#9;&#9;l-31,59.8C853.9,363.8,853.5,364.1,853,364.1z" transform="matrix(1, 0, 0, 1, 0, 0)"/><path d="M 780.900024 247.899994 L 893.099976 247.899994" fill="#FBFFBD" transform="matrix(1, 0, 0, 1, 0, 0)"/><path d="M893.1,249.1H780.9c-0.7,0-1.2-0.6-1.2-1.2c0-0.7,0.6-1.2,1.2-1.2h112.2c0.7,0,1.2,0.6,1.2,1.2&#10;&#9;&#9;&#9;&#9;C894.3,248.5,893.7,249.1,893.1,249.1z" transform="matrix(1, 0, 0, 1, 0, 0)"/><g transform="matrix(1, 0, 0, 1, 0, 0)">
			<path fill="#FBFFBD" d="M1268,522.7c0-7.3,5.9-13.2,13.2-13.2H1206c7.3,0,13.2,5.9,13.2,13.2c0,7.3-5.9,13.2-13.2,13.2h75.1&#10;&#9;&#9;&#9;&#9;C1273.9,535.9,1268,530,1268,522.7z"/>
			<path d="M1281.2,537.2H1206c-0.7,0-1.2-0.6-1.2-1.2s0.6-1.2,1.2-1.2c6.6,0,12-5.4,12-12c0-6.6-5.4-12-12-12&#10;&#9;&#9;&#9;&#9;c-0.7,0-1.2-0.6-1.2-1.2s0.6-1.2,1.2-1.2h75.1c0.7,0,1.2,0.6,1.2,1.2s-0.6,1.2-1.2,1.2c-6.6,0-12,5.4-12,12c0,6.6,5.4,12,12,12&#10;&#9;&#9;&#9;&#9;c0.7,0,1.2,0.6,1.2,1.2S1281.8,537.2,1281.2,537.2z M1214.1,534.7h59c-3.8-2.6-6.4-7-6.4-12s2.5-9.4,6.4-12h-59&#10;&#9;&#9;&#9;&#9;c3.8,2.6,6.4,7,6.4,12S1217.9,532.1,1214.1,534.7z"/>
		</g><path d="M 1269 576.5 L 1281.199951171875 576.5 L 1281.199951171875 535.9000244140625 L 1206 535.9000244140625 L 1206 576.5 L 1219.0999755859375 576.5 L 1243.5999755859375 576.5 Z" fill="#FFFFFF" transform="matrix(1, 0, 0, 1, 0, 0)"/><path d="M1281.2,577.8H1206c-0.7,0-1.2-0.6-1.2-1.2v-40.6c0-0.7,0.6-1.2,1.2-1.2h75.1c0.7,0,1.2,0.6,1.2,1.2v40.6&#10;&#9;&#9;&#9;&#9;C1282.4,577.2,1281.8,577.8,1281.2,577.8z M1207.3,575.3h72.7v-38.1h-72.7V575.3z" transform="matrix(1, 0, 0, 1, 0, 0)"/><path d="M 1269 576.5 L 1243.5999755859375 576.5 L 1219.0999755859375 576.5 L 1219.0999755859375 616 L 1269 616 Z" fill="#FF8A9E" transform="matrix(1, 0, 0, 1, 0, 0)"/><path d="M1269,617.3h-49.9c-0.7,0-1.2-0.6-1.2-1.2v-39.5c0-0.7,0.6-1.2,1.2-1.2h49.9c0.7,0,1.2,0.6,1.2,1.2V616&#10;&#9;&#9;&#9;&#9;C1270.2,616.7,1269.7,617.3,1269,617.3z M1220.3,614.8h47.4v-37.1h-47.4V614.8z" transform="matrix(1, 0, 0, 1, 0, 0)"/><path d="M 1281.199951171875 354.70001220703125 L 1251.800048828125 354.70001220703125 L 1251.800048828125 459.29998779296875 L 1251.800048828125 354.70001220703125 L 1229.800048828125 354.70001220703125 L 1229.800048828125 459.29998779296875 L 1229.800048828125 354.70001220703125 L 1206 354.70001220703125 L 1206 509.5 L 1281.199951171875 509.5 Z" fill="#FFFFFF" transform="matrix(1, 0, 0, 1, 0, 0)"/><path d="M1281.2,510.7H1206c-0.7,0-1.2-0.6-1.2-1.2V354.7c0-0.7,0.6-1.2,1.2-1.2h75.1c0.7,0,1.2,0.6,1.2,1.2v154.8&#10;&#9;&#9;&#9;&#9;C1282.4,510.2,1281.8,510.7,1281.2,510.7z M1207.3,508.3h72.7V356h-26.9v103.3c0,0.7-0.6,1.2-1.2,1.2s-1.2-0.6-1.2-1.2V356H1231&#10;&#9;&#9;&#9;&#9;v103.3c0,0.7-0.6,1.2-1.2,1.2c-0.7,0-1.2-0.6-1.2-1.2V356h-21.3V508.3z" transform="matrix(1, 0, 0, 1, 0, 0)"/><path d="M 1254.699951171875 306 L 1243.5999755859375 285.6000061035156 L 1232 307 L 1247.0999755859375 313 Z" fill="#808182" transform="matrix(1, 0, 0, 1, 0, 0)"/><path d="M1247.1,314.3c-0.2,0-0.3,0-0.5-0.1l-15.2-6c-0.3-0.1-0.6-0.4-0.7-0.7c-0.1-0.3-0.1-0.7,0.1-1l11.6-21.4&#10;&#9;&#9;&#9;&#9;c0.4-0.8,1.7-0.8,2.2,0l11.1,20.4c0.3,0.5,0.2,1.1-0.2,1.5l-7.6,7C1247.7,314.2,1247.4,314.3,1247.1,314.3z M1233.7,306.4&#10;&#9;&#9;&#9;&#9;l13.1,5.2l6.3-5.8l-9.6-17.6L1233.7,306.4z" transform="matrix(1, 0, 0, 1, 0, 0)"/><path d="M 1251.800048828125 354.70001220703125 L 1281.199951171875 354.70001220703125 L 1254.699951171875 306 L 1247.0999755859375 313 L 1232 307 L 1206 354.70001220703125 L 1229.800048828125 354.70001220703125 Z" fill="#FBFFBD" transform="matrix(1, 0, 0, 1, 0, 0)"/><path d="M1281.2,356H1206c-0.4,0-0.8-0.2-1.1-0.6c-0.2-0.4-0.2-0.8,0-1.2l25.9-47.7c0.3-0.6,1-0.8,1.5-0.6l14.4,5.7l7-6.5&#10;&#9;&#9;&#9;&#9;c0.3-0.3,0.7-0.4,1-0.3c0.4,0.1,0.7,0.3,0.9,0.6l26.5,48.7c0.2,0.4,0.2,0.8,0,1.2C1282,355.8,1281.6,356,1281.2,356z&#10;&#9;&#9;&#9;&#9; M1208.1,353.5h71l-24.7-45.5l-6.4,5.9c-0.3,0.3-0.9,0.4-1.3,0.2l-14.1-5.6L1208.1,353.5z" transform="matrix(1, 0, 0, 1, 0, 0)"/><g transform="matrix(1, 0, 0, 1, 0, 0)">
			<path fill="#B6E39D" d="M1062.2,167.2l-9.6-9.6l-9.8-9.8l-9.8,9.8l-9.6,9.6c-5.4,5.4-5.4,14.2,0,19.6l9.6,9.6l9.8,9.8l9.8-9.8&#10;&#9;&#9;&#9;&#9;l9.6-9.6C1067.6,181.4,1067.6,172.6,1062.2,167.2z"/>
			<path d="M1042.8,207.5c-0.3,0-0.6-0.1-0.9-0.4l-19.4-19.4c-2.9-2.9-4.4-6.6-4.4-10.7s1.6-7.8,4.4-10.7l19.4-19.4&#10;&#9;&#9;&#9;&#9;c0.2-0.2,0.5-0.4,0.9-0.4l0,0c0.3,0,0.6,0.1,0.9,0.4l19.4,19.4c2.9,2.9,4.4,6.6,4.4,10.7s-1.6,7.8-4.4,10.7l-19.4,19.4&#10;&#9;&#9;&#9;&#9;C1043.4,207.3,1043.1,207.5,1042.8,207.5z M1042.8,149.5l-18.5,18.5c-2.4,2.4-3.7,5.6-3.7,8.9c0,3.4,1.3,6.6,3.7,8.9l18.5,18.5&#10;&#9;&#9;&#9;&#9;l18.5-18.5c2.4-2.4,3.7-5.6,3.7-8.9c0-3.4-1.3-6.6-3.7-8.9L1042.8,149.5z"/>
		</g><path d="M 1114.199951171875 489.5 L 971.2999877929688 489.5 L 989.7999877929688 618.9000244140625 L 1095.699951171875 618.9000244140625 Z" fill="#A59CFF" transform="matrix(1, 0, 0, 1, 0, 0)"/><path d="M1095.7,620.1H989.8c-0.6,0-1.1-0.5-1.2-1.1l-18.5-129.4c0-0.4,0.1-0.7,0.3-1c0.2-0.3,0.6-0.4,0.9-0.4h142.9&#10;&#9;&#9;&#9;&#9;c0.4,0,0.7,0.2,0.9,0.4c0.2,0.3,0.3,0.6,0.3,1l-18.5,129.4C1096.8,619.7,1096.3,620.1,1095.7,620.1z M990.9,617.7h103.7&#10;&#9;&#9;&#9;&#9;l18.2-126.9h-140L990.9,617.7z" transform="matrix(1, 0, 0, 1, 0, 0)"/><path d="M 948.200012 451.200012 H 1137.300018 V 489.500011 H 948.200012 V 451.200012 Z" fill="#A59CFF" transform="matrix(1, 0, 0, 1, 0, 0)"/><path d="M1137.3,490.8H948.2c-0.7,0-1.2-0.6-1.2-1.2v-38.3c0-0.7,0.6-1.2,1.2-1.2h189.1c0.7,0,1.2,0.6,1.2,1.2v38.3&#10;&#9;&#9;&#9;&#9;C1138.5,490.2,1138,490.8,1137.3,490.8z M949.5,488.3H1136v-35.9H949.5V488.3z" transform="matrix(1, 0, 0, 1, 0, 0)"/><path d="M 1079.300049 618.900024 L 1093.699951 521.099976" fill="#A59CFF" transform="matrix(1, 0, 0, 1, 0, 0)"/><path d="M1079.3,620.1c-0.1,0-0.1,0-0.2,0c-0.7-0.1-1.1-0.7-1-1.4l14.4-97.8c0.1-0.7,0.7-1.1,1.4-1c0.7,0.1,1.1,0.7,1,1.4&#10;&#9;&#9;&#9;&#9;l-14.4,97.8C1080.5,619.7,1079.9,620.1,1079.3,620.1z" transform="matrix(1, 0, 0, 1, 0, 0)"/><path d="M 1137.300049 470.399994 L 1081.800049 470.399994" fill="#A59CFF" transform="matrix(1, 0, 0, 1, 0, 0)"/><path d="M1137.3,471.6h-55.5c-0.7,0-1.2-0.6-1.2-1.2c0-0.7,0.6-1.2,1.2-1.2h55.5c0.7,0,1.2,0.6,1.2,1.2&#10;&#9;&#9;&#9;&#9;C1138.5,471,1138,471.6,1137.3,471.6z" transform="matrix(1, 0, 0, 1, 0, 0)"/><path d="M1042.8,452.4c-0.7,0-1.2-0.6-1.2-1.2v-245c0-0.7,0.6-1.2,1.2-1.2s1.2,0.6,1.2,1.2v245&#10;&#9;&#9;&#9;&#9;C1044,451.9,1043.4,452.4,1042.8,452.4z" transform="matrix(1, 0, 0, 1, 0, 0)"/><path fill="#B6E39D" d="M1021.8,375.7h-20.5h-21v21v8.3c0,11.6,9.4,21,21,21h20.5h21v-21v-8.3&#10;&#9;&#9;&#9;&#9;C1042.8,385.1,1033.4,375.7,1021.8,375.7z" transform="matrix(1, 0, 0, 1, 0, 0)"/><path d="M1042.8,427.2h-41.5c-12.2,0-22.2-10-22.2-22.2v-29.3c0-0.7,0.6-1.2,1.2-1.2h41.5c12.2,0,22.2,10,22.2,22.2V426&#10;&#9;&#9;&#9;&#9;C1044,426.6,1043.4,427.2,1042.8,427.2z M981.5,377v28c0,10.9,8.9,19.7,19.7,19.7h40.3v-28c0-10.9-8.9-19.7-19.7-19.7H981.5z" transform="matrix(1, 0, 0, 1, 0, 0)"/><path fill="#B6E39D" d="M1021.8,300h-20.5h-21v21v8.3c0,11.6,9.4,21,21,21h20.5h21v-21V321C1042.8,309.4,1033.4,300,1021.8,300z" transform="matrix(1, 0, 0, 1, 0, 0)"/><path d="M1042.8,351.5h-41.5c-12.2,0-22.2-10-22.2-22.2V300c0-0.7,0.6-1.2,1.2-1.2h41.5c12.2,0,22.2,10,22.2,22.2v29.3&#10;&#9;&#9;&#9;&#9;C1044,350.9,1043.4,351.5,1042.8,351.5z M981.5,301.2v28c0,10.9,8.9,19.7,19.7,19.7h40.3v-28c0-10.9-8.9-19.7-19.7-19.7H981.5z" transform="matrix(1, 0, 0, 1, 0, 0)"/><path fill="#B6E39D" d="M1021.8,224.2h-20.5h-21v21v8.3c0,11.6,9.4,21,21,21h20.5h21v-21v-8.3&#10;&#9;&#9;&#9;&#9;C1042.8,233.6,1033.4,224.2,1021.8,224.2z" transform="matrix(1, 0, 0, 1, 0, 0)"/><path d="M1042.8,275.7h-41.5c-12.2,0-22.2-10-22.2-22.2v-29.3c0-0.7,0.6-1.2,1.2-1.2h41.5c12.2,0,22.2,10,22.2,22.2v29.3&#10;&#9;&#9;&#9;&#9;C1044,275.2,1043.4,275.7,1042.8,275.7z M981.5,225.5v28c0,10.9,8.9,19.7,19.7,19.7h40.3v-28c0-10.9-8.9-19.7-19.7-19.7H981.5z" transform="matrix(1, 0, 0, 1, 0, 0)"/><path fill="#B6E39D" d="M1084.2,274.5h-20.5h-21v-21v-8.3c0-11.6,9.4-21,21-21h20.5h21v21v8.3&#10;&#9;&#9;&#9;&#9;C1105.2,265.1,1095.8,274.5,1084.2,274.5z" transform="matrix(1, 0, 0, 1, 0, 0)"/><path d="M1084.2,275.7h-41.5c-0.7,0-1.2-0.6-1.2-1.2v-29.3c0-12.2,10-22.2,22.2-22.2h41.5c0.7,0,1.2,0.6,1.2,1.2v29.3&#10;&#9;&#9;&#9;&#9;C1106.4,265.8,1096.5,275.7,1084.2,275.7z M1044,273.2h40.3c10.9,0,19.7-8.9,19.7-19.7v-28h-40.3c-10.9,0-19.7,8.9-19.7,19.7&#10;&#9;&#9;&#9;&#9;V273.2z" transform="matrix(1, 0, 0, 1, 0, 0)"/><path fill="#B6E39D" d="M1084.2,350.2h-20.5h-21v-21V321c0-11.6,9.4-21,21-21h20.5h21v21v8.3&#10;&#9;&#9;&#9;&#9;C1105.2,340.8,1095.8,350.2,1084.2,350.2z" transform="matrix(1, 0, 0, 1, 0, 0)"/><path d="M1084.2,351.5h-41.5c-0.7,0-1.2-0.6-1.2-1.2V321c0-12.2,10-22.2,22.2-22.2h41.5c0.7,0,1.2,0.6,1.2,1.2v29.3&#10;&#9;&#9;&#9;&#9;C1106.4,341.5,1096.5,351.5,1084.2,351.5z M1044,349h40.3c10.9,0,19.7-8.9,19.7-19.7v-28h-40.3c-10.9,0-19.7,8.9-19.7,19.7V349z" transform="matrix(1, 0, 0, 1, 0, 0)"/><path fill="#B6E39D" d="M1084.2,426h-20.5h-21v-21v-8.3c0-11.6,9.4-21,21-21h20.5h21v21v8.3C1105.2,416.6,1095.8,426,1084.2,426z&#10;&#9;&#9;&#9;&#9;" transform="matrix(1, 0, 0, 1, 0, 0)"/><path d="M1084.2,427.2h-41.5c-0.7,0-1.2-0.6-1.2-1.2v-29.3c0-12.2,10-22.2,22.2-22.2h41.5c0.7,0,1.2,0.6,1.2,1.2V405&#10;&#9;&#9;&#9;&#9;C1106.4,417.2,1096.5,427.2,1084.2,427.2z M1044,424.7h40.3c10.9,0,19.7-8.9,19.7-19.7v-28h-40.3c-10.9,0-19.7,8.9-19.7,19.7&#10;&#9;&#9;&#9;&#9;V424.7z" transform="matrix(1, 0, 0, 1, 0, 0)"/><path d="M 1261.699951171875 676.2000122070312 L 1016 685.0999755859375 L 1065.800048828125 729.9000244140625 Z" fill="#96E1FF" transform="matrix(1, 0, 0, 1, 0, 0)"/><path d="M1065.8,731.2c-0.3,0-0.6-0.1-0.8-0.3l-49.8-44.9c-0.4-0.3-0.5-0.9-0.3-1.3c0.2-0.5,0.6-0.8,1.1-0.8l245.7-8.9&#10;&#9;&#9;&#9;c0.6,0,1.2,0.4,1.3,1c0.1,0.6-0.3,1.2-0.9,1.4l-195.9,53.8C1066.1,731.2,1066,731.2,1065.8,731.2z M1019.1,686.2l47,42.4l185-50.8&#10;&#9;&#9;&#9;L1019.1,686.2z" transform="matrix(1, 0, 0, 1, 0, 0)"/><path d="M 1016 685.0999755859375 L 1065.9000244140625 730.5999755859375 L 1065.800048828125 729.9000244140625 Z" fill="#96E1FF" transform="matrix(1, 0, 0, 1, 0, 0)"/><path d="M1065.9,731.8c-0.3,0-0.6-0.1-0.8-0.3l-49.9-45.5c-0.5-0.5-0.5-1.2-0.1-1.7c0.5-0.5,1.2-0.5,1.7-0.1l49.8,44.9&#10;&#9;&#9;&#9;c0.2,0.2,0.4,0.5,0.4,0.8l0.1,0.6c0.1,0.5-0.2,1-0.7,1.2C1066.3,731.8,1066.1,731.8,1065.9,731.8z" transform="matrix(1, 0, 0, 1, 0, 0)"/><path d="M 1101.9000244140625 763 L 1101.5999755859375 763.0999755859375 L 1150.9000244140625 808.2000122070312 L 1261.699951171875 676.2000122070312 Z" fill="#96E1FF" transform="matrix(1, 0, 0, 1, 0, 0)"/><path d="M1150.9,809.4c-0.3,0-0.6-0.1-0.8-0.3l-49.3-45c-0.3-0.3-0.4-0.6-0.4-1c0-0.4,0.2-0.7,0.6-0.9l0.3-0.2l159.9-86.8&#10;&#9;&#9;&#9;c0.5-0.3,1.2-0.2,1.5,0.3c0.4,0.5,0.4,1.1,0,1.6l-110.8,132C1151.7,809.2,1151.4,809.4,1150.9,809.4&#10;&#9;&#9;&#9;C1151,809.4,1151,809.4,1150.9,809.4z M1103.7,763.4l47.1,43l105.8-126L1103.7,763.4z" transform="matrix(1, 0, 0, 1, 0, 0)"/><path d="M 1065.800048828125 729.9000244140625 L 1065.9000244140625 730.5999755859375 L 1071.5 782 L 1101.5999755859375 763.0999755859375 L 1101.9000244140625 763 L 1261.699951171875 676.2000122070312 Z" fill="#81C3DB" transform="matrix(1, 0, 0, 1, 0, 0)"/><path d="M1071.5,783.3c-0.2,0-0.4,0-0.5-0.1c-0.4-0.2-0.6-0.6-0.7-1l-5.7-52.1c-0.1-0.6,0.3-1.2,0.9-1.3l195.9-53.8&#10;&#9;&#9;&#9;c0.6-0.2,1.2,0.1,1.5,0.7c0.2,0.6,0,1.2-0.6,1.5l-160.1,86.9l-30.1,18.9C1072,783.2,1071.7,783.3,1071.5,783.3z M1067.2,730.9&#10;&#9;&#9;&#9;l5.3,49.1l28.7-18l150.5-81.7L1067.2,730.9z" transform="matrix(1, 0, 0, 1, 0, 0)"/>
</svg>