<svg xmlns="http://www.w3.org/2000/svg" viewBox="0 0 279.33088 67.16493"><defs><style>.cls-1{fill:#62cde0;}.cls-2{fill:#ca7d66;}.cls-3{fill:#fff;}</style></defs><title>Asset 2</title><g id="Layer_2" data-name="Layer 2"><g id="White"><g id="marketr"><g id="Chat_Bubble" data-name="Chat Bubble"><rect class="cls-1" x="264.94045" y="31.90358" width="14.39043" height="3.35777"/><rect class="cls-1" x="262.54205" y="14.92283" width="14.39043" height="3.35777"/><path class="cls-1" d="M263.18482,42.05843V45.4162h8.95085v.19187a7.96362,7.96362,0,0,1-7.93877,7.93872h-32.364c.17748,3.31934,1.367,7.85238,4.9551,13.61814-1.87076-.03358-.542,0-2.3984,0a5.47557,5.47557,0,0,1-3.56883-1.93316c-3.18508-3.1563-6.14471-9.30581-7.54543-11.685H219.3084a7.96362,7.96362,0,0,1-7.93877-7.93872V25.826h2.08186V22.46821h-2.08186V7.93867A7.96361,7.96361,0,0,1,219.3084,0h44.8885a7.96361,7.96361,0,0,1,7.93877,7.93867V42.05843Z"/><path class="cls-2" d="M267.33886,42.05843V7.93867A7.96361,7.96361,0,0,0,259.40009,0h-44.8885a7.96361,7.96361,0,0,0-7.93877,7.93867V22.46821h6.87867V25.826h-6.87867V45.60807a7.96362,7.96362,0,0,0,7.93877,7.93872h3.96691c2.95968,5.027,7.66535,11.38278,13.51266,13.61814h2.3984c-6.44216-8.29853-7.23839-11.4212-7.35351-13.61814h32.364a7.96362,7.96362,0,0,0,7.93877-7.93872V45.4162h-4.154V42.05843Z"/><rect class="cls-2" x="197.44727" y="9.75829" width="14.39043" height="3.35777"/><rect class="cls-2" x="201.28472" y="36.86027" width="7.19521" height="3.35777"/><path class="cls-3" d="M231.32324,20.44861a1.15976,1.15976,0,0,0-1.30273-1.30371h-2.36914V12.74939h6.87012c2.665,0,4.02637,1.125,4.02637,3.67188v1.77637a13.81925,13.81925,0,0,1-.11816,1.89551h.11816c1.3623-4.32324,4.97461-7.75781,9.59375-7.75781a9.684,9.684,0,0,1,1.3623.11816v7.40234a13.39018,13.39018,0,0,0-1.83594-.11816,8.50151,8.50151,0,0,0-8.23145,6.33594,18.259,18.259,0,0,0-.65137,4.916V42.95154h-7.46191Z"/></g><g id="market"><path class="cls-3" d="M3.67188,21.60388a1.15976,1.15976,0,0,0-1.30273-1.30371H0V13.90466H6.92871c2.665,0,3.96777,1.24414,3.96777,3.376v.8877c0,.65137-.05859,1.30273-.05859,1.30273h.11816a11.24422,11.24422,0,0,1,9.77148-6.27637c4.55957,0,7.52051,2.13184,8.82324,6.21777h.11816A11.66588,11.66588,0,0,1,39.97363,13.1947c6.27734,0,9.88965,3.55273,9.88965,11.48828V36.46716A1.18478,1.18478,0,0,0,51.166,37.76989h2.30957v6.33691H46.36914c-2.84277,0-4.02734-1.18457-4.02734-4.02734V26.10388c0-3.43457-.65137-6.04-4.14453-6.04-3.73145,0-6.39648,3.13867-7.22461,6.92871a13.18742,13.18742,0,0,0-.47461,3.84961V44.10681H22.97754V26.10388c0-3.25684-.47363-6.04-4.08594-6.04-3.79,0-6.33691,3.13867-7.28418,6.9873a15.46152,15.46152,0,0,0-.47363,3.791V44.10681H3.67188Z"/><path class="cls-3" d="M74.49316,25.15661h.94824v-.2373c0-4.32227-1.71777-5.92187-5.56738-5.92187-1.36133,0-4.02637.35547-4.02637,2.01367v1.59863H58.85938V19.41247c0-5.626,7.93555-6.21777,11.07422-6.21777,10.06738,0,13.02832,5.27051,13.02832,12.02148v11.251a1.18478,1.18478,0,0,0,1.30273,1.30273h2.36914v6.33691h-6.751c-2.78418,0-3.84961-1.54-3.84961-3.31641a12.98459,12.98459,0,0,1,.05957-1.30273h-.11914a9.83149,9.83149,0,0,1-9.11914,5.33008c-5.38965,0-10.30469-3.376-10.30469-9.416C56.5498,25.92614,69.57813,25.15661,74.49316,25.15661ZM68.68945,38.95447c4.02734,0,6.87012-4.26367,6.87012-7.93555v-.71H74.25684c-3.90918,0-10.127.5332-10.127,4.7373C64.12988,37.05993,65.61035,38.95447,68.68945,38.95447Z"/><path class="cls-3" d="M92.6709,21.60388a1.15976,1.15976,0,0,0-1.30273-1.30371H88.999V13.90466h6.87012c2.665,0,4.02637,1.125,4.02637,3.67188V19.3529a13.81926,13.81926,0,0,1-.11816,1.89551h.11816c1.3623-4.32324,4.97461-7.75781,9.59375-7.75781a9.684,9.684,0,0,1,1.3623.11816v7.40234a13.39018,13.39018,0,0,0-1.83594-.11816,8.50151,8.50151,0,0,0-8.23145,6.33594,18.259,18.259,0,0,0-.65137,4.916V44.10681H92.6709Z"/><path class="cls-3" d="M116.23828,9.75915a1.15985,1.15985,0,0,0-1.30273-1.30273h-2.36914V2.06091h7.165c2.78418,0,4.02734.65137,4.02734,3.43457V24.56482h2.25a3.32982,3.32982,0,0,0,2.84277-1.126l6.15918-9.53418h8.34961L135.7207,25.27478a7.30054,7.30054,0,0,1-2.25,2.36914v.11816a5.02917,5.02917,0,0,1,2.13184,2.36914l3.43457,6.51367c.47363.88867,1.06641,1.125,2.4873,1.125h2.01367v6.33691h-5.56641c-2.54687,0-3.55371-.41406-4.73828-2.60547l-5.0332-9.47559c-.5918-1.06543-1.83594-1.125-2.7832-1.125h-1.6582V44.10681h-7.52051Z"/><path class="cls-3" d="M161.06348,13.1947c8.64648,0,13.38379,6.33594,13.38379,14.33105,0,.8877-.17773,2.7832-.17773,2.7832H153.4248a8.68436,8.68436,0,0,0,9.06055,8.11328,13.72531,13.72531,0,0,0,8.46777-3.376l3.13867,5.21094a18.368,18.368,0,0,1-12.13965,4.56055c-10.00781,0-16.22559-7.22461-16.22559-15.81152C145.72656,19.70837,152.00293,13.1947,161.06348,13.1947ZM166.749,25.097c-.11816-3.6123-2.60547-6.09961-5.68555-6.09961a7.23762,7.23762,0,0,0-7.40234,6.09961Z"/><path class="cls-3" d="M181.8457,19.88611h-3.9082V13.90466h4.08594V5.67322h7.34375v8.23145h6.86914v5.98145h-6.86914V32.08532c0,4.97461,3.9082,5.68457,5.98145,5.68457a6.9293,6.9293,0,0,0,1.36133-.11816V44.225a13.83047,13.83047,0,0,1-2.30957.17773c-4.2041,0-12.55469-1.24316-12.55469-11.37012Z"/></g></g></g></g></svg>