<svg xmlns="http://www.w3.org/2000/svg" viewBox="0 0 868.69 586.89"><defs><style>.cls-1{fill:#fff;}.cls-2{fill:#e2e2e2;}.cls-3{fill:#cafaff;}.cls-4{fill:#273f75;}.cls-5{fill:#83e2fc;}.cls-6{fill:#ffbd4a;}.cls-7{fill:#baf1ff;}.cls-8{fill:#e1e1e1;}</style></defs><title>booster</title><g id="Layer_1" data-name="Layer 1"><rect class="cls-1" x="39.64" y="389.94" width="751.5" height="173.8" rx="86.03"/><path class="cls-2" d="M945.93,747.57h-.63a6,6,0,0,1,0-12h.63a80.8,80.8,0,0,0,10.55-.69,6,6,0,0,1,1.56,11.9A92.36,92.36,0,0,1,945.93,747.57Zm-30.63,0h-12a6,6,0,0,1,0-12h12a6,6,0,0,1,0,12Zm-42,0h-12a6,6,0,0,1,0-12h12a6,6,0,0,1,0,12Zm-42,0h-12a6,6,0,0,1,0-12h12a6,6,0,0,1,0,12Zm-42,0h-12a6,6,0,0,1,0-12h12a6,6,0,0,1,0,12Zm-42,0h-12a6,6,0,0,1,0-12h12a6,6,0,0,1,0,12Zm-42,0h-12a6,6,0,0,1,0-12h12a6,6,0,0,1,0,12Zm-42,0h-12a6,6,0,0,1,0-12h12a6,6,0,0,1,0,12Zm-42,0h-12a6,6,0,0,1,0-12h12a6,6,0,0,1,0,12Zm-42,0h-12a6,6,0,0,1,0-12h12a6,6,0,0,1,0,12Zm-42,0h-12a6,6,0,0,1,0-12h12a6,6,0,0,1,0,12Zm-42,0h-12a6,6,0,0,1,0-12h12a6,6,0,1,1,0,12Zm-42,0h-12a6,6,0,0,1,0-12h12a6,6,0,1,1,0,12Zm-42,0h-12a6,6,0,0,1,0-12h12a6,6,0,1,1,0,12Zm-42,0h-2.81a94,94,0,0,1-9.8-.51A6,6,0,0,1,358,735.12a81,81,0,0,0,8.54.45h2.81a6,6,0,1,1,0,12Zm-40.66-8.75a5.92,5.92,0,0,1-2.63-.61,92.69,92.69,0,0,1-11.09-6.43,6,6,0,0,1,6.73-9.94,80.59,80.59,0,0,0,9.64,5.6,6,6,0,0,1-2.65,11.38Zm657.08-1a6,6,0,0,1-2.78-11.32,81.22,81.22,0,0,0,9.5-5.84,6,6,0,0,1,7,9.76,93.39,93.39,0,0,1-10.93,6.72A6,6,0,0,1,985.72,737.84ZM296.85,712.05a6,6,0,0,1-4.86-2.47,92.06,92.06,0,0,1-6.8-10.88,6,6,0,0,1,10.59-5.63,80,80,0,0,0,5.92,9.46,6,6,0,0,1-4.85,9.52Zm720-1.78a6,6,0,0,1-4.94-9.41,80.37,80.37,0,0,0,5.67-9.6,6,6,0,1,1,10.73,5.37,92.17,92.17,0,0,1-6.52,11A6,6,0,0,1,1016.84,710.27ZM281.28,673.5a6,6,0,0,1-5.94-5.18,92.18,92.18,0,0,1-.88-12.78,6,6,0,0,1,4-5.64,6,6,0,0,1-3.42-6.08,91.3,91.3,0,0,1,2.27-12.63,6,6,0,0,1,11.63,2.94,79.63,79.63,0,0,0-2,11,6,6,0,0,1-3.93,5,6,6,0,0,1,3.46,5.44,80.88,80.88,0,0,0,.77,11.13,6,6,0,0,1-5.12,6.77A5.9,5.9,0,0,1,281.28,673.5Zm750.13-2.16a5.27,5.27,0,0,1-.68,0,6,6,0,0,1-5.28-6.64,81.32,81.32,0,0,0,.51-9.12V653.4a6,6,0,0,1,6-6h0a6,6,0,0,1,6,6v2.22a93.54,93.54,0,0,1-.59,10.47A6,6,0,0,1,1031.41,671.34ZM1026.66,630a6,6,0,0,1-5.63-3.92,82,82,0,0,0-4.59-10.17,6,6,0,0,1,10.56-5.68,90.76,90.76,0,0,1,5.28,11.69,6,6,0,0,1-5.62,8.08ZM295.31,611.45a6,6,0,0,1-4.95-9.37A91.66,91.66,0,0,1,298.29,592a6,6,0,1,1,8.89,8.06,79.79,79.79,0,0,0-6.9,8.76A6,6,0,0,1,295.31,611.45Zm707.92-15.82a6,6,0,0,1-4-1.52,80.5,80.5,0,0,0-8.81-6.84,6,6,0,1,1,6.68-10,92.56,92.56,0,0,1,10.12,7.86,6,6,0,0,1-4,10.47ZM326.3,583.72a6,6,0,0,1-2.81-11.3,92.19,92.19,0,0,1,11.73-5.2,6,6,0,1,1,4.08,11.29A79.07,79.07,0,0,0,329.1,583,6,6,0,0,1,326.3,583.72Zm640.17-7.48a5.9,5.9,0,0,1-1.43-.18,79.6,79.6,0,0,0-11-1.88,6,6,0,0,1,1.2-11.94,92.47,92.47,0,0,1,12.64,2.17,6,6,0,0,1-1.42,11.83Zm-41.8-2.47h-12a6,6,0,0,1,0-12h12a6,6,0,1,1,0,12Zm-42,0h-12a6,6,0,0,1,0-12h12a6,6,0,1,1,0,12Zm-42,0h-12a6,6,0,0,1,0-12h12a6,6,0,1,1,0,12Zm-42,0h-12a6,6,0,0,1,0-12h12a6,6,0,1,1,0,12Zm-42,0h-12a6,6,0,0,1,0-12h12a6,6,0,1,1,0,12Zm-42,0h-12a6,6,0,0,1,0-12h12a6,6,0,1,1,0,12Zm-42,0h-12a6,6,0,0,1,0-12h12a6,6,0,1,1,0,12Zm-42,0h-12a6,6,0,0,1,0-12h12a6,6,0,1,1,0,12Zm-42,0h-12a6,6,0,0,1,0-12h12a6,6,0,1,1,0,12Zm-42,0h-12a6,6,0,0,1,0-12h12a6,6,0,1,1,0,12Zm-42,0h-12a6,6,0,0,1,0-12h12a6,6,0,1,1,0,12Zm-42,0h-12a6,6,0,0,1,0-12h12a6,6,0,1,1,0,12Zm-42,0h-12a6,6,0,0,1,0-12h12a6,6,0,1,1,0,12Zm-42,0h-12a6,6,0,0,1,0-12h12a6,6,0,1,1,0,12Z" transform="translate(-240.82 -177.83)"/><rect class="cls-1" x="75.71" y="211.84" width="751.5" height="173.8" rx="86.03"/><path class="cls-2" d="M982,569.47h-.63a6,6,0,0,1,0-12H982a80.8,80.8,0,0,0,10.55-.69,6,6,0,0,1,1.56,11.9A94.12,94.12,0,0,1,982,569.47Zm-30.63,0h-12a6,6,0,0,1,0-12h12a6,6,0,1,1,0,12Zm-42,0h-12a6,6,0,0,1,0-12h12a6,6,0,1,1,0,12Zm-42,0h-12a6,6,0,0,1,0-12h12a6,6,0,1,1,0,12Zm-42,0h-12a6,6,0,0,1,0-12h12a6,6,0,1,1,0,12Zm-42,0h-12a6,6,0,0,1,0-12h12a6,6,0,1,1,0,12Zm-42,0h-12a6,6,0,0,1,0-12h12a6,6,0,1,1,0,12Zm-42,0h-12a6,6,0,0,1,0-12h12a6,6,0,1,1,0,12Zm-42,0h-12a6,6,0,0,1,0-12h12a6,6,0,1,1,0,12Zm-42,0h-12a6,6,0,0,1,0-12h12a6,6,0,1,1,0,12Zm-42,0h-12a6,6,0,0,1,0-12h12a6,6,0,1,1,0,12Zm-42,0h-12a6,6,0,0,1,0-12h12a6,6,0,1,1,0,12Zm-42,0h-12a6,6,0,0,1,0-12h12a6,6,0,1,1,0,12Zm-42,0h-12a6,6,0,0,1,0-12h12a6,6,0,0,1,0,12Zm-42,0h-2.81a91.69,91.69,0,0,1-9.81-.52A6,6,0,0,1,394,557a81,81,0,0,0,8.54.45h2.81a6,6,0,0,1,0,12Zm-40.66-8.75a6,6,0,0,1-2.64-.61A93.36,93.36,0,0,1,351,553.68a6,6,0,0,1,6.73-9.94,79.81,79.81,0,0,0,9.64,5.6,6,6,0,0,1-2.65,11.38Zm657.08-1a6,6,0,0,1-2.78-11.32,81.22,81.22,0,0,0,9.5-5.84,6,6,0,1,1,7,9.76,92,92,0,0,1-10.93,6.71A5.86,5.86,0,0,1,1021.79,559.74ZM332.92,534a6,6,0,0,1-4.86-2.47,92.88,92.88,0,0,1-6.8-10.88A6,6,0,0,1,331.85,515a80,80,0,0,0,5.92,9.46,6,6,0,0,1-4.85,9.52Zm720-1.79a6,6,0,0,1-4.94-9.4,79.76,79.76,0,0,0,5.66-9.6,6,6,0,0,1,10.74,5.37,93.52,93.52,0,0,1-6.52,11A6,6,0,0,1,1052.91,532.16ZM317.34,495.4a6,6,0,0,1-5.93-5.18,92.18,92.18,0,0,1-.88-12.78,6,6,0,0,1,4-5.64,6,6,0,0,1-3.42-6.08,91.3,91.3,0,0,1,2.27-12.63A6,6,0,0,1,325,456a79.78,79.78,0,0,0-2,11,6,6,0,0,1-3.92,5,6,6,0,0,1,3.46,5.44,82.47,82.47,0,0,0,.76,11.13,6,6,0,0,1-5.11,6.77A5.93,5.93,0,0,1,317.34,495.4Zm750.14-2.16a5.27,5.27,0,0,1-.68,0,6,6,0,0,1-5.29-6.64,79.28,79.28,0,0,0,.52-9.12V475.3a6,6,0,0,1,6-6h0a6,6,0,0,1,6,6v2.22a93.67,93.67,0,0,1-.59,10.47A6,6,0,0,1,1067.48,493.24Zm-4.76-41.35a6,6,0,0,1-5.63-3.92,80.51,80.51,0,0,0-4.58-10.17,6,6,0,0,1,10.56-5.69,92.28,92.28,0,0,1,5.28,11.7,6,6,0,0,1-5.63,8.08ZM331.38,433.35a6,6,0,0,1-4.95-9.37,91.41,91.41,0,0,1,7.93-10.07,6,6,0,1,1,8.89,8.06,78.61,78.61,0,0,0-6.9,8.76A6,6,0,0,1,331.38,433.35Zm707.92-15.82a6,6,0,0,1-4-1.53,80.69,80.69,0,0,0-8.81-6.83,6,6,0,0,1,6.68-10,91.46,91.46,0,0,1,10.13,7.86,6,6,0,0,1-4,10.47ZM362.37,405.62a6,6,0,0,1-2.82-11.31,93.69,93.69,0,0,1,11.74-5.19,6,6,0,1,1,4.08,11.28,79.29,79.29,0,0,0-10.2,4.52A6,6,0,0,1,362.37,405.62Zm640.17-7.48a5.84,5.84,0,0,1-1.43-.18,79.85,79.85,0,0,0-11-1.88,6,6,0,1,1,1.2-11.94,89.75,89.75,0,0,1,12.64,2.17,6,6,0,0,1-1.42,11.83Zm-41.8-2.47h-12a6,6,0,0,1,0-12h12a6,6,0,0,1,0,12Zm-42,0h-12a6,6,0,0,1,0-12h12a6,6,0,0,1,0,12Zm-42,0h-12a6,6,0,0,1,0-12h12a6,6,0,0,1,0,12Zm-42,0h-12a6,6,0,0,1,0-12h12a6,6,0,0,1,0,12Zm-42,0h-12a6,6,0,0,1,0-12h12a6,6,0,0,1,0,12Zm-42,0h-12a6,6,0,0,1,0-12h12a6,6,0,0,1,0,12Zm-42,0h-12a6,6,0,0,1,0-12h12a6,6,0,0,1,0,12Zm-42,0h-12a6,6,0,0,1,0-12h12a6,6,0,0,1,0,12Zm-42,0h-12a6,6,0,0,1,0-12h12a6,6,0,0,1,0,12Zm-42,0h-12a6,6,0,0,1,0-12h12a6,6,0,0,1,0,12Zm-42,0h-12a6,6,0,0,1,0-12h12a6,6,0,0,1,0,12Zm-42,0h-12a6,6,0,0,1,0-12h12a6,6,0,0,1,0,12Zm-42,0h-12a6,6,0,0,1,0-12h12a6,6,0,0,1,0,12Zm-42,0h-12a6,6,0,0,1,0-12h12a6,6,0,0,1,0,12Z" transform="translate(-240.82 -177.83)"/><rect class="cls-1" x="6" y="35.56" width="751.5" height="173.8" rx="86.03"/><path class="cls-2" d="M912.29,393.19h-.64a6,6,0,0,1,0-12h.64a82.57,82.57,0,0,0,10.55-.68,6,6,0,1,1,1.56,11.89A92.36,92.36,0,0,1,912.29,393.19Zm-30.64,0h-12a6,6,0,0,1,0-12h12a6,6,0,0,1,0,12Zm-42,0h-12a6,6,0,0,1,0-12h12a6,6,0,0,1,0,12Zm-42,0h-12a6,6,0,0,1,0-12h12a6,6,0,0,1,0,12Zm-42,0h-12a6,6,0,0,1,0-12h12a6,6,0,0,1,0,12Zm-42,0h-12a6,6,0,0,1,0-12h12a6,6,0,0,1,0,12Zm-42,0h-12a6,6,0,0,1,0-12h12a6,6,0,0,1,0,12Zm-42,0h-12a6,6,0,0,1,0-12h12a6,6,0,0,1,0,12Zm-42,0h-12a6,6,0,0,1,0-12h12a6,6,0,0,1,0,12Zm-42,0h-12a6,6,0,0,1,0-12h12a6,6,0,0,1,0,12Zm-42,0h-12a6,6,0,0,1,0-12h12a6,6,0,0,1,0,12Zm-42,0h-12a6,6,0,0,1,0-12h12a6,6,0,0,1,0,12Zm-42,0h-12a6,6,0,0,1,0-12h12a6,6,0,0,1,0,12Zm-42,0h-12a6,6,0,0,1,0-12h12a6,6,0,0,1,0,12Zm-42,0h-2.8a94.08,94.08,0,0,1-9.81-.51,6,6,0,0,1,1.27-11.94,80.86,80.86,0,0,0,8.54.45h2.8a6,6,0,0,1,0,12ZM295,384.45a5.94,5.94,0,0,1-2.64-.62,92,92,0,0,1-11.08-6.43,6,6,0,0,1,6.73-9.94,79.26,79.26,0,0,0,9.64,5.6A6,6,0,0,1,295,384.45Zm657.08-1a6,6,0,0,1-2.78-11.32,79.89,79.89,0,0,0,9.5-5.84,6,6,0,0,1,7,9.76,94.22,94.22,0,0,1-10.93,6.72A6,6,0,0,1,952.08,383.46ZM263.21,357.68a6,6,0,0,1-4.86-2.48,91.94,91.94,0,0,1-6.8-10.87,6,6,0,1,1,10.59-5.64,81.27,81.27,0,0,0,5.91,9.46,6,6,0,0,1-4.84,9.53Zm720-1.79a5.93,5.93,0,0,1-3.39-1.06,6,6,0,0,1-1.54-8.34,80.54,80.54,0,0,0,5.66-9.6,6,6,0,0,1,10.74,5.36,93.52,93.52,0,0,1-6.52,11A6,6,0,0,1,983.19,355.89ZM247.63,319.12A6,6,0,0,1,241.7,314a92.43,92.43,0,0,1-.88-12.79,6,6,0,0,1,4-5.64,6,6,0,0,1-3.42-6.08,92.93,92.93,0,0,1,2.26-12.62,6,6,0,0,1,11.64,2.94,79.78,79.78,0,0,0-2,11,6,6,0,0,1-3.92,5,6,6,0,0,1,3.46,5.43,80.87,80.87,0,0,0,.76,11.13,6,6,0,0,1-6,6.83ZM997.77,317a5.27,5.27,0,0,1-.68,0,6,6,0,0,1-5.29-6.63,81.64,81.64,0,0,0,.52-9.13V299a6,6,0,1,1,12-.08v2.21a93.85,93.85,0,0,1-.59,10.48A6,6,0,0,1,997.77,317ZM993,275.62a6,6,0,0,1-5.63-3.93,78.44,78.44,0,0,0-4.59-10.16,6,6,0,0,1,10.57-5.69,92.15,92.15,0,0,1,5.28,11.69,6,6,0,0,1-3.55,7.71A5.83,5.83,0,0,1,993,275.62ZM261.67,257.08a6,6,0,0,1-4.95-9.38,91.41,91.41,0,0,1,7.93-10.07,6,6,0,1,1,8.89,8.06,79.54,79.54,0,0,0-6.9,8.76A6,6,0,0,1,261.67,257.08Zm707.92-15.83a6,6,0,0,1-4-1.52,79.56,79.56,0,0,0-8.81-6.84,6,6,0,0,1,6.68-10,92.67,92.67,0,0,1,10.13,7.86,6,6,0,0,1-4,10.47ZM292.66,229.34a6,6,0,0,1-2.82-11.3,92.32,92.32,0,0,1,11.74-5.2,6,6,0,0,1,4.08,11.29,80.64,80.64,0,0,0-10.2,4.51A5.93,5.93,0,0,1,292.66,229.34Zm640.17-7.48a6.44,6.44,0,0,1-1.44-.17,79.74,79.74,0,0,0-11-1.89,6,6,0,0,1,1.2-11.94A93,93,0,0,1,934.25,210a6,6,0,0,1-1.42,11.83ZM891,219.39H879a6,6,0,0,1,0-12h12a6,6,0,0,1,0,12Zm-42,0H837a6,6,0,0,1,0-12h12a6,6,0,0,1,0,12Zm-42,0H795a6,6,0,0,1,0-12h12a6,6,0,0,1,0,12Zm-42,0H753a6,6,0,0,1,0-12h12a6,6,0,0,1,0,12Zm-42,0H711a6,6,0,0,1,0-12h12a6,6,0,0,1,0,12Zm-42,0H669a6,6,0,0,1,0-12h12a6,6,0,0,1,0,12Zm-42,0H627a6,6,0,0,1,0-12h12a6,6,0,0,1,0,12Zm-42,0H585a6,6,0,0,1,0-12h12a6,6,0,0,1,0,12Zm-42,0H543a6,6,0,0,1,0-12h12a6,6,0,0,1,0,12Zm-42,0H501a6,6,0,0,1,0-12h12a6,6,0,0,1,0,12Zm-42,0H459a6,6,0,0,1,0-12h12a6,6,0,0,1,0,12Zm-42,0H417a6,6,0,0,1,0-12h12a6,6,0,0,1,0,12Zm-42,0H375a6,6,0,0,1,0-12h12a6,6,0,0,1,0,12Zm-42,0H333a6,6,0,0,1,0-12h12a6,6,0,0,1,0,12Z" transform="translate(-240.82 -177.83)"/><rect class="cls-1" x="6" y="214.11" width="227.97" height="170.69"/><rect class="cls-1" x="640.72" y="390.37" width="227.97" height="155.62"/><rect class="cls-1" x="405.99" width="408.13" height="205.01"/><circle class="cls-1" cx="991.41" cy="740.44" r="18.29" transform="translate(-336.36 -28.73) rotate(-8.21)"/><path class="cls-2" d="M991.41,764.73a24.29,24.29,0,1,1,24.29-24.29A24.32,24.32,0,0,1,991.41,764.73Zm0-36.58a12.29,12.29,0,1,0,12.29,12.29A12.3,12.3,0,0,0,991.41,728.15Z" transform="translate(-240.82 -177.83)"/><circle class="cls-1" cx="428.4" cy="36.93" r="18.29"/><path class="cls-2" d="M669.21,239.05a24.29,24.29,0,1,1,24.29-24.29A24.32,24.32,0,0,1,669.21,239.05Zm0-36.58a12.29,12.29,0,1,0,12.29,12.29A12.31,12.31,0,0,0,669.21,202.47Z" transform="translate(-240.82 -177.83)"/><path class="cls-3" d="M666.41,712.08A223.86,223.86,0,1,1,890,477.76c.16,3.4.24,6.92.24,10.46A223.85,223.85,0,0,1,666.41,712.08Z" transform="translate(-240.82 -177.83)"/><path class="cls-4" d="M666.41,270.36C783.31,270.36,878.7,362.45,884,478q.24,5.06.24,10.18c0,120.32-97.53,217.86-217.85,217.86A217.76,217.76,0,0,1,448.55,488.22c0-120.32,97.53-217.86,217.86-217.86m0-12A229.91,229.91,0,0,0,469.53,606.92,229.75,229.75,0,0,0,666.41,718.08,229.68,229.68,0,0,0,896.26,488.22c0-3.64-.08-7.26-.25-10.75a229.87,229.87,0,0,0-229.6-219.11Z" transform="translate(-240.82 -177.83)"/><path class="cls-5" d="M885.8,488.29c0,120.32-97.54,217.86-217.85,217.86A217.75,217.75,0,0,1,481.33,600.78c88-122,275.22-41.7,275.22-41.7,29.45-67.44,87.71-80.87,129-81C885.72,481.48,885.8,484.87,885.8,488.29Z" transform="translate(-240.82 -177.83)"/><path class="cls-1" d="M838.52,319.74h-91.2c2.45-21.87,21.93-38.89,45.6-38.89S836.07,297.87,838.52,319.74Z" transform="translate(-240.82 -177.83)"/><path class="cls-4" d="M838.54,325.74H747.32a6,6,0,0,1-6-6.67c2.83-25.21,25-44.22,51.56-44.22,26.38,0,48.42,18.74,51.5,43.69a6,6,0,0,1-5.88,7.2Zm-83.86-12h76.48c-4.89-15.72-20.25-26.89-38.24-26.89S759.57,298,754.68,313.74Z" transform="translate(-240.82 -177.83)"/><path class="cls-1" d="M747.87,650.61h-70c1.88-16.79,16.84-29.87,35-29.87S746,633.82,747.87,650.61Z" transform="translate(-240.82 -177.83)"/><path class="cls-4" d="M747.89,656.61H677.83a6,6,0,0,1-6-6.67c2.25-20.06,19.87-35.2,41-35.2,20.92,0,38.42,14.87,40.92,34.66a6,6,0,0,1-5.88,7.21Zm-62.44-12h54.8c-4.14-10.54-14.9-17.87-27.4-17.87S689.59,634.07,685.45,644.61Z" transform="translate(-240.82 -177.83)"/><path class="cls-1" d="M992.15,442.66C883.92,475,706,518.56,706,518.56s-136.07,24.32-153.09,1.66S478.45,411.4,478.45,411.4L521,400.11l122.42,46.14,316.4-83.9s1.19-.24,3.34-.63c15.07-2.62,77.5-12.05,111,5.84,8.37,4.48,14.93,10.66,18.48,19.08C1092.62,386.64,1100.36,410.3,992.15,442.66Z" transform="translate(-240.82 -177.83)"/><path class="cls-4" d="M597,535.88c-27.19,0-42.73-3.83-48.91-12.06-16.94-22.53-72.26-105.57-74.61-109.09a6,6,0,0,1,3.46-9.13l42.56-11.29a6,6,0,0,1,3.66.19L643.75,440l314.54-83.41.34-.08s1.25-.26,3.48-.65a339.51,339.51,0,0,1,55-4.93c25.59,0,45.72,3.83,59.84,11.38,10.19,5.45,17.31,12.87,21.18,22a3.8,3.8,0,0,1,.18.47c.35,1.08,1.27,5.07-1.76,10.86-9,17.11-44.46,35.35-102.7,52.77-107.13,32-284.72,75.54-286.5,76l-.37.07C704.4,524.93,642.63,535.88,597,535.88ZM488.1,415.05c14,21,55.65,83.07,69.56,101.57,1.28,1.7,7.89,7.26,39.31,7.26,43.39,0,104-10.53,107.74-11.2,6.73-1.64,180.43-44.27,285.72-75.76,88.67-26.52,95.72-46,96.27-48.84-2.89-6.25-7.93-11.24-15.39-15.23-12.36-6.61-30.59-10-54.18-10a328.55,328.55,0,0,0-52.94,4.74l-3,.56L645,452.05a6,6,0,0,1-3.66-.19L520.69,406.41Z" transform="translate(-240.82 -177.83)"/><polygon class="cls-6" points="261.69 261.26 290.88 306.55 303.24 293.87 300.91 285.09 275.27 252.97 261.69 261.26"/><path class="cls-6" d="M987.82,438.86c-105.07,31.25-277.74,73.65-277.74,73.65s-108.77,19.89-140.89,8l515.52-136.71c.34.64.66,1.32,1,2C1085.66,385.81,1092.87,407.62,987.82,438.86Z" transform="translate(-240.82 -177.83)"/><line class="cls-1" x1="683.4" y1="229.49" x2="682.64" y2="226.56"/><path class="cls-4" d="M924.21,413.32a6,6,0,0,1-5.8-4.49l-.76-2.93a6,6,0,0,1,11.61-3l.76,2.93a6,6,0,0,1-4.29,7.32A6.15,6.15,0,0,1,924.21,413.32Z" transform="translate(-240.82 -177.83)"/><line class="cls-1" x1="656.24" y1="236.37" x2="655.48" y2="233.44"/><path class="cls-4" d="M897.06,420.2a6,6,0,0,1-5.81-4.49l-.76-2.93a6,6,0,1,1,11.61-3l.77,2.93a6,6,0,0,1-5.81,7.51Z" transform="translate(-240.82 -177.83)"/><line class="cls-1" x1="628.49" y1="243.4" x2="627.73" y2="240.47"/><path class="cls-4" d="M869.31,427.24a6,6,0,0,1-5.81-4.49l-.76-2.93a6,6,0,0,1,11.61-3l.77,2.94a6,6,0,0,1-4.3,7.31A6.09,6.09,0,0,1,869.31,427.24Z" transform="translate(-240.82 -177.83)"/><line class="cls-1" x1="600.86" y1="250.73" x2="600.1" y2="247.8"/><path class="cls-4" d="M841.68,434.56a6,6,0,0,1-5.81-4.49l-.76-2.93a6,6,0,0,1,11.62-3l.76,2.93a6,6,0,0,1-5.81,7.51Z" transform="translate(-240.82 -177.83)"/><line class="cls-1" x1="573.11" y1="257.76" x2="572.35" y2="254.83"/><path class="cls-4" d="M813.93,441.6a6,6,0,0,1-5.81-4.49l-.76-2.93a6,6,0,1,1,11.61-3l.77,2.93a6,6,0,0,1-4.3,7.31A5.6,5.6,0,0,1,813.93,441.6Z" transform="translate(-240.82 -177.83)"/><line class="cls-1" x1="546.06" y1="265.1" x2="545.3" y2="262.17"/><path class="cls-4" d="M786.88,448.93a6,6,0,0,1-5.81-4.49l-.76-2.93a6,6,0,0,1,11.61-3l.77,2.93a6,6,0,0,1-4.3,7.32A6.13,6.13,0,0,1,786.88,448.93Z" transform="translate(-240.82 -177.83)"/><line class="cls-1" x1="518.44" y1="272.43" x2="517.67" y2="269.5"/><path class="cls-4" d="M759.25,456.26a6,6,0,0,1-5.8-4.49l-.77-2.93a6,6,0,1,1,11.62-3l.76,2.93a6,6,0,0,1-5.81,7.51Z" transform="translate(-240.82 -177.83)"/><line class="cls-1" x1="490.68" y1="279.46" x2="489.92" y2="276.53"/><path class="cls-4" d="M731.5,463.3a6,6,0,0,1-5.81-4.5l-.76-2.93a6,6,0,0,1,11.62-3l.76,2.93a6,6,0,0,1-4.3,7.32A6.09,6.09,0,0,1,731.5,463.3Z" transform="translate(-240.82 -177.83)"/><line class="cls-1" x1="436.85" y1="293.9" x2="436.08" y2="290.97"/><path class="cls-4" d="M677.66,477.73a6,6,0,0,1-5.8-4.49l-.77-2.93a6,6,0,0,1,11.62-3l.76,2.93a6,6,0,0,1-5.81,7.51Z" transform="translate(-240.82 -177.83)"/><path class="cls-7" d="M1074.14,367.56,974.54,394a14.41,14.41,0,0,1-17.63-10.23l-1.41-5.33a14.43,14.43,0,0,1,7.67-16.69C978.24,359.1,1040.67,349.67,1074.14,367.56Z" transform="translate(-240.82 -177.83)"/><path class="cls-4" d="M970.83,400.46a20.43,20.43,0,0,1-19.72-15.19l-1.41-5.33a20.42,20.42,0,0,1,10.87-23.62,6.14,6.14,0,0,1,1.57-.51,340.15,340.15,0,0,1,55-4.92c25.59,0,45.72,3.83,59.84,11.38a6,6,0,0,1-1.29,11.09l-99.6,26.41A20.29,20.29,0,0,1,970.83,400.46Zm-5.71-33a8.44,8.44,0,0,0-3.82,9.4l1.41,5.33a8.38,8.38,0,0,0,10.29,6l81.26-21.54c-10.3-2.48-22.71-3.74-37.13-3.74A328.6,328.6,0,0,0,965.12,367.47Z" transform="translate(-240.82 -177.83)"/><path class="cls-8" d="M938.07,487c2,7.53-3.76,15.58-12.86,18L863,521.48c-9.1,2.41-18.1-1.74-20.09-9.27l-4.42-16.66c-2-7.53,3.76-15.58,12.86-18l62.22-16.5c9.1-2.41,18.1,1.74,20.09,9.27Z" transform="translate(-240.82 -177.83)"/><path class="cls-4" d="M857.78,528.17c-10.08,0-18.39-5.8-20.68-14.42l-4.42-16.66c-2.84-10.71,4.84-22.08,17.12-25.34L912,455.25a26.2,26.2,0,0,1,6.74-.88c10.08,0,18.39,5.79,20.68,14.41l4.42,16.66c2.84,10.71-4.84,22.08-17.12,25.34l-62.23,16.5A26.22,26.22,0,0,1,857.78,528.17Zm61-61.8a14.45,14.45,0,0,0-3.67.48l-62.22,16.5c-5.79,1.54-9.73,6.42-8.6,10.66l4.42,16.67c.85,3.23,4.59,5.49,9.08,5.49a14.47,14.47,0,0,0,3.67-.49l62.22-16.5c5.79-1.54,9.73-6.42,8.6-10.67l-4.42-16.66C927,468.62,923.26,466.37,918.77,466.37Z" transform="translate(-240.82 -177.83)"/><path class="cls-1" d="M725.39,510.46a16.56,16.56,0,0,0,20.26,11.77l144.59-38.34A16.57,16.57,0,0,0,902,463.63h0a16.56,16.56,0,0,0-20.26-11.77L737.16,490.2a16.56,16.56,0,0,0-11.77,20.26Z" transform="translate(-240.82 -177.83)"/><path class="cls-4" d="M741.39,528.79h0a22.57,22.57,0,0,1-5.77-44.39L880.2,446.06a22.57,22.57,0,0,1,11.58,43.63L747.19,528A22.8,22.8,0,0,1,741.39,528.79ZM886,457.3a10.48,10.48,0,0,0-2.72.36L738.69,496a10.57,10.57,0,0,0,2.7,20.79h0a10.48,10.48,0,0,0,2.72-.36L888.7,478.09A10.57,10.57,0,0,0,886,457.3Z" transform="translate(-240.82 -177.83)"/><line class="cls-1" x1="664.47" y1="285.41" x2="676.12" y2="329.34"/><path class="cls-4" d="M916.93,513.17a6,6,0,0,1-5.8-4.46l-11.64-43.93a6,6,0,1,1,11.59-3.07l11.65,43.92a6,6,0,0,1-4.26,7.34A5.87,5.87,0,0,1,916.93,513.17Z" transform="translate(-240.82 -177.83)"/><path class="cls-4" d="M552.92,476a6,6,0,0,1-4.72-2.29l-30.06-38.23-19.7,5.22a6,6,0,1,1-3.08-11.6l23.52-6.23a6,6,0,0,1,6.25,2.09l32.5,41.33a6,6,0,0,1-4.71,9.71Z" transform="translate(-240.82 -177.83)"/><path class="cls-1" d="M582.57,476.07a13.49,13.49,0,0,1-9.58,16.5l-64.52,17.11A13.48,13.48,0,0,1,492,500.09h0a13.49,13.49,0,0,1,9.58-16.5l64.51-17.1a13.49,13.49,0,0,1,16.5,9.58Z" transform="translate(-240.82 -177.83)"/><path class="cls-4" d="M505,516.13a19.49,19.49,0,0,1-5-38.33l64.52-17.11a19.23,19.23,0,0,1,5-.66,19.5,19.5,0,0,1,5,38.34L510,515.48A19.72,19.72,0,0,1,505,516.13ZM569.54,472a7.53,7.53,0,0,0-1.93.26l-64.51,17.1A7.5,7.5,0,0,0,505,504.13a8,8,0,0,0,1.93-.25l64.51-17.11A7.5,7.5,0,0,0,569.54,472Z" transform="translate(-240.82 -177.83)"/><path class="cls-1" d="M609.92,360.65c0,.6,0,1.2,0,1.79H428.68v-.6a24.33,24.33,0,0,1,31-23.51c0-.95-.08-1.91-.08-2.87A52.78,52.78,0,0,1,564.1,324.55a37,37,0,0,1,45.82,36.1Z" transform="translate(-240.82 -177.83)"/><path class="cls-4" d="M609.88,368.44H428.68a6,6,0,0,1-6-5.77c0-.27,0-.55,0-.83A30.43,30.43,0,0,1,453,331.39h.75a58.76,58.76,0,0,1,114.74-13.68,43.66,43.66,0,0,1,4.43-.23,43.13,43.13,0,0,1,43,43.17c0,.7,0,1.39,0,2.08A6,6,0,0,1,609.88,368.44Zm-174.4-12H603.64a31.1,31.1,0,0,0-30.7-27,30.66,30.66,0,0,0-7.4.9,6,6,0,0,1-7.32-4.6,46.77,46.77,0,0,0-92.59,9.68c0,.81,0,1.66.07,2.55a6,6,0,0,1-7.65,6.09,17.87,17.87,0,0,0-5-.71A18.38,18.38,0,0,0,435.48,356.44Z" transform="translate(-240.82 -177.83)"/><line class="cls-1" x1="269.48" y1="184.61" x2="145.98" y2="184.61"/><path class="cls-4" d="M510.3,368.44H386.79a6,6,0,0,1,0-12H510.3a6,6,0,0,1,0,12Z" transform="translate(-240.82 -177.83)"/><line class="cls-1" x1="611.85" y1="141.91" x2="583.56" y2="141.91"/><path class="cls-4" d="M852.66,325.74H824.38a6,6,0,1,1,0-12h28.28a6,6,0,1,1,0,12Z" transform="translate(-240.82 -177.83)"/><line class="cls-1" x1="242.71" y1="232.9" x2="182.51" y2="249.72"/><path class="cls-4" d="M423.32,433.56a6,6,0,0,1-1.61-11.78L481.92,405a6,6,0,0,1,3.23,11.55l-60.21,16.83A6,6,0,0,1,423.32,433.56Z" transform="translate(-240.82 -177.83)"/><line class="cls-1" x1="504.97" y1="376.43" x2="484.75" y2="382.08"/><path class="cls-4" d="M725.56,565.92A6,6,0,0,1,724,554.14l20.23-5.65A6,6,0,1,1,747.4,560l-20.22,5.65A6,6,0,0,1,725.56,565.92Z" transform="translate(-240.82 -177.83)"/><line class="cls-1" x1="257.83" y1="257.76" x2="237.6" y2="263.41"/><path class="cls-4" d="M478.42,447.24a6,6,0,0,1-1.61-11.78L497,429.81a6,6,0,0,1,3.23,11.56L480,447A6.08,6.08,0,0,1,478.42,447.24Z" transform="translate(-240.82 -177.83)"/><line class="cls-1" x1="435.62" y1="237.75" x2="415.39" y2="243.4"/><path class="cls-4" d="M656.21,427.24a6,6,0,0,1-1.62-11.78l20.23-5.65a6,6,0,0,1,3.23,11.55L657.82,427A6,6,0,0,1,656.21,427.24Z" transform="translate(-240.82 -177.83)"/><line class="cls-1" x1="637.84" y1="338.75" x2="531.52" y2="368.46"/><path class="cls-4" d="M772.33,552.3a6,6,0,0,1-1.61-11.78L877,510.81a6,6,0,0,1,3.23,11.56L774,552.07A6,6,0,0,1,772.33,552.3Z" transform="translate(-240.82 -177.83)"/><line class="cls-1" x1="371.13" y1="474.48" x2="103.58" y2="474.48"/><path class="cls-4" d="M612,658.31H344.39a6,6,0,0,1,0-12H612a6,6,0,0,1,0,12Z" transform="translate(-240.82 -177.83)"/><path class="cls-1" d="M646.81,649.92c0,.78,0,1.57-.06,2.34H398.68c0-.26,0-.52,0-.78,0-17.69,14.91-32,33.32-32a34.45,34.45,0,0,1,9.16,1.23c-.06-1.24-.1-2.5-.1-3.76,0-38.35,32.35-69.43,72.27-69.43,34.83,0,63.9,23.66,70.75,55.16a52.26,52.26,0,0,1,12.1-1.41C624.14,601.26,646.81,623,646.81,649.92Z" transform="translate(-240.82 -177.83)"/><path class="cls-4" d="M646.75,658.26H398.68a6,6,0,0,1-6-5.77c0-.33,0-.67,0-1,0-21,17.64-38,39.32-38,1.05,0,2.09,0,3.13.13,1.83-40.05,36.21-72.08,78.2-72.08,34.82,0,65.51,22.5,75.15,54.26a58.23,58.23,0,0,1,7.7-.51c31.23,0,56.64,24.52,56.64,54.66,0,.88,0,1.77-.07,2.64A6,6,0,0,1,646.75,658.26Zm-241.53-12H640.65c-1.95-21.81-21.15-39-44.48-39a46.47,46.47,0,0,0-10.72,1.25,6,6,0,0,1-7.24-4.56c-6.36-29.23-33.65-50.44-64.89-50.44-36.54,0-66.27,28.46-66.27,63.43,0,1.08,0,2.24.1,3.43a6,6,0,0,1-7.59,6.12,28.38,28.38,0,0,0-7.57-1C418.8,625.46,407.76,634.41,405.22,646.26Z" transform="translate(-240.82 -177.83)"/><path class="cls-1" d="M596.17,601.26s-16.49-1.64-24.89,14.31" transform="translate(-240.82 -177.83)"/><path class="cls-4" d="M571.28,621.57a6,6,0,0,1-5.31-8.79c10.16-19.31,30-17.57,30.8-17.49a6,6,0,0,1-1.15,12,20.38,20.38,0,0,0-19,11.13A6,6,0,0,1,571.28,621.57Z" transform="translate(-240.82 -177.83)"/></g></svg>