<svg id="Layer_1" data-name="Layer 1" xmlns="http://www.w3.org/2000/svg" viewBox="0 0 1951.86 1952"><defs><style>.cls-1{fill:#fff;}</style></defs><title>both</title><path class="cls-1" d="M295.28,1979.12H27.12V27.12H413.78c-1.85.82-3.63,2.07-5.57,2.41C323.46,44.34,257.53,124,270.8,216.61c9.26,64.63,46.14,111.09,106.06,133,98.5,36,197.45-19.85,220.06-117.63,14.06-60.81-1.26-114.56-47.56-158.74-27-25.8-59.62-38.46-95.05-46.09H1421c-1.91.77-3.75,1.94-5.72,2.24C1340.5,40.94,1278.41,107.08,1275,184c-2.87,64.94,24.07,115.15,76.78,150.44,56.86,38.06,139.87,33.36,195.69-12.63,73.91-60.89,80.13-179,10.94-245.55-27.62-26.56-60.5-40.89-96.92-49.15H1979v1952H1583.11c49.12-19,64.63-55.69,64-106.85-1.95-152.74-.71-305.52-.7-458.29,0-19.94,0-20,20.56-20q60,0,120,0c27.79,0,55.13-25.72,56.19-53.37,1-26-1.17-50.87-10.56-76.21-49.59-133.8-97.36-268.27-145.89-402.47Q1647,752.12,1606.81,642.48c-4-11-2.81-19.67,8.47-24.54,10.63-4.58,18-.4,22.13,10.23,1.11,2.9,2.64,5.65,3.75,8.55q30.22,78.43,60.37,156.91,48.53,126.43,96.93,252.92c8.39,21.94,23.43,36.69,46.27,42.13,13,3.1,26.64,5.83,39.87,5.34,8.33-.3,20.76-4.69,23.9-11,14.79-29.57,29.94-59.74,11.82-94.25-8.17-15.54-13.63-32.5-20.31-48.83q-50.7-123.87-101.32-247.79c-12.29-30.26-27.34-60-34.64-91.53-9.61-41.46-26.58-76.92-57.52-106-35.51-33.42-76.85-57-125.52-59.22-76.23-3.47-152.67-2.24-229-3.06-40-.43-78.78,5.34-114.51,24.46-42.91,23-79.9,53-100.59,98.07-13.33,29-22.23,60.1-33.48,90.11q-65.34,174.16-130.76,348.31c-6.24,16.7-14,32.72-8.8,52.46,11.78,44.49,19.26,51.17,64.53,47.36,31.8-2.68,57.23-14,65.57-49,3.22-13.52,9.5-26.32,14.36-39.45q61.8-167.18,123.63-334.35c4.5-12.17,9.19-24.26,13.88-36.35,3.9-10.09,11.43-15.42,21.92-12.53,12.15,3.36,11,13.65,8.89,23.09-1.21,5.53-3.71,10.77-5.62,16.15q-56.61,160-113.23,319.93c-27.7,78.28-56,156.35-82.83,234.91-13.32,38.91-32.8,76.28-28.57,120,2.58,26.7,31.77,58.45,58.56,58.57,39.49.18,79,0,118.47.08,6.09,0,12.18.51,19.53.84v19.85c0,159.52.31,319-.22,478.55-.12,38.07,18.67,62.28,50.67,78.79,5,2.57,10.2,4.71,15.31,7H582.16c47.9-12.81,61.77-47.49,59.49-92.55-.08-1.56,0-3.12,0-4.68q0-609.5,0-1219c0-35.06,0-35.06,35.65-30.26.46.07.88.47,3.71,2v20q0,208.88.06,417.76c0,9.86-.1,19.85,1.34,29.55,3.78,25.29,16.14,44.9,40.91,54.26,22.58,8.53,41.64.49,58.52-14.76,17.87-16.14,20.56-37.75,20.58-59.85q.24-240.06-.07-480.11c-.08-36.25-5.46-71.48-28.84-101.4-33.36-42.69-79.5-63-131.21-64.73C539,432,435.58,432.89,332.2,432.45c-30.11-.12-60.28.42-90.33,2.16a214.6,214.6,0,0,0-109.3,37.25c-43.33,29.43-55.93,74-55.95,123.59q-.11,258-.17,516c0,26.26,10.83,44.69,34.47,55.85s45.59,8.09,65.94-7.31c17.91-13.56,21.53-33,21.51-54.15q-.27-226.81-.09-453.62V632.72h39.26v17.87q0,616.52.07,1233c0,10.38,0,20.86,1.35,31.12,4,30.39,18.8,52.33,49.78,60.92C291.06,1976.31,293.11,1977.94,295.28,1979.12Z" transform="translate(-27.12 -27.12)"/><path d="M1308.7,1979.12c-5.11-2.34-10.32-4.48-15.31-7-32-16.51-50.79-40.72-50.67-78.79.53-159.51.22-319,.22-478.55v-19.85c-7.35-.33-13.44-.83-19.53-.84-39.49-.07-79,.1-118.47-.08-26.79-.12-56-31.87-58.56-58.57-4.23-43.67,15.25-81,28.57-120,26.88-78.56,55.13-156.63,82.83-234.91q56.61-160,113.23-319.93c1.91-5.38,4.41-10.62,5.62-16.15,2.07-9.44,3.26-19.73-8.89-23.09-10.49-2.89-18,2.44-21.92,12.53-4.69,12.09-9.38,24.18-13.88,36.35q-61.86,167.16-123.63,334.35c-4.86,13.13-11.14,25.93-14.36,39.45-8.34,35.08-33.77,46.37-65.57,49-45.27,3.81-52.75-2.87-64.53-47.36-5.24-19.74,2.56-35.76,8.8-52.46Q1037.72,819,1103.41,645c11.25-30,20.15-61.07,33.48-90.11,20.69-45.08,57.68-75.09,100.59-98.07,35.73-19.12,74.49-24.89,114.51-24.46,76.35.82,152.79-.41,229,3.06,48.67,2.22,90,25.8,125.52,59.22,30.94,29.12,47.91,64.58,57.52,106,7.3,31.5,22.35,61.27,34.64,91.53Q1849.06,816.19,1900,940c6.68,16.33,12.14,33.29,20.31,48.83,18.12,34.51,3,64.68-11.82,94.25-3.14,6.29-15.57,10.68-23.9,11-13.23.49-26.84-2.24-39.87-5.34-22.84-5.44-37.88-20.19-46.27-42.13Q1750.13,920,1701.53,793.63q-30.12-78.48-60.37-156.91c-1.11-2.9-2.64-5.65-3.75-8.55-4.08-10.63-11.5-14.81-22.13-10.23-11.28,4.87-12.5,13.55-8.47,24.54q40.18,109.64,79.91,219.45c48.53,134.2,96.3,268.67,145.89,402.47,9.39,25.34,11.56,50.25,10.56,76.21-1.06,27.65-28.4,53.33-56.19,53.37q-60,.09-120,0c-20.54,0-20.56,0-20.56,20,0,152.77-1.25,305.55.7,458.29.65,51.16-14.86,87.83-64,106.85h-34.3c-48.49-20.59-64.25-57.89-63.26-109.25,2.23-115.26.7-230.59.7-345.89,0-45.7-.33-91.41.22-137.11.14-11.74-3.78-17.74-15.52-18-15-.36-30.11-1.49-45.08-.64-21.33,1.21-22.37,3-22.37,24.2q0,248.52.12,497c0,25.47-4.79,49.11-24.48,66.41-10.64,9.35-24,15.61-36.14,23.26Z" transform="translate(-27.12 -27.12)"/><path d="M295.28,1979.12c-2.17-1.18-4.22-2.81-6.54-3.46-31-8.59-45.79-30.53-49.78-60.92-1.35-10.26-1.34-20.74-1.35-31.12q-.09-616.51-.07-1233V632.72H198.28v19.47q0,226.8.09,453.62c0,21.16-3.6,40.59-21.51,54.15-20.35,15.4-42.42,18.41-65.94,7.31s-34.5-29.59-34.47-55.85q.39-258,.17-516c0-49.58,12.62-94.16,55.95-123.59a214.6,214.6,0,0,1,109.3-37.25c30.05-1.74,60.22-2.28,90.33-2.16,103.38.44,206.82-.44,310.11,2.94,51.71,1.69,97.85,22,131.21,64.73,23.38,29.92,28.76,65.15,28.84,101.4q.52,240,.07,480.11c0,22.1-2.71,43.71-20.58,59.85-16.88,15.25-35.94,23.29-58.52,14.76-24.77-9.36-37.13-29-40.91-54.26-1.44-9.7-1.34-19.69-1.34-29.55Q681,863.54,681,654.67v-20c-2.83-1.57-3.25-2-3.71-2-35.65-4.8-35.65-4.8-35.65,30.26q0,609.5,0,1219c0,1.56-.07,3.12,0,4.68,2.28,45.06-11.59,79.74-59.49,92.55H538.5c-13.42-8.19-28.77-14.38-39.81-25-17.35-16.72-16.85-40.31-16.85-62.83q0-357.65,0-715.29v-21.33h-62.7c-21,0-21,0-21,21.07q0,348.29,0,696.58c0,12,.11,23.92-.66,35.83-2.41,37.37-17.48,56.35-53.24,68-1.88.61-3.53,2-5.28,3Z" transform="translate(-27.12 -27.12)"/><path d="M1461.5,27.12c36.42,8.26,69.3,22.59,96.92,49.15,69.19,66.55,63,184.66-10.94,245.55-55.82,46-138.83,50.69-195.69,12.63C1299.08,299.16,1272.14,249,1275,184c3.4-76.93,65.49-143.07,140.23-154.65,2-.3,3.81-1.47,5.72-2.24Z" transform="translate(-27.12 -27.12)"/><path d="M454.31,27.12c35.43,7.63,68,20.29,95.05,46.09C595.66,117.39,611,171.14,596.92,232c-22.61,97.78-121.56,153.61-220.06,117.63-59.92-21.88-96.8-68.34-106.06-133C257.53,124,323.46,44.34,408.21,29.53c1.94-.34,3.72-1.59,5.57-2.41Z" transform="translate(-27.12 -27.12)"/><path class="cls-1" d="M338.94,1979.12c1.75-1,3.4-2.36,5.28-3,35.76-11.68,50.83-30.66,53.24-68,.77-11.91.65-23.88.66-35.83q0-348.29,0-696.58c0-21,0-21.06,21-21.07h62.7V1176q0,357.65,0,715.29c0,22.52-.5,46.11,16.85,62.83,11,10.65,26.39,16.84,39.81,25Z" transform="translate(-27.12 -27.12)"/><path class="cls-1" d="M1343,1979.12c12.14-7.65,25.5-13.91,36.14-23.26,19.69-17.3,24.52-40.94,24.48-66.41q-.36-248.51-.12-497c0-21.22,1-23,22.37-24.2,15-.85,30.05.28,45.08.64,11.74.27,15.66,6.27,15.52,18-.55,45.7-.22,91.41-.22,137.11,0,115.3,1.53,230.63-.7,345.89-1,51.36,14.77,88.66,63.26,109.25Z" transform="translate(-27.12 -27.12)"/></svg>