<svg id="Layer_1" data-name="Layer 1" xmlns="http://www.w3.org/2000/svg" viewBox="0 0 989.58 1777.84"><defs><style>.cls-1{fill:#fff;}</style></defs><title>female</title><path class="cls-1" d="M1110.91,130.43H1581.6V1908.27H592V130.43h482c-1.74.69-3.43,1.74-5.23,2-68.23,10.69-124.41,70.9-127.48,140.67-2.6,59,21.95,104.63,69.82,136.78,50.9,34.18,126.64,30.85,177.93-11.51,67.25-55.52,72.87-162.6,10-223.28C1174,150.9,1144,138,1110.91,130.43ZM912.18,1373.37v19.25q0,165.14,0,330.28c0,38.28-.74,76.58.44,114.81,1.51,48.79,61.39,82.66,104.47,60.1,29.09-15.23,41.22-39.66,41.16-71.8q-.35-178.6-.1-357.22c0-33.55.53-67.11-.27-100.64-.29-12.35,4.5-17.46,16-17.79,12.73-.36,25.51-1.26,38.2-.65,20.41,1,21.34,2.4,21.34,22.49q0,223.26,0,446.52c0,6.14,0,12.32.55,18.41,4.86,49.55,57.27,82.55,100.21,62,31-14.82,45.1-40.7,45-75.5-.41-145.06,0-290.12-.39-435.18,0-11.49,2.79-15.62,14.89-15.4,38.73.72,77.5.84,116.22-.16,8.57-.22,18.09-4.4,25.28-9.45,29.58-20.78,28.66-61.94,17.85-93.39-28.07-81.63-58.49-162.46-87.88-243.65q-60-165.73-120-331.47c-4-11.08-8.14-21.5,5.93-27.31,14.87-6.13,18.5,6,22.8,16.07.55,1.31,1.08,2.62,1.59,3.94,45.37,118.55,91.22,236.91,135.87,355.72,16.88,44.92,36.33,55.58,84.65,57.37,7,.26,18-3.86,20.76-9.22,13.31-26.36,27.64-53.13,12.35-84.25-7.27-14.79-12.76-30.45-19-45.73q-46.35-113.33-92.61-226.67c-11.17-27.52-24.84-54.61-31.47-83.26-8.73-37.73-24.39-69.86-52.49-96.33C1302,525.6,1265.15,503.48,1222.1,502c-83.95-2.8-168.38-5.27-252,.63-68.86,4.85-120.5,45.87-153.93,106.67-8.93,16.25-12.83,35.22-19.44,52.8C752.54,779.61,708,897,664.4,1014.64c-4.68,12.63-7.74,27.93-5.25,40.77,8.47,43.59,21.59,51,65.32,43.75,26.61-4.43,45.49-16.45,52.35-44.34,3.13-12.74,9-24.8,13.61-37.18q60.42-162.54,120.8-325.09c6.87-18.52,13.82-25.12,23.89-21.84s11.11,12.66,4.1,32.2q-15.06,42-29.93,84c-54.79,154.81-109.23,309.73-164.63,464.32-8.66,24.17-12.65,48.24-10.57,73.43.52,6.26,2.64,13.4,6.46,18.2,15.38,19.29,32.39,36,60.74,30.75,8.23-1.51,17-.24,25.47-.24Z" transform="translate(-592.02 -130.43)"/><path d="M1110.91,130.43C1144,138,1174,150.9,1199.08,175.11c62.88,60.68,57.26,167.76-10,223.28-51.29,42.36-127,45.69-177.93,11.51-47.87-32.15-72.42-77.74-69.82-136.78,3.07-69.77,59.25-130,127.48-140.67,1.8-.28,3.49-1.33,5.23-2Z" transform="translate(-592.02 -130.43)"/><path d="M912.18,1373.37H826.76c-8.5,0-17.24-1.27-25.47.24-28.35,5.21-45.36-11.46-60.74-30.75-3.82-4.8-5.94-11.94-6.46-18.2-2.08-25.19,1.91-49.26,10.57-73.43,55.4-154.59,109.84-309.51,164.63-464.32q14.87-42,29.93-84c7-19.54,5.88-29-4.1-32.2s-17,3.32-23.89,21.84q-60.32,162.57-120.8,325.09c-4.6,12.38-10.48,24.44-13.61,37.18-6.86,27.89-25.74,39.91-52.35,44.34-43.73,7.28-56.85-.16-65.32-43.75-2.49-12.84.57-28.14,5.25-40.77,43.6-117.69,88.14-235,132.32-352.5,6.61-17.58,10.51-36.55,19.44-52.8,33.43-60.8,85.07-101.82,153.93-106.67,83.63-5.9,168.06-3.43,252-.63,43.05,1.44,79.85,23.56,111.4,53.27,28.1,26.47,43.76,58.6,52.49,96.33,6.63,28.65,20.3,55.74,31.47,83.26q46,113.45,92.61,226.67c6.26,15.28,11.75,30.94,19,45.73,15.29,31.12,1,57.89-12.35,84.25-2.71,5.36-13.75,9.48-20.76,9.22-48.32-1.79-67.77-12.45-84.65-57.37-44.65-118.81-90.5-237.17-135.87-355.72-.51-1.32-1-2.63-1.59-3.94-4.3-10.1-7.93-22.2-22.8-16.07-14.07,5.81-10,16.23-5.93,27.31q60.33,165.62,120,331.47c29.39,81.19,59.81,162,87.88,243.65,10.81,31.45,11.73,72.61-17.85,93.39-7.19,5-16.71,9.23-25.28,9.45-38.72,1-77.49.88-116.22.16-12.1-.22-14.92,3.91-14.89,15.4.34,145.06,0,290.12.39,435.18.1,34.8-14,60.68-45,75.5-42.94,20.5-95.35-12.5-100.21-62-.6-6.09-.54-12.27-.55-18.41q0-223.26,0-446.52c0-20.09-.93-21.52-21.34-22.49-12.69-.61-25.47.29-38.2.65-11.48.33-16.27,5.44-16,17.79.8,33.53.27,67.09.27,100.64q0,178.61.1,357.22c.06,32.14-12.07,56.57-41.16,71.8-43.08,22.56-103-11.31-104.47-60.1-1.18-38.23-.43-76.53-.44-114.81q-.06-165.14,0-330.28Z" transform="translate(-592.02 -130.43)"/></svg>