<svg xmlns="http://www.w3.org/2000/svg" viewBox="0 0 1280 1280"><defs><style>.cls-1{fill:#7f85fc;}.cls-2{fill:#f4d01e;}.cls-3{fill:#ff8c00;}.cls-4,.cls-6{fill:#b3c6f3;}.cls-4,.cls-7{stroke:#000;stroke-linecap:round;stroke-linejoin:round;stroke-width:40px;}.cls-5{fill:#ccdcff;}.cls-7{fill:none;}.cls-8{fill:#fff;}</style></defs><title>helper</title><g id="Layer_2" data-name="Layer 2"><path class="cls-1" d="M790,720a50,50,0,1,1,50-50A50,50,0,0,1,790,720Zm0-80a30,30,0,1,0,30,30A30,30,0,0,0,790,640Z" transform="translate(-440 -440)"/><path class="cls-2" d="M1550,1540a50,50,0,1,1,50-50A50,50,0,0,1,1550,1540Zm0-80a30,30,0,1,0,30,30A30,30,0,0,0,1550,1460Z" transform="translate(-440 -440)"/><path class="cls-2" d="M1036.58,574.22c-2.15-1.15-12.65-6.93-15.51-8.5a17.45,17.45,0,0,1-6.79-6.79c-1.6-2.86-7.31-13.4-8.48-15.51a6.63,6.63,0,0,0-11.6,0c-1.17,2.11-6.88,12.65-8.48,15.51a17.45,17.45,0,0,1-6.79,6.79c-2.86,1.57-13.36,7.35-15.51,8.5a6.59,6.59,0,0,0,0,11.56c2.15,1.15,12.65,6.93,15.51,8.5a17.45,17.45,0,0,1,6.79,6.79c1.6,2.86,7.31,13.4,8.48,15.51a6.63,6.63,0,0,0,11.6,0c1.17-2.11,6.88-12.65,8.48-15.51a17.45,17.45,0,0,1,6.79-6.79c2.86-1.57,13.36-7.35,15.51-8.5a6.59,6.59,0,0,0,0-11.56Z" transform="translate(-440 -440)"/><path class="cls-3" d="M1376.58,1554.22c-2.15-1.15-12.65-6.93-15.51-8.5a17.45,17.45,0,0,1-6.79-6.79c-1.6-2.86-7.31-13.4-8.48-15.51a6.63,6.63,0,0,0-11.6,0c-1.17,2.11-6.88,12.65-8.48,15.51a17.45,17.45,0,0,1-6.79,6.79c-2.86,1.57-13.36,7.35-15.51,8.5a6.59,6.59,0,0,0,0,11.56c2.15,1.15,12.65,6.93,15.51,8.5a17.45,17.45,0,0,1,6.79,6.79c1.6,2.86,7.31,13.4,8.48,15.51a6.63,6.63,0,0,0,11.6,0c1.17-2.11,6.88-12.65,8.48-15.51a17.45,17.45,0,0,1,6.79-6.79c2.86-1.57,13.36-7.35,15.51-8.5a6.59,6.59,0,0,0,0-11.56Z" transform="translate(-440 -440)"/><path class="cls-1" d="M757.44,1445.66l-11.64-6.38a12.67,12.67,0,0,1-5.08-5.08c-1.17-2.15-5.47-10.08-6.36-11.64a5,5,0,0,0-8.72,0c-.89,1.56-5.19,9.49-6.36,11.64a12.67,12.67,0,0,1-5.08,5.08l-11.64,6.38a5,5,0,0,0,0,8.68l11.64,6.38a12.67,12.67,0,0,1,5.08,5.08c1.17,2.15,5.47,10.08,6.36,11.64a5,5,0,0,0,8.72,0c.89-1.56,5.19-9.49,6.36-11.64a12.67,12.67,0,0,1,5.08-5.08l11.64-6.38a5,5,0,0,0,0-8.68Z" transform="translate(-440 -440)"/><path class="cls-1" d="M1337.44,605.66l-11.64-6.38a12.67,12.67,0,0,1-5.08-5.08c-1.17-2.15-5.47-10.08-6.36-11.64a5,5,0,0,0-8.72,0c-.89,1.56-5.19,9.49-6.36,11.64a12.67,12.67,0,0,1-5.08,5.08l-11.64,6.38a5,5,0,0,0,0,8.68l11.64,6.38a12.67,12.67,0,0,1,5.08,5.08c1.17,2.15,5.47,10.08,6.36,11.64a5,5,0,0,0,8.72,0c.89-1.56,5.19-9.49,6.36-11.64a12.67,12.67,0,0,1,5.08-5.08l11.64-6.38a5,5,0,0,0,0-8.68Z" transform="translate(-440 -440)"/><path class="cls-2" d="M1717.44,925.66l-11.64-6.38a12.67,12.67,0,0,1-5.08-5.08c-1.17-2.15-5.47-10.08-6.36-11.64a5,5,0,0,0-8.72,0c-.89,1.56-5.19,9.49-6.36,11.64a12.67,12.67,0,0,1-5.08,5.08l-11.64,6.38a5,5,0,0,0,0,8.68l11.64,6.38a12.67,12.67,0,0,1,5.08,5.08c1.17,2.15,5.47,10.08,6.36,11.64a5,5,0,0,0,8.72,0c.89-1.56,5.19-9.49,6.36-11.64a12.67,12.67,0,0,1,5.08-5.08l11.64-6.38a5,5,0,0,0,0-8.68Z" transform="translate(-440 -440)"/><circle class="cls-3" cx="1055" cy="115" r="15"/><circle class="cls-2" cx="155" cy="1095" r="15"/><circle class="cls-3" cx="415" cy="1215" r="15"/><circle class="cls-1" cx="510" cy="370" r="10"/><circle class="cls-3" cx="1210" cy="910" r="10"/><circle class="cls-3" cx="10" cy="810" r="10"/><circle class="cls-2" cx="770" cy="1270" r="10"/><circle class="cls-1" cx="690" cy="10" r="10"/><circle class="cls-3" cx="200" cy="460" r="20"/></g><g id="Layer_3" data-name="Layer 3"><path class="cls-4" d="M1083.55,1318.74l-64.63,187.77a20.11,20.11,0,0,1-6,8.74l199.56-169.17Z" transform="translate(-440 -440)"/><path class="cls-5" d="M895.82,1278.93,1470,720a29.91,29.91,0,0,1,22.08,9.7l-408.53,589-64.63,187.77a20,20,0,0,1-37.66.51Z" transform="translate(-440 -440)"/><path class="cls-6" d="M1483.47,723.2,988.53,1298.59a154.07,154.07,0,0,0-27.47,154.5l20.2,53.93a20,20,0,0,0,37.66-.51l64.63-187.77,408.53-589A30,30,0,0,0,1483.47,723.2Z" transform="translate(-440 -440)"/><path class="cls-7" d="M936.46,1387.41l-40.64-108.48L1470,720a29.91,29.91,0,0,1,22.08,9.7l-408.53,589-64.63,187.77a20,20,0,0,1-37.66.51l-20.19-53.91" transform="translate(-440 -440)"/><path class="cls-8" d="M1083.55,1318.73l129,27.35,251.25,53.27a30.6,30.6,0,0,0,6.25.65,30,30,0,0,0,30-30V750a29.86,29.86,0,0,0-7.92-20.3Z" transform="translate(-440 -440)"/><path class="cls-5" d="M1492.08,729.7l-7.48,10.78-77,647,56.19,11.92a30.6,30.6,0,0,0,6.25.65,30,30,0,0,0,30-30V750A29.86,29.86,0,0,0,1492.08,729.7Z" transform="translate(-440 -440)"/><path class="cls-7" d="M1500,940V750a29.86,29.86,0,0,0-7.92-20.3l-408.53,589,129,27.35,251.25,53.27a30.6,30.6,0,0,0,6.25.65,30,30,0,0,0,30-30V1080" transform="translate(-440 -440)"/><line class="cls-7" x1="1060" y1="580" x2="1060" y2="560"/><path class="cls-8" d="M1455.71,723.62,610.47,1182.41a20,20,0,0,0,5.36,37.15l280,59.37L1470,720A29.84,29.84,0,0,0,1455.71,723.62Z" transform="translate(-440 -440)"/><path class="cls-5" d="M1447.72,728,790.39,1256.58l105.43,22.35L1470,720a29.84,29.84,0,0,0-14.29,3.62Z" transform="translate(-440 -440)"/><path class="cls-7" d="M809,1074.64,610.47,1182.41a20,20,0,0,0,5.36,37.15l280,59.37L1470,720a29.84,29.84,0,0,0-14.29,3.62L931.82,1008" transform="translate(-440 -440)"/><line class="cls-7" x1="438.83" y1="596.75" x2="421.64" y2="606.08"/></g></svg>