<svg id="Layer_1" data-name="Layer 1" xmlns="http://www.w3.org/2000/svg" viewBox="0 0 849 1878"><defs><style>.cls-1{fill:#fff;}</style></defs><title>male</title><path class="cls-1" d="M809,1942H551V64H923c-1.78.79-3.49,2-5.35,2.32-81.46,14.26-145,90.71-132.21,180,8.9,62.16,44.38,106.87,102,127.93,94.72,34.59,190-19.1,211.71-113.18,13.51-58.51-1.23-110.21-45.76-152.72-26-24.83-57.37-37-91.44-44.34h438V1942H1085c46.14-12.3,59.4-45.72,57.24-89-.08-1.5,0-3,0-4.5q0-586.4,0-1172.79c0-33.71,0-33.71,34.3-29.09.45.06.85.45,2.71,1.49.26,6,.82,12.85.83,19.71q.08,201,.09,401.93c0,9,.3,18,1.11,27,2.39,26.48,22,50.42,45.16,55.73,22.65,5.18,49.22-5.92,61.07-30.61,7-14.57,9-32.69,9.12-49.23.67-142.48.47-284.95.29-427.43,0-19.46-.43-39-2.3-58.38-5.2-53.59-34.68-89.78-82.56-112.35-36.71-17.31-75.88-20.46-115.59-20.5q-147-.13-293.94.07c-15.48,0-31,.86-46.42,2.09-37.59,3-72.62,14.73-103.66,35.83-40,27.2-53.57,68.14-53.64,114.41q-.34,252-.18,503.91c0,26.41,13.68,42.76,37.16,52.44s44.56,4.23,62.73-11.57c14.58-12.67,17.29-30.52,17.27-49.27q-.33-218.2-.12-436.42V646.65h37.77v17.2q0,593.14.06,1186.29c0,8.49.17,17,.85,25.47,2.75,34.37,17.21,52.57,49.83,63.39C805.93,1939.57,807.4,1941,809,1942Z" transform="translate(-551 -64)"/><path d="M809,1942c-1.6-1-3.07-2.43-4.82-3-32.62-10.82-47.08-29-49.83-63.39-.68-8.46-.85-17-.85-25.47q-.07-593.15-.06-1186.29v-17.2H715.67v18.72q0,218.21.12,436.42c0,18.75-2.69,36.6-17.27,49.27-18.17,15.8-39.28,21.24-62.73,11.57s-37.17-26-37.16-52.44q.12-252,.18-503.91c.07-46.27,13.64-87.21,53.64-114.41,31-21.1,66.07-32.83,103.66-35.83,15.43-1.23,30.94-2.06,46.42-2.09q147-.29,293.94-.07c39.71,0,78.88,3.19,115.59,20.5,47.88,22.57,77.36,58.76,82.56,112.35,1.87,19.36,2.27,38.92,2.3,58.38.18,142.48.38,284.95-.29,427.43-.08,16.54-2.12,34.66-9.12,49.23-11.85,24.69-38.42,35.79-61.07,30.61-23.2-5.31-42.77-29.25-45.16-55.73-.81-9-1.11-18-1.11-27q-.11-201-.09-401.93c0-6.86-.57-13.72-.83-19.71-1.86-1-2.26-1.43-2.71-1.49-34.3-4.62-34.3-4.62-34.3,29.09q0,586.39,0,1172.79c0,1.5-.07,3,0,4.5,2.16,43.33-11.1,76.75-57.24,89h-42c-12.92-7.88-27.71-13.83-38.33-24.08-16.66-16.1-16.18-38.79-16.18-60.47q0-344.07,0-688.16v-20.51H928.17c-20.23,0-20.24,0-20.23,20.27q0,336.59,0,673.17c0,10.49.07,21-.62,31.47-2.39,36-16.87,54.26-51.22,65.47-1.81.59-3.4,1.88-5.09,2.84Z" transform="translate(-551 -64)"/><path d="M962,64c34.07,7.37,65.43,19.51,91.44,44.34,44.53,42.51,59.27,94.21,45.76,152.72-21.73,94.08-117,147.77-211.71,113.18-57.67-21.06-93.15-65.77-102-127.93C772.66,157,836.19,80.58,917.65,66.32c1.86-.33,3.57-1.53,5.35-2.32Z" transform="translate(-551 -64)"/><path class="cls-1" d="M851,1942c1.69-1,3.28-2.25,5.09-2.84,34.35-11.21,48.83-29.48,51.22-65.47.69-10.46.62-21,.62-31.47q0-336.59,0-673.17c0-20.25,0-20.26,20.23-20.27H988.5v20.51q0,344.09,0,688.16c0,21.68-.48,44.37,16.18,60.47,10.62,10.25,25.41,16.2,38.33,24.08Z" transform="translate(-551 -64)"/></svg>